<?xml version="1.0" encoding="utf-8"?>
<!-- Generator: Adobe Illustrator 21.0.1, SVG Export Plug-In . SVG Version: 6.00 Build 0)  -->
<svg version="1.1" id="Symbol_Editing_Mode" xmlns="http://www.w3.org/2000/svg" xmlns:xlink="http://www.w3.org/1999/xlink"
	 x="0px" y="0px" width="380px" height="64.66px" viewBox="0 0 380 64.66" enable-background="new 0 0 380 64.66"
	 xml:space="preserve">
<path fill="#1F4388" d="M98.457,40.013c0,0.706-0.026,0.758-0.34,0.942c-1.701,0.89-4.264,1.177-6.305,1.177
	c-6.41,0-12.087-3.034-12.087-10.255c0-4.186,2.171-7.116,4.552-8.555c2.511-1.518,4.84-1.701,7.038-1.701
	c1.806,0,4.108,0.314,4.63,0.418c0.55,0.105,1.465,0.262,2.066,0.288c0.314,0.026,0.366,0.131,0.366,0.314
	c0,0.288-0.183,1.02-0.183,4.29c0,0.418-0.078,0.55-0.288,0.55c-0.183,0-0.235-0.131-0.262-0.34c-0.078-0.602-0.21-1.439-0.89-2.171
	c-0.785-0.837-2.878-2.041-5.834-2.041c-1.439,0-3.349,0.105-5.18,1.622c-1.465,1.23-2.407,3.192-2.407,6.41
	c0,5.625,3.584,9.837,9.104,9.837c0.68,0,1.596,0,2.224-0.288c0.393-0.183,0.498-0.523,0.498-0.968v-2.459
	c0-1.308,0-2.302-0.026-3.087c-0.026-0.89-0.262-1.308-1.125-1.491c-0.21-0.052-0.654-0.078-1.02-0.078
	c-0.235,0-0.392-0.052-0.392-0.21c0-0.209,0.183-0.262,0.55-0.262c1.361,0,3.009,0.078,3.794,0.078c0.811,0,2.198-0.078,3.061-0.078
	c0.34,0,0.523,0.052,0.523,0.262c0,0.157-0.157,0.21-0.34,0.21c-0.21,0-0.393,0.026-0.706,0.078
	c-0.706,0.131-0.968,0.575-0.994,1.491c-0.026,0.785-0.026,1.831-0.026,3.139L98.457,40.013L98.457,40.013z"/>
<path fill="#1F4388" d="M106.097,35.304c0,2.851,0,4.264,0.497,4.683c0.393,0.34,1.282,0.47,3.061,0.47
	c1.23,0,2.119-0.026,2.694-0.628c0.288-0.288,0.523-0.916,0.576-1.334c0.026-0.21,0.078-0.34,0.262-0.34
	c0.157,0,0.21,0.235,0.21,0.498c0,0.262-0.157,1.91-0.34,2.564c-0.157,0.497-0.262,0.602-1.465,0.602
	c-1.648,0-2.982-0.026-4.134-0.078c-1.151-0.026-2.119-0.052-3.061-0.052c-0.262,0-0.758,0.026-1.308,0.026
	c-0.55,0.026-1.125,0.052-1.596,0.052c-0.287,0-0.445-0.078-0.445-0.235c0-0.105,0.078-0.235,0.366-0.235
	c0.34,0,0.602-0.026,0.811-0.078c0.471-0.105,0.602-0.523,0.681-1.178c0.105-0.942,0.105-2.694,0.105-4.735V31.38
	c0-3.375,0-4.002-0.026-4.709c-0.052-0.758-0.262-0.994-0.994-1.203c-0.183-0.052-0.471-0.078-0.758-0.078
	c-0.262,0-0.393-0.078-0.393-0.235s0.157-0.21,0.497-0.21c1.073,0,2.538,0.052,3.166,0.052c0.55,0,2.433-0.052,3.322-0.052
	c0.34,0,0.497,0.052,0.497,0.21c0,0.157-0.131,0.235-0.418,0.235c-0.262,0-0.628,0.026-0.89,0.078
	c-0.628,0.105-0.811,0.418-0.863,1.203c-0.052,0.706-0.052,1.334-0.052,4.709v3.924H106.097z"/>
<path fill="#1F4388" d="M113.762,33.342c0-3.794,2.668-8.712,9.654-8.712c5.808,0,9.418,3.218,9.418,8.319
	c0,5.102-3.715,9.105-9.654,9.105C116.483,42.054,113.762,37.292,113.762,33.342z M129.407,33.76c0-4.918-2.957-7.953-6.671-7.953
	c-2.564,0-5.573,1.36-5.573,6.854c0,4.578,2.616,8.189,6.959,8.189C125.744,40.85,129.407,40.091,129.407,33.76z"/>
<path fill="#1F4388" d="M136.471,31.379c0-3.375,0-4.002-0.026-4.709c-0.052-0.758-0.262-0.994-0.994-1.203
	c-0.183-0.052-0.576-0.078-0.916-0.078c-0.235,0-0.393-0.078-0.393-0.235c0-0.157,0.183-0.21,0.523-0.21
	c1.203,0,2.668,0.052,3.113,0.052c1.151,0,2.669-0.052,3.454-0.052c4.16,0,4.892,2.145,4.892,3.322c0,1.726-1.282,3.061-2.59,3.898
	c1.884,0.602,4.238,2.198,4.238,4.814c0,2.381-1.884,4.84-6.122,4.84c-0.262,0-1.046-0.026-1.831-0.078
	c-0.785-0.026-1.596-0.052-1.962-0.052c-0.262,0-0.758,0.026-1.308,0.026c-0.55,0.026-1.125,0.052-1.596,0.052
	c-0.287,0-0.445-0.078-0.445-0.235c0-0.105,0.078-0.235,0.366-0.235c0.34,0,0.602-0.026,0.811-0.078
	c0.471-0.105,0.602-0.523,0.681-1.178c0.105-0.942,0.105-2.694,0.105-4.735L136.471,31.379L136.471,31.379z M139.454,31.746
	c0,0.183,0.078,0.21,0.157,0.235c0.21,0.052,0.55,0.078,1.073,0.078c0.759,0,1.413-0.078,1.806-0.393
	c0.602-0.47,1.046-1.282,1.046-2.354c0-1.491-0.89-3.349-2.878-3.349c-0.314,0-0.758,0-0.994,0.052
	c-0.157,0.026-0.21,0.131-0.21,0.366L139.454,31.746L139.454,31.746z M139.454,38.286c0,1.465,0.078,1.91,0.811,2.198
	c0.602,0.235,1.125,0.262,1.648,0.262c1.23,0,2.826-0.68,2.826-3.139c0-1.02-0.445-2.774-2.171-3.95
	c-0.471-0.34-1.098-0.576-1.988-0.576h-0.994c-0.078,0-0.131,0.026-0.131,0.157V38.286z"/>
<path fill="#1F4388" d="M153.686,36.141c-0.131,0-0.157,0.026-0.209,0.157l-1.23,3.009c-0.235,0.55-0.34,1.099-0.34,1.36
	c0,0.393,0.21,0.628,0.916,0.628h0.34c0.288,0,0.34,0.105,0.34,0.235c0,0.183-0.131,0.235-0.366,0.235
	c-0.758,0-1.831-0.078-2.564-0.078c-0.235,0-1.465,0.078-2.669,0.078c-0.287,0-0.418-0.052-0.418-0.235
	c0-0.131,0.078-0.235,0.262-0.235c0.21,0,0.471-0.026,0.681-0.026c1.046-0.157,1.439-0.837,1.91-1.962l6.018-13.892
	c0.262-0.628,0.445-0.89,0.68-0.89c0.34,0,0.445,0.21,0.68,0.706c0.55,1.23,4.395,10.229,5.861,13.604
	c0.89,2.014,1.543,2.302,1.962,2.381c0.34,0.052,0.602,0.078,0.863,0.078c0.21,0,0.314,0.078,0.314,0.235
	c0,0.183-0.131,0.235-0.994,0.235c-0.811,0-2.486,0-4.422-0.052c-0.418-0.026-0.68-0.026-0.68-0.183c0-0.131,0.052-0.21,0.288-0.235
	c0.157-0.026,0.314-0.235,0.209-0.497l-1.778-4.5c-0.052-0.13-0.131-0.157-0.235-0.157
	C159.103,36.141,153.686,36.141,153.686,36.141z M158.604,34.911c0.105,0,0.131-0.052,0.105-0.131l-2.171-5.572
	c-0.026-0.078-0.052-0.21-0.105-0.21c-0.078,0-0.105,0.131-0.131,0.21l-2.224,5.546c-0.052,0.105,0,0.157,0.078,0.157
	C154.156,34.911,158.604,34.911,158.604,34.911z"/>
<path fill="#1F4388" d="M171.659,35.304c0,2.851,0,4.264,0.497,4.683c0.393,0.34,1.282,0.47,3.061,0.47
	c1.23,0,2.119-0.026,2.694-0.628c0.288-0.288,0.523-0.916,0.576-1.334c0.026-0.21,0.078-0.34,0.262-0.34
	c0.157,0,0.21,0.235,0.21,0.498c0,0.262-0.157,1.91-0.34,2.564c-0.157,0.497-0.262,0.602-1.466,0.602
	c-1.648,0-2.982-0.026-4.134-0.078c-1.151-0.026-2.119-0.052-3.061-0.052c-0.262,0-0.758,0.026-1.308,0.026
	c-0.55,0.026-1.125,0.052-1.596,0.052c-0.288,0-0.445-0.078-0.445-0.235c0-0.105,0.078-0.235,0.366-0.235
	c0.34,0,0.602-0.026,0.811-0.078c0.471-0.105,0.602-0.523,0.681-1.178c0.105-0.942,0.105-2.694,0.105-4.735V31.38
	c0-3.375,0-4.002-0.026-4.709c-0.052-0.758-0.262-0.994-0.994-1.203c-0.183-0.052-0.471-0.078-0.758-0.078
	c-0.262,0-0.393-0.078-0.393-0.235s0.157-0.21,0.498-0.21c1.073,0,2.538,0.052,3.166,0.052c0.55,0,2.433-0.052,3.322-0.052
	c0.34,0,0.497,0.052,0.497,0.21c0,0.157-0.131,0.235-0.418,0.235c-0.262,0-0.628,0.026-0.89,0.078
	c-0.628,0.105-0.811,0.418-0.863,1.203c-0.052,0.706-0.052,1.334-0.052,4.709L171.659,35.304L171.659,35.304z"/>
<path fill="#1F4388" d="M191.742,34.179c0,3.349,0,5.154,0.55,5.625c0.445,0.393,1.125,0.576,3.166,0.576
	c1.386,0,2.407-0.026,3.061-0.733c0.314-0.34,0.628-1.073,0.681-1.57c0.026-0.235,0.078-0.392,0.288-0.392
	c0.183,0,0.21,0.131,0.21,0.445c0,0.288-0.183,2.25-0.393,3.009c-0.157,0.575-0.288,0.706-1.648,0.706
	c-1.884,0-3.244-0.052-4.421-0.078c-1.178-0.052-2.119-0.078-3.192-0.078c-0.288,0-0.863,0-1.491,0.026
	c-0.602,0-1.282,0.052-1.806,0.052c-0.34,0-0.523-0.078-0.523-0.262c0-0.131,0.105-0.21,0.418-0.21c0.393,0,0.706-0.052,0.942-0.105
	c0.523-0.105,0.654-0.681,0.758-1.439c0.131-1.098,0.131-3.166,0.131-5.572v-4.605c0-3.977,0-4.709-0.052-5.546
	c-0.052-0.89-0.262-1.308-1.125-1.491c-0.209-0.052-0.523-0.078-0.863-0.078c-0.287,0-0.445-0.052-0.445-0.235
	s0.183-0.235,0.575-0.235c1.23,0,2.878,0.078,3.584,0.078c0.628,0,2.538-0.078,3.558-0.078c0.366,0,0.55,0.052,0.55,0.235
	s-0.157,0.235-0.471,0.235c-0.288,0-0.706,0.026-1.02,0.078c-0.706,0.131-0.916,0.575-0.968,1.491
	c-0.052,0.837-0.052,1.57-0.052,5.546L191.742,34.179L191.742,34.179z"/>
<path fill="#1F4388" d="M204.561,35.984c0-1.203-0.21-1.674-0.523-2.328c-0.157-0.34-3.296-5.233-4.108-6.41
	c-0.576-0.811-1.046-1.334-1.491-1.57c-0.288-0.157-0.681-0.288-0.968-0.288c-0.182,0-0.34-0.078-0.34-0.235s0.157-0.21,0.444-0.21
	c0.393,0,2.119,0.052,2.878,0.052c0.497,0,1.57-0.052,2.616-0.052c0.21,0,0.34,0.052,0.34,0.21c0,0.183-0.157,0.183-0.523,0.288
	c-0.183,0.052-0.314,0.157-0.314,0.34c0,0.183,0.105,0.445,0.288,0.758c0.418,0.68,3.427,5.886,3.82,6.514
	c0.288-0.523,3.087-5.285,3.427-5.965c0.235-0.497,0.34-0.89,0.34-1.177c0-0.21-0.105-0.418-0.498-0.498
	c-0.21-0.052-0.418-0.078-0.418-0.262c0-0.157,0.131-0.21,0.393-0.21c0.759,0,1.57,0.052,2.25,0.052
	c0.497,0,2.014-0.052,2.459-0.052c0.262,0,0.418,0.052,0.418,0.183c0,0.157-0.183,0.262-0.445,0.262
	c-0.235,0-0.654,0.105-0.994,0.262c-0.498,0.235-0.706,0.445-1.203,1.046c-0.759,0.89-4.055,6.174-4.474,7.116
	c-0.34,0.811-0.288,1.491-0.288,2.224v1.779c0,0.366,0,1.282,0.052,2.224c0.052,0.654,0.262,1.073,0.942,1.178
	c0.34,0.052,0.837,0.078,1.151,0.078c0.262,0,0.393,0.131,0.393,0.235c0,0.157-0.183,0.235-0.498,0.235
	c-1.439,0-2.982-0.078-3.61-0.078c-0.575,0-2.118,0.078-2.982,0.078c-0.314,0-0.498-0.052-0.498-0.235
	c0-0.105,0.105-0.235,0.366-0.235c0.314,0,0.602-0.026,0.811-0.078c0.47-0.105,0.654-0.523,0.706-1.178
	c0.078-0.942,0.078-1.858,0.078-2.224L204.561,35.984L204.561,35.984z"/>
<path fill="#1F4388" d="M217.512,25.127c0.052-0.366,0.262-0.576,0.445-0.576c0.235,0,0.393,0.105,0.706,0.706l6.174,12.296
	l6.174-12.453c0.183-0.366,0.393-0.55,0.602-0.55c0.183,0,0.445,0.235,0.523,0.706l2.093,13.682c0.21,1.386,0.418,1.988,1.126,2.198
	c0.654,0.183,1.02,0.209,1.308,0.209c0.21,0,0.366,0.078,0.366,0.21c0,0.183-0.262,0.262-0.602,0.262
	c-0.576,0-3.846-0.078-4.762-0.131c-0.55-0.026-0.681-0.131-0.681-0.262c0-0.105,0.105-0.183,0.262-0.235
	c0.131-0.052,0.183-0.314,0.105-0.942l-1.282-9.602h-0.078l-4.945,9.837c-0.523,1.046-0.654,1.256-0.916,1.256
	c-0.288,0-0.549-0.445-0.915-1.125c-0.55-1.02-2.381-4.421-2.642-5.05c-0.182-0.418-1.543-3.113-2.302-4.657h-0.078l-1.099,8.581
	c-0.052,0.392-0.078,0.68-0.078,1.046c0,0.418,0.314,0.576,0.706,0.654c0.393,0.078,0.602,0.105,0.811,0.105
	c0.209,0,0.366,0.105,0.366,0.21c0,0.21-0.209,0.262-0.549,0.262c-0.968,0-2.014-0.078-2.434-0.078
	c-0.445,0-1.543,0.078-2.276,0.078c-0.235,0-0.418-0.052-0.418-0.262c0-0.105,0.131-0.21,0.366-0.21c0.182,0,0.34,0,0.706-0.052
	c0.628-0.078,0.838-0.968,0.942-1.701L217.512,25.127z"/>
<path fill="#1F4388" d="M240.142,31.379c0-3.375,0-4.002-0.026-4.709c-0.052-0.758-0.262-0.994-0.994-1.203
	c-0.183-0.052-0.575-0.078-0.915-0.078c-0.235,0-0.393-0.078-0.393-0.235c0-0.157,0.183-0.21,0.523-0.21
	c1.203,0,2.668,0.052,3.322,0.052c0.732,0,5.834,0.026,6.278,0c0.418-0.026,0.785-0.105,0.968-0.131
	c0.13-0.026,0.261-0.105,0.366-0.105c0.131,0,0.157,0.105,0.157,0.21c0,0.157-0.131,0.418-0.183,1.439
	c-0.026,0.235-0.078,1.203-0.131,1.465c-0.026,0.105-0.078,0.366-0.261,0.366c-0.157,0-0.183-0.105-0.183-0.288
	c0-0.157-0.026-0.55-0.157-0.811c-0.183-0.392-0.366-0.706-1.518-0.811c-0.393-0.052-3.139-0.105-3.61-0.105
	c-0.105,0-0.157,0.078-0.157,0.21v5.494c0,0.131,0.026,0.235,0.157,0.235c0.523,0,3.506,0,4.029-0.052
	c0.55-0.052,0.864-0.13,1.099-0.34c0.183-0.157,0.262-0.288,0.366-0.288c0.104,0,0.182,0.105,0.182,0.235
	c0,0.131-0.052,0.497-0.182,1.622c-0.052,0.445-0.105,1.334-0.105,1.491c0,0.183-0.026,0.498-0.235,0.498
	c-0.157,0-0.21-0.078-0.21-0.183c-0.026-0.235-0.026-0.523-0.078-0.811c-0.131-0.445-0.418-0.785-1.282-0.863
	c-0.418-0.052-3.035-0.105-3.61-0.105c-0.105,0-0.131,0.105-0.131,0.235v1.779c0,0.758-0.026,2.642,0,3.296
	c0.052,1.518,0.758,1.858,3.113,1.858c0.602,0,1.57-0.026,2.171-0.288c0.575-0.262,0.837-0.733,0.994-1.648
	c0.052-0.235,0.105-0.34,0.262-0.34c0.183,0,0.21,0.288,0.21,0.523c0,0.498-0.183,2.014-0.314,2.459
	c-0.157,0.575-0.366,0.575-1.23,0.575c-1.726,0-3.113-0.026-4.238-0.078c-1.125-0.026-1.988-0.052-2.668-0.052
	c-0.262,0-0.759,0.026-1.308,0.026c-0.55,0.026-1.126,0.052-1.596,0.052c-0.288,0-0.445-0.078-0.445-0.235
	c0-0.105,0.078-0.235,0.366-0.235c0.34,0,0.602-0.026,0.81-0.078c0.471-0.105,0.602-0.523,0.681-1.178
	c0.105-0.942,0.105-2.694,0.105-4.735v-3.925H240.142z"/>
<path fill="#1F4388" d="M263.321,35.095c-0.131,0-0.183,0.052-0.235,0.21l-1.413,3.584c-0.262,0.654-0.393,1.282-0.393,1.596
	c0,0.471,0.235,0.811,1.046,0.811h0.393c0.314,0,0.393,0.052,0.393,0.21c0,0.21-0.157,0.262-0.445,0.262
	c-0.837,0-1.962-0.078-2.773-0.078c-0.288,0-1.726,0.078-3.087,0.078c-0.34,0-0.498-0.052-0.498-0.262
	c0-0.157,0.105-0.21,0.314-0.21c0.235,0,0.602-0.026,0.81-0.052c1.204-0.157,1.701-1.046,2.224-2.354l6.566-16.22
	c0.314-0.758,0.471-1.046,0.733-1.046c0.235,0,0.392,0.235,0.654,0.837c0.628,1.439,4.814,11.904,6.488,15.88
	c0.994,2.354,1.753,2.721,2.302,2.852c0.393,0.078,0.785,0.105,1.098,0.105c0.21,0,0.34,0.026,0.34,0.21
	c0,0.21-0.235,0.262-1.203,0.262c-0.942,0-2.851,0-4.945-0.052c-0.471-0.026-0.785-0.026-0.785-0.21c0-0.157,0.105-0.21,0.366-0.235
	c0.183-0.052,0.366-0.288,0.235-0.602l-2.093-5.389c-0.052-0.131-0.131-0.183-0.262-0.183h-5.834V35.095z M268.658,33.787
	c0.131,0,0.157-0.078,0.131-0.157l-2.354-6.436c-0.026-0.105-0.052-0.235-0.131-0.235s-0.131,0.13-0.157,0.235l-2.406,6.41
	c-0.026,0.105,0,0.183,0.104,0.183C263.844,33.787,268.658,33.787,268.658,33.787z"/>
<path fill="#1F4388" d="M281.451,35.304c0,2.851,0,4.264,0.498,4.683c0.392,0.34,1.282,0.47,3.061,0.47
	c1.23,0,2.119-0.026,2.694-0.628c0.288-0.288,0.523-0.916,0.576-1.334c0.026-0.21,0.078-0.34,0.262-0.34
	c0.157,0,0.21,0.235,0.21,0.498c0,0.262-0.157,1.91-0.34,2.564c-0.157,0.497-0.262,0.602-1.465,0.602
	c-1.648,0-2.983-0.026-4.134-0.078c-1.151-0.026-2.119-0.052-3.061-0.052c-0.262,0-0.759,0.026-1.308,0.026
	c-0.55,0.026-1.126,0.052-1.596,0.052c-0.288,0-0.445-0.078-0.445-0.235c0-0.105,0.078-0.235,0.366-0.235
	c0.34,0,0.602-0.026,0.81-0.078c0.471-0.105,0.602-0.523,0.681-1.178c0.105-0.942,0.105-2.694,0.105-4.735V31.38
	c0-3.375,0-4.002-0.026-4.709c-0.052-0.758-0.262-0.994-0.994-1.203c-0.183-0.052-0.47-0.078-0.758-0.078
	c-0.262,0-0.393-0.078-0.393-0.235s0.157-0.21,0.498-0.21c1.073,0,2.538,0.052,3.166,0.052c0.55,0,2.433-0.052,3.322-0.052
	c0.34,0,0.498,0.052,0.498,0.21c0,0.157-0.131,0.235-0.418,0.235c-0.262,0-0.628,0.026-0.89,0.078
	c-0.627,0.105-0.81,0.418-0.863,1.203c-0.052,0.706-0.052,1.334-0.052,4.709v3.924H281.451z"/>
<path fill="#1F4388" d="M294.715,35.304c0,2.851,0,4.264,0.498,4.683c0.392,0.34,1.282,0.47,3.061,0.47
	c1.23,0,2.119-0.026,2.694-0.628c0.288-0.288,0.523-0.916,0.576-1.334c0.026-0.21,0.078-0.34,0.262-0.34
	c0.157,0,0.21,0.235,0.21,0.498c0,0.262-0.157,1.91-0.34,2.564c-0.157,0.497-0.262,0.602-1.465,0.602
	c-1.648,0-2.983-0.026-4.134-0.078c-1.151-0.026-2.119-0.052-3.061-0.052c-0.262,0-0.759,0.026-1.308,0.026
	c-0.55,0.026-1.126,0.052-1.596,0.052c-0.288,0-0.445-0.078-0.445-0.235c0-0.105,0.078-0.235,0.366-0.235
	c0.34,0,0.602-0.026,0.81-0.078c0.471-0.105,0.602-0.523,0.681-1.178c0.105-0.942,0.105-2.694,0.105-4.735V31.38
	c0-3.375,0-4.002-0.026-4.709c-0.052-0.758-0.262-0.994-0.994-1.203c-0.183-0.052-0.47-0.078-0.758-0.078
	c-0.262,0-0.393-0.078-0.393-0.235s0.157-0.21,0.498-0.21c1.073,0,2.538,0.052,3.166,0.052c0.55,0,2.433-0.052,3.322-0.052
	c0.34,0,0.498,0.052,0.498,0.21c0,0.157-0.131,0.235-0.418,0.235c-0.262,0-0.628,0.026-0.89,0.078
	c-0.627,0.105-0.81,0.418-0.863,1.203c-0.052,0.706-0.052,1.334-0.052,4.709v3.924H294.715z"/>
<path fill="#1F4388" d="M305.415,31.379c0-3.375,0-4.002-0.026-4.709c-0.052-0.758-0.288-1.02-0.785-1.178
	c-0.262-0.078-0.549-0.105-0.837-0.105c-0.235,0-0.366-0.052-0.366-0.262c0-0.131,0.183-0.183,0.55-0.183
	c0.863,0,2.433,0.052,3.087,0.052c0.575,0,2.067-0.052,2.956-0.052c0.288,0,0.471,0.052,0.471,0.183c0,0.21-0.131,0.262-0.366,0.262
	c-0.235,0-0.418,0.026-0.681,0.078c-0.627,0.105-0.81,0.418-0.863,1.203c-0.052,0.706-0.052,1.334-0.052,4.709v3.925
	c0,2.145,0,3.924,0.105,4.866c0.078,0.602,0.235,0.942,0.915,1.046c0.314,0.052,0.838,0.078,1.178,0.078
	c0.261,0,0.366,0.131,0.366,0.235c0,0.157-0.183,0.235-0.444,0.235c-1.518,0-3.087-0.078-3.715-0.078
	c-0.523,0-2.093,0.078-3.009,0.078c-0.288,0-0.445-0.078-0.445-0.235c0-0.105,0.078-0.235,0.366-0.235
	c0.34,0,0.602-0.026,0.81-0.078c0.471-0.105,0.602-0.418,0.681-1.073c0.105-0.916,0.105-2.694,0.105-4.84L305.415,31.379
	L305.415,31.379z"/>
<path fill="#1F4388" d="M316.403,36.141c-0.131,0-0.157,0.026-0.21,0.157l-1.23,3.009c-0.235,0.55-0.34,1.099-0.34,1.36
	c0,0.393,0.21,0.628,0.916,0.628h0.34c0.288,0,0.34,0.105,0.34,0.235c0,0.183-0.131,0.235-0.366,0.235
	c-0.758,0-1.831-0.078-2.563-0.078c-0.235,0-1.465,0.078-2.668,0.078c-0.288,0-0.418-0.052-0.418-0.235
	c0-0.131,0.078-0.235,0.262-0.235c0.21,0,0.47-0.026,0.68-0.026c1.047-0.157,1.439-0.837,1.91-1.962l6.018-13.892
	c0.261-0.628,0.444-0.89,0.68-0.89c0.34,0,0.445,0.21,0.681,0.706c0.549,1.23,4.395,10.229,5.86,13.604
	c0.89,2.014,1.543,2.302,1.962,2.381c0.34,0.052,0.602,0.078,0.864,0.078c0.209,0,0.314,0.078,0.314,0.235
	c0,0.183-0.131,0.235-0.994,0.235c-0.811,0-2.486,0-4.421-0.052c-0.418-0.026-0.681-0.026-0.681-0.183
	c0-0.131,0.052-0.21,0.288-0.235c0.157-0.026,0.314-0.235,0.21-0.497l-1.779-4.5c-0.052-0.13-0.131-0.157-0.235-0.157
	C321.821,36.141,316.403,36.141,316.403,36.141z M321.321,34.911c0.105,0,0.131-0.052,0.105-0.131l-2.171-5.572
	c-0.026-0.078-0.052-0.21-0.104-0.21c-0.078,0-0.105,0.131-0.131,0.21l-2.224,5.546c-0.052,0.105,0,0.157,0.078,0.157
	C316.874,34.911,321.321,34.911,321.321,34.911z"/>
<path fill="#1F4388" d="M332.728,38.731c0.052,1.726,0.34,2.25,0.785,2.407c0.393,0.13,0.838,0.157,1.204,0.157
	c0.262,0,0.392,0.105,0.392,0.235c0,0.183-0.209,0.235-0.523,0.235c-1.491,0-2.564-0.078-2.982-0.078
	c-0.21,0-1.309,0.078-2.486,0.078c-0.314,0-0.523-0.026-0.523-0.235c0-0.131,0.157-0.235,0.366-0.235
	c0.314,0,0.733-0.026,1.047-0.105c0.602-0.157,0.68-0.758,0.706-2.694l0.21-13.186c0-0.445,0.157-0.759,0.393-0.759
	c0.288,0,0.602,0.34,0.994,0.733c0.288,0.288,3.742,3.819,7.09,7.09c1.57,1.543,4.63,4.683,4.97,4.997h0.105l-0.235-9.889
	c-0.026-1.36-0.235-1.753-0.785-1.962c-0.34-0.131-0.89-0.131-1.203-0.131c-0.288,0-0.366-0.105-0.366-0.235
	c0-0.183,0.235-0.21,0.576-0.21c1.203,0,2.434,0.052,2.93,0.052c0.262,0,1.126-0.052,2.25-0.052c0.314,0,0.523,0.026,0.523,0.21
	c0,0.131-0.131,0.235-0.393,0.235c-0.235,0-0.418,0-0.706,0.078c-0.627,0.183-0.81,0.576-0.837,1.831l-0.262,14.022
	c0,0.498-0.183,0.706-0.366,0.706c-0.393,0-0.706-0.235-0.942-0.471c-1.439-1.334-4.317-4.082-6.723-6.41
	c-2.512-2.407-4.945-5.102-5.39-5.494h-0.078L332.728,38.731z"/>
<path fill="#1F4388" d="M352.742,39.647c-2.276-1.91-2.878-4.421-2.878-6.566c0-1.518,0.498-4.134,2.695-6.095
	c1.674-1.466,3.871-2.354,7.298-2.354c1.439,0,2.302,0.105,3.349,0.235c0.864,0.131,1.622,0.288,2.302,0.366
	c0.262,0.026,0.34,0.131,0.34,0.262c0,0.183-0.052,0.445-0.105,1.23c-0.052,0.733-0.052,1.962-0.078,2.407
	c-0.026,0.314-0.105,0.55-0.314,0.55c-0.183,0-0.235-0.183-0.235-0.47c-0.026-0.706-0.314-1.491-0.89-2.067
	c-0.785-0.758-2.329-1.308-4.448-1.308c-2.014,0-3.296,0.366-4.342,1.256c-1.701,1.466-2.119,3.61-2.119,5.782
	c0,5.285,4.082,7.796,7.169,7.796c2.041,0,3.166-0.157,4.081-1.177c0.393-0.445,0.706-1.073,0.785-1.491
	c0.052-0.34,0.105-0.445,0.288-0.445c0.157,0,0.262,0.21,0.262,0.392c0,0.262-0.262,2.198-0.498,2.957
	c-0.105,0.392-0.21,0.497-0.602,0.654c-0.915,0.366-2.668,0.498-4.159,0.498C357.503,42.054,354.834,41.399,352.742,39.647z"/>
<path fill="#1F4388" d="M370.166,31.379c0-3.375,0-4.002-0.026-4.709c-0.052-0.758-0.262-0.994-0.994-1.203
	c-0.183-0.052-0.575-0.078-0.915-0.078c-0.235,0-0.393-0.078-0.393-0.235c0-0.157,0.183-0.21,0.523-0.21
	c1.203,0,2.668,0.052,3.322,0.052c0.732,0,5.834,0.026,6.278,0c0.418-0.026,0.785-0.105,0.968-0.131
	c0.13-0.026,0.261-0.105,0.366-0.105c0.131,0,0.157,0.105,0.157,0.21c0,0.157-0.131,0.418-0.183,1.439
	c-0.026,0.235-0.078,1.203-0.131,1.465c-0.026,0.105-0.078,0.366-0.261,0.366c-0.157,0-0.183-0.105-0.183-0.288
	c0-0.157-0.026-0.55-0.157-0.811c-0.183-0.392-0.366-0.706-1.518-0.811c-0.393-0.052-3.139-0.105-3.61-0.105
	c-0.105,0-0.157,0.078-0.157,0.21v5.494c0,0.131,0.026,0.235,0.157,0.235c0.523,0,3.506,0,4.029-0.052
	c0.55-0.052,0.864-0.13,1.099-0.34c0.183-0.157,0.262-0.288,0.366-0.288c0.104,0,0.182,0.105,0.182,0.235
	c0,0.131-0.052,0.497-0.182,1.622c-0.052,0.445-0.105,1.334-0.105,1.491c0,0.183-0.026,0.498-0.235,0.498
	c-0.157,0-0.21-0.078-0.21-0.183c-0.026-0.235-0.026-0.523-0.078-0.811c-0.131-0.445-0.418-0.785-1.282-0.863
	c-0.418-0.052-3.035-0.105-3.61-0.105c-0.105,0-0.131,0.105-0.131,0.235v1.779c0,0.758-0.026,2.642,0,3.296
	c0.052,1.518,0.758,1.858,3.113,1.858c0.602,0,1.57-0.026,2.171-0.288c0.575-0.262,0.837-0.733,0.994-1.648
	c0.052-0.235,0.105-0.34,0.262-0.34c0.183,0,0.21,0.288,0.21,0.523c0,0.498-0.183,2.014-0.314,2.459
	c-0.157,0.575-0.366,0.575-1.23,0.575c-1.726,0-3.113-0.026-4.238-0.078c-1.125-0.026-1.988-0.052-2.668-0.052
	c-0.262,0-0.759,0.026-1.308,0.026c-0.55,0.026-1.126,0.052-1.596,0.052c-0.288,0-0.445-0.078-0.445-0.235
	c0-0.105,0.078-0.235,0.366-0.235c0.34,0,0.602-0.026,0.81-0.078c0.471-0.105,0.602-0.523,0.681-1.178
	c0.105-0.942,0.105-2.694,0.105-4.735v-3.925H370.166z"/>
<radialGradient id="SVGID_1_" cx="26.4995" cy="67.6334" r="30.2601" gradientTransform="matrix(1 0 0 -1 0 82)" gradientUnits="userSpaceOnUse">
	<stop  offset="0" style="stop-color:#1B9BD4"/>
	<stop  offset="1" style="stop-color:#234392"/>
</radialGradient>
<path fill="url(#SVGID_1_)" d="M30.207,30.616c-0.287,0.832-0.572,1.661-0.857,2.481c-0.424,1.222-0.84,2.47-1.261,3.726
	c1.922-0.098,3.855-0.129,5.774-0.15c0.034-0.174,0.069-0.354,0.104-0.526c0.364-1.801,0.703-3.655,1.121-5.478
	c-0.284-0.006-0.565-0.01-0.846-0.014C32.915,30.64,31.562,30.613,30.207,30.616z"/>
<radialGradient id="SVGID_2_" cx="26.4995" cy="67.634" r="30.2603" gradientTransform="matrix(1 0 0 -1 0 82)" gradientUnits="userSpaceOnUse">
	<stop  offset="0" style="stop-color:#1B9BD4"/>
	<stop  offset="1" style="stop-color:#234392"/>
</radialGradient>
<path fill="url(#SVGID_2_)" d="M52.253,6.982c0.13,0.961-0.271,1.957-1.133,2.534c-1.207,0.808-2.838,0.485-3.647-0.723
	c-0.178-0.267-0.293-0.556-0.364-0.85c-1.727,0.558-3.528,1.452-5.466,2.954c-5.58,4.33-8.406,11.112-10.801,17.898
	c1.399,0.059,2.796,0.147,4.169,0.215c0.16,0.007,0.321,0.016,0.482,0.024c0.897-3.39,2.191-6.586,4.611-9.03
	c1.227-1.24,2.446-2.07,3.654-2.639c-0.17-0.822,0.1-1.71,0.795-2.279c0.997-0.82,2.47-0.675,3.29,0.322
	c0.194,0.238,0.329,0.502,0.416,0.776c0.049,0.153,0.082,0.308,0.099,0.465c0.078,0.754-0.21,1.53-0.842,2.046
	c-0.966,0.798-2.378,0.675-3.21-0.248c-0.522,0.362-1.052,0.785-1.593,1.295c-2.65,2.503-4.148,5.848-5.234,9.392
	c4.406,0.218,9.148,0.298,13.121-1.498c-0.592-1.012-0.346-2.327,0.622-3.038c1.005-0.741,2.398-0.547,3.178,0.407
	c0.025,0.03,0.054,0.054,0.078,0.087c0.074,0.1,0.13,0.206,0.185,0.313c0.518,1,0.255,2.254-0.679,2.942
	c-0.831,0.611-1.926,0.582-2.724,0.016c-4.142,2.454-9.279,2.45-14.234,2.345c-0.465,1.698-0.862,3.419-1.266,5.099
	c-0.067,0.281-0.134,0.562-0.2,0.846c0.439-0.006,0.878-0.01,1.313-0.018c7.714-0.132,16.714,0.102,23.506-4.047
	c-0.76-1.1-0.583-2.615,0.458-3.494c1.055-0.888,2.595-0.795,3.551,0.163c0.045,0.045,0.093,0.085,0.136,0.13
	c-0.825-9.143-5.456-17.183-12.298-22.535C52.232,6.898,52.248,6.939,52.253,6.982z"/>
<radialGradient id="SVGID_3_" cx="26.4995" cy="67.6331" r="30.2592" gradientTransform="matrix(1 0 0 -1 0 82)" gradientUnits="userSpaceOnUse">
	<stop  offset="0" style="stop-color:#1B9BD4"/>
	<stop  offset="1" style="stop-color:#234392"/>
</radialGradient>
<path fill="url(#SVGID_3_)" d="M12.279,57.622c-0.568-1.162-0.215-2.589,0.89-3.33c1.068-0.716,2.47-0.54,3.339,0.346
	c4.058-3.816,6.366-9.246,8.161-14.683c-4.759,0.653-9.331,1.903-13.195,4.627c0.112,0.858-0.196,1.753-0.906,2.351
	c-0.68,0.574-1.565,0.738-2.364,0.529c-0.506-0.133-0.978-0.414-1.339-0.842c-0.002,0-0.002-0.001-0.002-0.001
	c-0.934-1.113-0.794-2.77,0.316-3.706c0.886-0.745,2.113-0.796,3.052-0.228c0.609-0.53,1.266-1.05,2.011-1.558
	c3.928-2.674,8.557-3.714,13.37-4.138c0.378-1.239,0.743-2.463,1.106-3.652c0.27-0.878,0.534-1.767,0.801-2.66
	c-3.32,0.153-6.574,0.659-9.439,2.151c0.191,0.87-0.126,1.811-0.89,2.376c-0.769,0.566-1.767,0.586-2.546,0.138
	c-0.27-0.155-0.514-0.367-0.71-0.633c-0.02-0.028-0.031-0.058-0.052-0.087c-0.69-1.029-0.462-2.426,0.546-3.168
	c0.835-0.614,1.937-0.581,2.737-0.006c0.237-0.159,0.48-0.318,0.742-0.471c3.052-1.795,6.586-2.236,10.198-2.244
	c2.053-6.722,4.462-13.446,9.736-17.828c3.249-2.699,6.299-3.767,9.257-4.158c0.145-0.632,0.514-1.213,1.094-1.602
	c0.313-0.21,0.654-0.34,1.002-0.401C44.286,1.737,38.511,0,32.331,0C14.475,0,0,14.474,0,32.331
	c0,10.303,4.826,19.475,12.334,25.394C12.317,57.691,12.294,57.657,12.279,57.622z"/>
<radialGradient id="SVGID_4_" cx="35.7659" cy="44.3897" r="32.8556" gradientTransform="matrix(1 0 0 -1 0 82)" gradientUnits="userSpaceOnUse">
	<stop  offset="0.0165" style="stop-color:#CCDB2C"/>
	<stop  offset="1" style="stop-color:#2A9145"/>
</radialGradient>
<path fill="url(#SVGID_4_)" d="M64.228,33.114c-0.828,0.7-1.964,0.798-2.877,0.339c-0.242,0.19-0.494,0.378-0.755,0.562
	c-6.889,4.85-16.237,4.628-24.682,5.083c-0.309,0.018-0.622,0.031-0.932,0.049c-1.049,4.468-2.291,9.004-5.288,12.259
	c0.53,0.965,0.318,2.201-0.563,2.926c-0.93,0.764-2.265,0.678-3.107-0.143c-0.061-0.058-0.126-0.113-0.182-0.179
	c-0.06-0.074-0.102-0.153-0.152-0.228c-0.63-0.986-0.451-2.301,0.475-3.061c0.848-0.694,2.03-0.689,2.87-0.064
	c2.418-3.212,3.484-7.411,4.311-11.425c-2.07,0.11-4.161,0.235-6.234,0.441c-2.113,6.003-4.668,11.878-9.468,15.74
	c-0.163,0.13-0.326,0.249-0.488,0.371c0.289,1.061-0.097,2.23-1.061,2.875c-0.609,0.409-1.321,0.517-1.984,0.378
	c5.189,3.546,11.461,5.623,18.219,5.623c17.751,0,32.156-14.306,32.324-32.019C64.532,32.811,64.396,32.973,64.228,33.114z"/>
</svg>
