<?xml version="1.0" encoding="utf-8"?>
<!-- Generator: Adobe Illustrator 22.1.0, SVG Export Plug-In . SVG Version: 6.00 Build 0)  -->
<svg version="1.1" id="icon" xmlns="http://www.w3.org/2000/svg" xmlns:xlink="http://www.w3.org/1999/xlink" x="0px" y="0px"
	 viewBox="0 0 135 47" style="enable-background:new 0 0 135 47;" xml:space="preserve">
<style type="text/css">
	.st0{fill:#DC3E38;}
</style>
<path id="path-1_1_" class="st0" d="M134,11c0.6,0.7-0.3,1.2-0.3,1.9l-8.3,18.9l-0.1,0.2c-2.7-2.7-5.5-5-8.6-6.7
	c-7-4-16.3-4.6-24.5-3C79.5,24.3,69,31.6,57.7,37c-12.8,7.3-28.8,12.8-44.2,8.2c-4.6-1.4-9.2-3.1-13.4-5.6L0.2,39l8.6-19.6L9,19.3
	c8.8,8.3,23.6,8.4,34.2,4C57.5,17.9,69.8,7.7,84.3,3.1c10.3-3.3,23-4.4,33.6-1C123.8,3.8,129.2,6.5,134,11"/>
</svg>
