<?xml version="1.0" encoding="utf-8"?>
<!-- Generator: Adobe Illustrator 21.0.1, SVG Export Plug-In . SVG Version: 6.00 Build 0)  -->
<svg version="1.1" id="Symbol_Editing_Mode" xmlns="http://www.w3.org/2000/svg" xmlns:xlink="http://www.w3.org/1999/xlink"
	 x="0px" y="0px" width="413px" height="70.276px" viewBox="0 0 413 70.276" enable-background="new 0 0 413 70.276"
	 xml:space="preserve">
<path fill="#FFFFFF" d="M107.008,43.488c0,0.768-0.029,0.824-0.37,1.023c-1.849,0.967-4.634,1.279-6.852,1.279
	c-6.966,0-13.137-3.298-13.137-11.146c0-4.549,2.36-7.734,4.947-9.298c2.729-1.649,5.26-1.849,7.649-1.849
	c1.962,0,4.465,0.342,5.033,0.455c0.597,0.114,1.592,0.284,2.246,0.313c0.342,0.029,0.398,0.143,0.398,0.342
	c0,0.313-0.199,1.109-0.199,4.663c0,0.455-0.085,0.597-0.313,0.597c-0.199,0-0.256-0.143-0.284-0.37
	c-0.085-0.654-0.228-1.564-0.967-2.36c-0.853-0.909-3.128-2.218-6.341-2.218c-1.564,0-3.64,0.114-5.63,1.763
	c-1.592,1.336-2.616,3.469-2.616,6.966c0,6.113,3.895,10.691,9.895,10.691c0.739,0,1.735,0,2.417-0.313
	c0.427-0.199,0.541-0.569,0.541-1.052v-2.673c0-1.422,0-2.502-0.029-3.355c-0.029-0.967-0.284-1.422-1.222-1.621
	c-0.228-0.057-0.71-0.085-1.109-0.085c-0.256,0-0.426-0.057-0.426-0.228c0-0.227,0.199-0.284,0.597-0.284
	c1.479,0,3.27,0.085,4.123,0.085c0.882,0,2.388-0.085,3.327-0.085c0.37,0,0.569,0.057,0.569,0.284c0,0.17-0.17,0.228-0.37,0.228
	c-0.228,0-0.427,0.029-0.768,0.085c-0.768,0.143-1.052,0.625-1.081,1.621c-0.029,0.853-0.029,1.99-0.029,3.412L107.008,43.488
	L107.008,43.488z"/>
<path fill="#FFFFFF" d="M115.31,38.37c0,3.099,0,4.634,0.54,5.09c0.427,0.37,1.394,0.511,3.327,0.511
	c1.336,0,2.303-0.028,2.928-0.683c0.313-0.313,0.569-0.996,0.626-1.45c0.029-0.228,0.085-0.37,0.284-0.37
	c0.17,0,0.228,0.256,0.228,0.541c0,0.284-0.17,2.075-0.37,2.787c-0.17,0.54-0.284,0.654-1.592,0.654
	c-1.791,0-3.241-0.029-4.493-0.085c-1.251-0.029-2.303-0.057-3.327-0.057c-0.284,0-0.824,0.029-1.422,0.029
	c-0.597,0.029-1.222,0.057-1.735,0.057c-0.312,0-0.483-0.085-0.483-0.256c0-0.114,0.085-0.256,0.398-0.256
	c0.37,0,0.654-0.029,0.882-0.085c0.512-0.114,0.654-0.569,0.74-1.28c0.114-1.023,0.114-2.928,0.114-5.146v-4.266
	c0-3.668,0-4.35-0.028-5.118c-0.057-0.824-0.284-1.081-1.081-1.308c-0.199-0.057-0.512-0.085-0.824-0.085
	c-0.284,0-0.427-0.085-0.427-0.256c0-0.17,0.17-0.228,0.54-0.228c1.166,0,2.758,0.057,3.441,0.057c0.597,0,2.644-0.057,3.611-0.057
	c0.37,0,0.54,0.057,0.54,0.228c0,0.17-0.143,0.256-0.455,0.256c-0.284,0-0.683,0.029-0.967,0.085
	c-0.683,0.114-0.882,0.455-0.938,1.308c-0.057,0.768-0.057,1.45-0.057,5.118v4.265C115.312,38.37,115.31,38.37,115.31,38.37z"/>
<path fill="#FFFFFF" d="M123.642,36.237c0-4.123,2.9-9.469,10.492-9.469c6.312,0,10.236,3.498,10.236,9.042
	c0,5.545-4.038,9.896-10.492,9.896C126.599,45.706,123.642,40.531,123.642,36.237z M140.645,36.692c0-5.346-3.214-8.643-7.251-8.643
	c-2.787,0-6.057,1.478-6.057,7.45c0,4.976,2.843,8.9,7.564,8.9C136.664,44.397,140.645,43.573,140.645,36.692z"/>
<path fill="#FFFFFF" d="M148.323,34.104c0-3.668,0-4.35-0.029-5.118c-0.057-0.824-0.284-1.081-1.081-1.308
	c-0.199-0.057-0.626-0.085-0.996-0.085c-0.256,0-0.427-0.085-0.427-0.256s0.199-0.228,0.569-0.228c1.308,0,2.9,0.057,3.383,0.057
	c1.251,0,2.901-0.057,3.754-0.057c4.521,0,5.317,2.331,5.317,3.611c0,1.876-1.393,3.327-2.815,4.237
	c2.048,0.654,4.607,2.388,4.607,5.232c0,2.588-2.048,5.26-6.653,5.26c-0.284,0-1.137-0.029-1.99-0.085
	c-0.853-0.029-1.735-0.057-2.133-0.057c-0.284,0-0.824,0.029-1.422,0.029c-0.597,0.029-1.222,0.057-1.735,0.057
	c-0.312,0-0.483-0.085-0.483-0.256c0-0.114,0.085-0.256,0.398-0.256c0.37,0,0.654-0.029,0.882-0.085
	c0.512-0.114,0.654-0.569,0.74-1.28c0.114-1.023,0.114-2.928,0.114-5.146L148.323,34.104L148.323,34.104z M151.564,34.503
	c0,0.199,0.085,0.228,0.17,0.256c0.228,0.057,0.597,0.085,1.166,0.085c0.825,0,1.536-0.085,1.962-0.427
	c0.654-0.511,1.137-1.393,1.137-2.559c0-1.621-0.967-3.64-3.128-3.64c-0.341,0-0.824,0-1.08,0.057
	c-0.17,0.029-0.228,0.143-0.228,0.398L151.564,34.503C151.565,34.503,151.564,34.503,151.564,34.503z M151.564,41.611
	c0,1.592,0.085,2.075,0.882,2.388c0.654,0.256,1.222,0.284,1.791,0.284c1.336,0,3.071-0.739,3.071-3.412
	c0-1.109-0.483-3.014-2.36-4.293c-0.512-0.37-1.194-0.626-2.161-0.626h-1.081c-0.085,0-0.143,0.029-0.143,0.17V41.611z"/>
<path fill="#FFFFFF" d="M167.032,39.28c-0.143,0-0.17,0.029-0.227,0.17l-1.336,3.27c-0.256,0.597-0.37,1.195-0.37,1.478
	c0,0.427,0.228,0.683,0.996,0.683h0.37c0.313,0,0.37,0.114,0.37,0.256c0,0.199-0.143,0.256-0.398,0.256
	c-0.824,0-1.99-0.085-2.787-0.085c-0.256,0-1.592,0.085-2.901,0.085c-0.312,0-0.455-0.057-0.455-0.256
	c0-0.143,0.085-0.256,0.284-0.256c0.228,0,0.512-0.029,0.74-0.029c1.137-0.17,1.564-0.909,2.075-2.132l6.54-15.099
	c0.284-0.683,0.483-0.967,0.739-0.967c0.37,0,0.483,0.228,0.739,0.768c0.597,1.336,4.777,11.117,6.37,14.785
	c0.967,2.189,1.677,2.502,2.132,2.588c0.37,0.057,0.654,0.085,0.938,0.085c0.228,0,0.342,0.085,0.342,0.256
	c0,0.199-0.143,0.256-1.081,0.256c-0.882,0-2.701,0-4.806-0.057c-0.455-0.029-0.739-0.029-0.739-0.199
	c0-0.143,0.057-0.228,0.313-0.256c0.17-0.029,0.341-0.256,0.227-0.54l-1.933-4.891c-0.057-0.142-0.143-0.17-0.256-0.17
	C172.919,39.28,167.032,39.28,167.032,39.28z M172.378,37.943c0.114,0,0.143-0.057,0.114-0.143l-2.36-6.056
	c-0.029-0.085-0.057-0.228-0.114-0.228c-0.085,0-0.114,0.143-0.143,0.228l-2.417,6.028c-0.057,0.114,0,0.17,0.085,0.17
	C167.543,37.943,172.378,37.943,172.378,37.943z"/>
<path fill="#FFFFFF" d="M186.566,38.37c0,3.099,0,4.634,0.54,5.09c0.427,0.37,1.394,0.511,3.327,0.511
	c1.336,0,2.303-0.028,2.928-0.683c0.313-0.313,0.569-0.996,0.626-1.45c0.029-0.228,0.085-0.37,0.284-0.37
	c0.17,0,0.228,0.256,0.228,0.541c0,0.284-0.17,2.075-0.37,2.787c-0.17,0.54-0.284,0.654-1.593,0.654
	c-1.791,0-3.241-0.029-4.493-0.085c-1.251-0.029-2.303-0.057-3.327-0.057c-0.284,0-0.824,0.029-1.422,0.029
	c-0.597,0.029-1.222,0.057-1.735,0.057c-0.313,0-0.483-0.085-0.483-0.256c0-0.114,0.085-0.256,0.398-0.256
	c0.37,0,0.654-0.029,0.882-0.085c0.512-0.114,0.654-0.569,0.74-1.28c0.114-1.023,0.114-2.928,0.114-5.146v-4.266
	c0-3.668,0-4.35-0.029-5.118c-0.057-0.824-0.284-1.081-1.081-1.308c-0.199-0.057-0.512-0.085-0.824-0.085
	c-0.284,0-0.427-0.085-0.427-0.256c0-0.17,0.17-0.228,0.541-0.228c1.166,0,2.758,0.057,3.441,0.057c0.597,0,2.644-0.057,3.611-0.057
	c0.37,0,0.54,0.057,0.54,0.228c0,0.17-0.143,0.256-0.455,0.256c-0.284,0-0.683,0.029-0.967,0.085
	c-0.683,0.114-0.882,0.455-0.938,1.308c-0.057,0.768-0.057,1.45-0.057,5.118L186.566,38.37
	C186.567,38.37,186.566,38.37,186.566,38.37z"/>
<path fill="#FFFFFF" d="M208.393,37.147c0,3.64,0,5.601,0.597,6.113c0.483,0.427,1.223,0.626,3.441,0.626
	c1.507,0,2.616-0.029,3.327-0.796c0.342-0.37,0.683-1.166,0.74-1.706c0.029-0.256,0.085-0.426,0.313-0.426
	c0.199,0,0.228,0.143,0.228,0.483c0,0.313-0.199,2.446-0.427,3.27c-0.17,0.625-0.313,0.768-1.791,0.768
	c-2.048,0-3.526-0.057-4.805-0.085c-1.28-0.057-2.303-0.085-3.469-0.085c-0.313,0-0.938,0-1.621,0.029
	c-0.654,0-1.394,0.057-1.962,0.057c-0.37,0-0.569-0.085-0.569-0.284c0-0.143,0.114-0.228,0.455-0.228
	c0.427,0,0.768-0.057,1.023-0.114c0.569-0.114,0.71-0.74,0.824-1.564c0.143-1.194,0.143-3.441,0.143-6.056v-5.005
	c0-4.322,0-5.118-0.057-6.028c-0.057-0.967-0.284-1.422-1.223-1.621c-0.227-0.057-0.569-0.085-0.938-0.085
	c-0.312,0-0.483-0.057-0.483-0.256c0-0.199,0.199-0.256,0.625-0.256c1.336,0,3.128,0.085,3.895,0.085
	c0.683,0,2.758-0.085,3.867-0.085c0.398,0,0.597,0.057,0.597,0.256c0,0.199-0.17,0.256-0.512,0.256
	c-0.313,0-0.768,0.029-1.109,0.085c-0.768,0.143-0.996,0.625-1.052,1.621c-0.057,0.909-0.057,1.706-0.057,6.028L208.393,37.147
	L208.393,37.147z"/>
<path fill="#FFFFFF" d="M222.326,39.109c0-1.308-0.228-1.82-0.569-2.53c-0.17-0.37-3.582-5.687-4.465-6.966
	c-0.626-0.882-1.137-1.45-1.621-1.706c-0.313-0.17-0.74-0.313-1.052-0.313c-0.198,0-0.37-0.085-0.37-0.256
	c0-0.17,0.17-0.228,0.483-0.228c0.427,0,2.303,0.057,3.128,0.057c0.54,0,1.706-0.057,2.843-0.057c0.228,0,0.37,0.057,0.37,0.228
	c0,0.199-0.17,0.199-0.569,0.313c-0.199,0.057-0.342,0.17-0.342,0.37c0,0.199,0.114,0.483,0.313,0.824
	c0.455,0.739,3.725,6.398,4.152,7.08c0.313-0.569,3.355-5.744,3.725-6.483c0.256-0.54,0.37-0.967,0.37-1.279
	c0-0.228-0.114-0.455-0.541-0.541c-0.228-0.057-0.455-0.085-0.455-0.284c0-0.17,0.143-0.228,0.427-0.228
	c0.825,0,1.706,0.057,2.446,0.057c0.54,0,2.189-0.057,2.673-0.057c0.284,0,0.455,0.057,0.455,0.199c0,0.17-0.199,0.284-0.483,0.284
	c-0.256,0-0.71,0.114-1.08,0.284c-0.541,0.256-0.768,0.483-1.308,1.137c-0.825,0.967-4.407,6.711-4.863,7.734
	c-0.37,0.882-0.313,1.621-0.313,2.417V41.1c0,0.398,0,1.393,0.057,2.417c0.057,0.71,0.284,1.166,1.024,1.28
	c0.37,0.057,0.909,0.085,1.251,0.085c0.284,0,0.427,0.143,0.427,0.256c0,0.17-0.199,0.256-0.541,0.256
	c-1.564,0-3.241-0.085-3.924-0.085c-0.625,0-2.302,0.085-3.241,0.085c-0.342,0-0.541-0.057-0.541-0.256
	c0-0.114,0.114-0.256,0.398-0.256c0.342,0,0.654-0.029,0.882-0.085c0.511-0.114,0.71-0.569,0.768-1.28
	c0.085-1.023,0.085-2.019,0.085-2.417L222.326,39.109C222.325,39.109,222.326,39.109,222.326,39.109z"/>
<path fill="#FFFFFF" d="M236.401,27.309c0.057-0.398,0.284-0.626,0.483-0.626c0.256,0,0.427,0.114,0.768,0.768l6.711,13.364
	l6.71-13.534c0.199-0.398,0.427-0.597,0.654-0.597c0.199,0,0.483,0.256,0.569,0.768l2.275,14.871
	c0.228,1.507,0.455,2.161,1.223,2.388c0.71,0.199,1.109,0.227,1.422,0.227c0.228,0,0.398,0.085,0.398,0.228
	c0,0.199-0.284,0.284-0.654,0.284c-0.626,0-4.18-0.085-5.175-0.143c-0.597-0.029-0.74-0.143-0.74-0.284
	c0-0.114,0.114-0.199,0.284-0.256c0.143-0.057,0.199-0.342,0.114-1.023l-1.393-10.435h-0.085l-5.374,10.691
	c-0.569,1.137-0.711,1.365-0.996,1.365c-0.313,0-0.596-0.483-0.995-1.222c-0.597-1.109-2.588-4.805-2.872-5.488
	c-0.198-0.455-1.677-3.383-2.502-5.061h-0.085l-1.195,9.326c-0.057,0.426-0.084,0.739-0.084,1.137c0,0.455,0.341,0.626,0.768,0.711
	s0.654,0.114,0.882,0.114c0.227,0,0.397,0.114,0.397,0.228c0,0.228-0.227,0.284-0.596,0.284c-1.052,0-2.189-0.085-2.645-0.085
	c-0.483,0-1.677,0.085-2.474,0.085c-0.256,0-0.455-0.057-0.455-0.284c0-0.114,0.143-0.228,0.398-0.228c0.198,0,0.37,0,0.768-0.057
	c0.683-0.085,0.91-1.052,1.024-1.849L236.401,27.309z"/>
<path fill="#FFFFFF" d="M260.996,34.104c0-3.668,0-4.35-0.029-5.118c-0.057-0.824-0.284-1.081-1.081-1.308
	c-0.199-0.057-0.625-0.085-0.995-0.085c-0.256,0-0.427-0.085-0.427-0.256s0.199-0.228,0.569-0.228c1.308,0,2.9,0.057,3.611,0.057
	c0.796,0,6.34,0.029,6.824,0c0.455-0.029,0.853-0.114,1.052-0.143c0.142-0.029,0.283-0.114,0.397-0.114
	c0.143,0,0.17,0.114,0.17,0.228c0,0.17-0.143,0.455-0.199,1.564c-0.029,0.256-0.085,1.308-0.143,1.592
	c-0.029,0.114-0.085,0.398-0.283,0.398c-0.17,0-0.199-0.114-0.199-0.313c0-0.17-0.029-0.597-0.17-0.882
	c-0.199-0.426-0.398-0.768-1.649-0.882c-0.427-0.057-3.412-0.114-3.924-0.114c-0.114,0-0.17,0.085-0.17,0.228v5.972
	c0,0.143,0.029,0.256,0.17,0.256c0.569,0,3.81,0,4.379-0.057c0.597-0.057,0.939-0.142,1.195-0.37
	c0.199-0.17,0.284-0.313,0.398-0.313c0.113,0,0.198,0.114,0.198,0.256c0,0.143-0.057,0.54-0.198,1.763
	c-0.057,0.483-0.114,1.45-0.114,1.621c0,0.199-0.029,0.541-0.256,0.541c-0.17,0-0.228-0.085-0.228-0.199
	c-0.029-0.256-0.029-0.569-0.085-0.882c-0.143-0.483-0.455-0.853-1.393-0.938c-0.455-0.057-3.299-0.114-3.924-0.114
	c-0.114,0-0.143,0.114-0.143,0.256v1.934c0,0.824-0.029,2.872,0,3.582c0.057,1.649,0.824,2.019,3.383,2.019
	c0.654,0,1.706-0.029,2.36-0.313c0.625-0.284,0.909-0.796,1.08-1.791c0.057-0.256,0.114-0.37,0.284-0.37
	c0.199,0,0.228,0.313,0.228,0.569c0,0.541-0.199,2.189-0.342,2.673c-0.17,0.625-0.398,0.625-1.336,0.625
	c-1.876,0-3.383-0.029-4.607-0.085c-1.222-0.029-2.161-0.057-2.9-0.057c-0.284,0-0.825,0.029-1.422,0.029
	c-0.597,0.029-1.223,0.057-1.735,0.057c-0.313,0-0.483-0.085-0.483-0.256c0-0.114,0.085-0.256,0.398-0.256
	c0.37,0,0.654-0.029,0.881-0.085c0.512-0.114,0.654-0.569,0.74-1.28c0.114-1.023,0.114-2.928,0.114-5.146v-4.266H260.996z"/>
<path fill="#FFFFFF" d="M286.188,38.142c-0.143,0-0.199,0.057-0.256,0.228l-1.535,3.895c-0.284,0.711-0.427,1.394-0.427,1.735
	c0,0.512,0.256,0.882,1.137,0.882h0.427c0.342,0,0.427,0.057,0.427,0.228c0,0.228-0.17,0.284-0.483,0.284
	c-0.909,0-2.133-0.085-3.014-0.085c-0.313,0-1.876,0.085-3.355,0.085c-0.37,0-0.541-0.057-0.541-0.284
	c0-0.17,0.114-0.228,0.342-0.228c0.256,0,0.654-0.029,0.881-0.057c1.309-0.17,1.849-1.137,2.417-2.559l7.137-17.629
	c0.342-0.824,0.512-1.137,0.796-1.137c0.256,0,0.426,0.256,0.71,0.909c0.683,1.564,5.232,12.938,7.051,17.259
	c1.081,2.559,1.905,2.957,2.502,3.1c0.427,0.085,0.853,0.114,1.194,0.114c0.228,0,0.37,0.029,0.37,0.228
	c0,0.228-0.256,0.284-1.308,0.284c-1.024,0-3.099,0-5.374-0.057c-0.512-0.029-0.853-0.029-0.853-0.228
	c0-0.17,0.114-0.228,0.398-0.256c0.199-0.057,0.398-0.313,0.256-0.654l-2.275-5.857c-0.057-0.143-0.143-0.199-0.284-0.199h-6.34
	L286.188,38.142L286.188,38.142z M291.989,36.721c0.143,0,0.17-0.085,0.143-0.17l-2.559-6.995c-0.029-0.114-0.057-0.256-0.143-0.256
	c-0.086,0-0.143,0.142-0.17,0.256l-2.615,6.966c-0.029,0.114,0,0.199,0.113,0.199C286.757,36.721,291.989,36.721,291.989,36.721z"/>
<path fill="#FFFFFF" d="M305.893,38.37c0,3.099,0,4.634,0.541,5.09c0.426,0.37,1.393,0.511,3.327,0.511
	c1.336,0,2.303-0.028,2.928-0.683c0.313-0.313,0.569-0.996,0.626-1.45c0.029-0.228,0.085-0.37,0.284-0.37
	c0.17,0,0.228,0.256,0.228,0.541c0,0.284-0.17,2.075-0.37,2.787c-0.17,0.54-0.284,0.654-1.592,0.654
	c-1.791,0-3.242-0.029-4.493-0.085c-1.251-0.029-2.303-0.057-3.327-0.057c-0.284,0-0.825,0.029-1.422,0.029
	c-0.597,0.029-1.223,0.057-1.735,0.057c-0.313,0-0.483-0.085-0.483-0.256c0-0.114,0.085-0.256,0.398-0.256
	c0.37,0,0.654-0.029,0.881-0.085c0.512-0.114,0.654-0.569,0.74-1.28c0.114-1.023,0.114-2.928,0.114-5.146v-4.266
	c0-3.668,0-4.35-0.029-5.118c-0.057-0.824-0.284-1.081-1.081-1.308c-0.199-0.057-0.511-0.085-0.824-0.085
	c-0.284,0-0.427-0.085-0.427-0.256c0-0.17,0.17-0.228,0.541-0.228c1.166,0,2.758,0.057,3.441,0.057c0.597,0,2.644-0.057,3.611-0.057
	c0.37,0,0.541,0.057,0.541,0.228c0,0.17-0.143,0.256-0.455,0.256c-0.284,0-0.683,0.029-0.967,0.085
	c-0.682,0.114-0.881,0.455-0.938,1.308c-0.057,0.768-0.057,1.45-0.057,5.118v4.265C305.896,38.37,305.893,38.37,305.893,38.37z"/>
<path fill="#FFFFFF" d="M320.308,38.37c0,3.099,0,4.634,0.541,5.09c0.426,0.37,1.393,0.511,3.327,0.511
	c1.336,0,2.303-0.028,2.928-0.683c0.313-0.313,0.569-0.996,0.626-1.45c0.029-0.228,0.085-0.37,0.284-0.37
	c0.17,0,0.228,0.256,0.228,0.541c0,0.284-0.17,2.075-0.37,2.787c-0.17,0.54-0.284,0.654-1.592,0.654
	c-1.791,0-3.242-0.029-4.493-0.085c-1.251-0.029-2.303-0.057-3.327-0.057c-0.284,0-0.825,0.029-1.422,0.029
	c-0.597,0.029-1.223,0.057-1.735,0.057c-0.313,0-0.483-0.085-0.483-0.256c0-0.114,0.085-0.256,0.398-0.256
	c0.37,0,0.654-0.029,0.881-0.085c0.512-0.114,0.654-0.569,0.74-1.28c0.114-1.023,0.114-2.928,0.114-5.146v-4.266
	c0-3.668,0-4.35-0.029-5.118c-0.057-0.824-0.284-1.081-1.081-1.308c-0.199-0.057-0.511-0.085-0.824-0.085
	c-0.284,0-0.427-0.085-0.427-0.256c0-0.17,0.17-0.228,0.541-0.228c1.166,0,2.758,0.057,3.441,0.057c0.597,0,2.644-0.057,3.611-0.057
	c0.37,0,0.541,0.057,0.541,0.228c0,0.17-0.143,0.256-0.455,0.256c-0.284,0-0.683,0.029-0.967,0.085
	c-0.682,0.114-0.881,0.455-0.938,1.308c-0.057,0.768-0.057,1.45-0.057,5.118v4.265C320.311,38.37,320.308,38.37,320.308,38.37z"/>
<path fill="#FFFFFF" d="M331.938,34.104c0-3.668,0-4.35-0.029-5.118c-0.057-0.824-0.313-1.109-0.853-1.28
	c-0.284-0.085-0.596-0.114-0.909-0.114c-0.256,0-0.398-0.057-0.398-0.284c0-0.143,0.199-0.199,0.597-0.199
	c0.938,0,2.644,0.057,3.355,0.057c0.625,0,2.247-0.057,3.213-0.057c0.313,0,0.512,0.057,0.512,0.199
	c0,0.228-0.143,0.284-0.398,0.284c-0.256,0-0.455,0.029-0.74,0.085c-0.682,0.114-0.881,0.455-0.938,1.308
	c-0.057,0.768-0.057,1.45-0.057,5.118v4.266c0,2.331,0,4.265,0.114,5.289c0.085,0.654,0.256,1.023,0.995,1.137
	c0.342,0.057,0.91,0.085,1.28,0.085c0.283,0,0.397,0.143,0.397,0.256c0,0.17-0.199,0.256-0.483,0.256
	c-1.649,0-3.355-0.085-4.038-0.085c-0.569,0-2.275,0.085-3.27,0.085c-0.313,0-0.483-0.085-0.483-0.256
	c0-0.114,0.085-0.256,0.398-0.256c0.37,0,0.654-0.029,0.881-0.085c0.512-0.114,0.654-0.455,0.74-1.166
	c0.114-0.996,0.114-2.928,0.114-5.26L331.938,34.104L331.938,34.104z"/>
<path fill="#FFFFFF" d="M343.88,39.28c-0.143,0-0.17,0.029-0.228,0.17l-1.336,3.27c-0.256,0.597-0.37,1.195-0.37,1.478
	c0,0.427,0.228,0.683,0.996,0.683h0.37c0.313,0,0.37,0.114,0.37,0.256c0,0.199-0.143,0.256-0.398,0.256
	c-0.824,0-1.99-0.085-2.786-0.085c-0.256,0-1.592,0.085-2.9,0.085c-0.313,0-0.455-0.057-0.455-0.256
	c0-0.143,0.085-0.256,0.284-0.256c0.228,0,0.511-0.029,0.739-0.029c1.138-0.17,1.564-0.909,2.075-2.132l6.54-15.099
	c0.283-0.683,0.483-0.967,0.739-0.967c0.37,0,0.483,0.228,0.74,0.768c0.596,1.336,4.777,11.117,6.369,14.785
	c0.967,2.189,1.677,2.502,2.133,2.588c0.37,0.057,0.654,0.085,0.939,0.085c0.227,0,0.341,0.085,0.341,0.256
	c0,0.199-0.143,0.256-1.08,0.256c-0.882,0-2.701,0-4.805-0.057c-0.455-0.029-0.74-0.029-0.74-0.199c0-0.143,0.057-0.228,0.313-0.256
	c0.17-0.029,0.342-0.256,0.228-0.54l-1.934-4.891c-0.057-0.142-0.143-0.17-0.256-0.17C349.769,39.28,343.88,39.28,343.88,39.28z
	 M349.225,37.943c0.114,0,0.143-0.057,0.114-0.143l-2.36-6.056c-0.029-0.085-0.057-0.228-0.113-0.228
	c-0.085,0-0.114,0.143-0.143,0.228l-2.417,6.028c-0.057,0.114,0,0.17,0.085,0.17C344.392,37.943,349.225,37.943,349.225,37.943z"/>
<path fill="#FFFFFF" d="M361.623,42.095c0.057,1.876,0.37,2.445,0.853,2.616c0.427,0.142,0.91,0.17,1.309,0.17
	c0.284,0,0.426,0.114,0.426,0.256c0,0.199-0.227,0.256-0.569,0.256c-1.621,0-2.787-0.085-3.241-0.085
	c-0.228,0-1.422,0.085-2.701,0.085c-0.342,0-0.569-0.029-0.569-0.256c0-0.143,0.17-0.256,0.398-0.256
	c0.342,0,0.796-0.029,1.138-0.114c0.654-0.17,0.739-0.824,0.768-2.928l0.228-14.331c0-0.483,0.17-0.825,0.427-0.825
	c0.313,0,0.654,0.37,1.08,0.796c0.313,0.313,4.067,4.151,7.705,7.705c1.706,1.677,5.033,5.09,5.402,5.431h0.114l-0.256-10.748
	c-0.029-1.478-0.256-1.905-0.853-2.133c-0.37-0.143-0.967-0.143-1.308-0.143c-0.313,0-0.398-0.114-0.398-0.256
	c0-0.199,0.256-0.228,0.626-0.228c1.308,0,2.645,0.057,3.184,0.057c0.284,0,1.223-0.057,2.446-0.057
	c0.342,0,0.569,0.029,0.569,0.228c0,0.143-0.143,0.256-0.427,0.256c-0.256,0-0.455,0-0.768,0.085
	c-0.682,0.199-0.881,0.626-0.909,1.99l-0.284,15.24c0,0.541-0.199,0.768-0.398,0.768c-0.427,0-0.768-0.256-1.023-0.512
	c-1.564-1.45-4.692-4.436-7.307-6.966c-2.73-2.616-5.374-5.545-5.858-5.972h-0.085L361.623,42.095z"/>
<path fill="#FFFFFF" d="M383.375,43.09c-2.474-2.075-3.128-4.805-3.128-7.137c0-1.649,0.541-4.493,2.929-6.625
	c1.82-1.593,4.207-2.559,7.932-2.559c1.564,0,2.502,0.114,3.64,0.256c0.939,0.143,1.763,0.313,2.502,0.398
	c0.284,0.029,0.37,0.143,0.37,0.284c0,0.199-0.057,0.483-0.114,1.336c-0.057,0.796-0.057,2.133-0.085,2.616
	c-0.029,0.342-0.114,0.597-0.342,0.597c-0.199,0-0.256-0.199-0.256-0.511c-0.029-0.768-0.342-1.621-0.967-2.247
	c-0.853-0.824-2.531-1.422-4.834-1.422c-2.189,0-3.582,0.398-4.72,1.365c-1.849,1.593-2.303,3.924-2.303,6.284
	c0,5.744,4.436,8.473,7.791,8.473c2.218,0,3.441-0.17,4.435-1.279c0.427-0.483,0.768-1.166,0.853-1.621
	c0.057-0.37,0.114-0.483,0.313-0.483c0.17,0,0.284,0.228,0.284,0.426c0,0.284-0.284,2.388-0.541,3.214
	c-0.114,0.426-0.228,0.54-0.654,0.71c-0.995,0.398-2.9,0.541-4.52,0.541C388.549,45.706,385.649,44.995,383.375,43.09z"/>
<path fill="#FFFFFF" d="M402.312,34.104c0-3.668,0-4.35-0.029-5.118c-0.057-0.824-0.284-1.081-1.081-1.308
	c-0.199-0.057-0.625-0.085-0.995-0.085c-0.256,0-0.427-0.085-0.427-0.256s0.199-0.228,0.569-0.228c1.308,0,2.9,0.057,3.611,0.057
	c0.796,0,6.34,0.029,6.824,0c0.455-0.029,0.853-0.114,1.052-0.143c0.142-0.029,0.283-0.114,0.397-0.114
	c0.143,0,0.17,0.114,0.17,0.228c0,0.17-0.143,0.455-0.199,1.564c-0.029,0.256-0.085,1.308-0.143,1.592
	c-0.029,0.114-0.085,0.398-0.283,0.398c-0.17,0-0.199-0.114-0.199-0.313c0-0.17-0.029-0.597-0.17-0.882
	c-0.199-0.426-0.398-0.768-1.649-0.882c-0.427-0.057-3.412-0.114-3.924-0.114c-0.114,0-0.17,0.085-0.17,0.228v5.972
	c0,0.143,0.029,0.256,0.17,0.256c0.569,0,3.81,0,4.379-0.057c0.597-0.057,0.939-0.142,1.195-0.37
	c0.199-0.17,0.284-0.313,0.398-0.313c0.113,0,0.198,0.114,0.198,0.256c0,0.143-0.057,0.54-0.198,1.763
	c-0.057,0.483-0.114,1.45-0.114,1.621c0,0.199-0.029,0.541-0.256,0.541c-0.17,0-0.228-0.085-0.228-0.199
	c-0.029-0.256-0.029-0.569-0.085-0.882c-0.143-0.483-0.455-0.853-1.393-0.938c-0.455-0.057-3.299-0.114-3.924-0.114
	c-0.114,0-0.143,0.114-0.143,0.256v1.934c0,0.824-0.029,2.872,0,3.582c0.057,1.649,0.824,2.019,3.383,2.019
	c0.654,0,1.706-0.029,2.36-0.313c0.625-0.284,0.909-0.796,1.08-1.791c0.057-0.256,0.114-0.37,0.284-0.37
	c0.199,0,0.228,0.313,0.228,0.569c0,0.541-0.199,2.189-0.342,2.673c-0.17,0.625-0.398,0.625-1.336,0.625
	c-1.876,0-3.383-0.029-4.607-0.085c-1.222-0.029-2.161-0.057-2.9-0.057c-0.284,0-0.825,0.029-1.422,0.029
	c-0.597,0.029-1.223,0.057-1.735,0.057c-0.313,0-0.483-0.085-0.483-0.256c0-0.114,0.085-0.256,0.398-0.256
	c0.37,0,0.654-0.029,0.881-0.085c0.512-0.114,0.654-0.569,0.74-1.28c0.114-1.023,0.114-2.928,0.114-5.146v-4.266H402.312z"/>
<path fill="#FFFFFF" d="M32.831,33.275c-0.312,0.904-0.622,1.805-0.931,2.696c-0.461,1.329-0.913,2.685-1.37,4.049
	c2.088-0.106,4.19-0.14,6.275-0.163c0.037-0.189,0.075-0.384,0.113-0.571c0.396-1.957,0.764-3.973,1.218-5.954
	c-0.309-0.006-0.614-0.011-0.919-0.016C35.774,33.301,34.303,33.271,32.831,33.275z"/>
<path fill="#FFFFFF" d="M56.791,7.589c0.141,1.044-0.295,2.127-1.231,2.755c-1.312,0.878-3.084,0.527-3.964-0.786
	c-0.193-0.29-0.318-0.604-0.396-0.924c-1.877,0.607-3.834,1.578-5.941,3.21C39.194,16.55,36.123,23.92,33.52,31.295
	c1.521,0.064,3.039,0.16,4.531,0.234c0.174,0.008,0.349,0.017,0.523,0.026c0.975-3.685,2.382-7.158,5.012-9.814
	c1.334-1.348,2.658-2.249,3.972-2.868c-0.184-0.894,0.109-1.858,0.864-2.477c1.083-0.891,2.684-0.734,3.575,0.35
	c0.21,0.259,0.357,0.545,0.452,0.843c0.053,0.166,0.09,0.335,0.108,0.505c0.085,0.819-0.228,1.662-0.915,2.224
	c-1.05,0.867-2.585,0.734-3.489-0.27c-0.568,0.394-1.143,0.853-1.731,1.408c-2.88,2.721-4.508,6.356-5.689,10.208
	c4.789,0.236,9.942,0.323,14.26-1.629c-0.643-1.1-0.376-2.529,0.676-3.301c1.092-0.805,2.607-0.595,3.454,0.443
	c0.027,0.033,0.059,0.059,0.085,0.095c0.08,0.109,0.141,0.224,0.201,0.34c0.563,1.087,0.277,2.449-0.738,3.198
	c-0.903,0.664-2.094,0.632-2.961,0.017c-4.501,2.668-10.085,2.662-15.47,2.548c-0.505,1.846-0.936,3.716-1.376,5.542
	c-0.073,0.305-0.145,0.61-0.217,0.919c0.477-0.006,0.954-0.011,1.427-0.019c8.384-0.143,18.165,0.11,25.547-4.399
	c-0.826-1.196-0.634-2.842,0.497-3.797c1.147-0.965,2.821-0.864,3.86,0.177c0.049,0.049,0.101,0.092,0.148,0.141
	c-0.896-9.937-5.93-18.676-13.367-24.491C56.768,7.497,56.785,7.542,56.791,7.589z"/>
<path fill="#FFFFFF" d="M13.346,62.626c-0.617-1.262-0.234-2.814,0.967-3.62c1.161-0.778,2.685-0.587,3.629,0.376
	c4.411-4.147,6.918-10.049,8.87-15.958c-5.173,0.709-10.142,2.068-14.341,5.029c0.122,0.932-0.213,1.905-0.985,2.555
	c-0.739,0.623-1.701,0.803-2.569,0.575c-0.55-0.144-1.063-0.45-1.456-0.916c-0.003,0-0.003-0.001-0.003-0.001
	c-1.015-1.209-0.863-3.011,0.343-4.028c0.963-0.809,2.296-0.865,3.317-0.248c0.662-0.576,1.376-1.142,2.186-1.694
	c4.269-2.906,9.3-4.036,14.531-4.497c0.411-1.347,0.808-2.677,1.202-3.969c0.293-0.954,0.581-1.921,0.87-2.891
	c-3.608,0.166-7.145,0.716-10.259,2.338c0.208,0.946-0.137,1.968-0.967,2.582c-0.836,0.616-1.921,0.636-2.767,0.15
	c-0.293-0.169-0.558-0.399-0.771-0.688c-0.022-0.03-0.034-0.063-0.057-0.095c-0.75-1.118-0.502-2.637,0.594-3.443
	c0.908-0.668,2.105-0.631,2.974-0.006c0.257-0.173,0.522-0.346,0.806-0.512c3.317-1.951,7.158-2.43,11.084-2.439
	c2.231-7.306,4.849-14.614,10.582-19.376c3.531-2.934,6.846-4.094,10.061-4.52c0.157-0.687,0.558-1.318,1.189-1.741
	c0.34-0.228,0.711-0.37,1.089-0.436C48.132,1.888,41.856,0,35.138,0C15.732,0,0,15.731,0,35.139
	c0,11.198,5.245,21.166,13.405,27.599C13.387,62.701,13.362,62.664,13.346,62.626z"/>
<path fill="#FFFFFF" d="M69.806,35.989c-0.9,0.761-2.135,0.867-3.127,0.369c-0.263,0.206-0.536,0.411-0.821,0.61
	c-7.487,5.271-17.647,5.03-26.825,5.525c-0.336,0.019-0.676,0.034-1.013,0.053c-1.14,4.856-2.49,9.786-5.747,13.324
	c0.576,1.049,0.346,2.392-0.612,3.18c-1.011,0.83-2.461,0.737-3.377-0.156c-0.066-0.063-0.137-0.123-0.197-0.195
	c-0.065-0.08-0.111-0.166-0.165-0.248c-0.685-1.071-0.49-2.501,0.516-3.327c0.922-0.755,2.207-0.749,3.12-0.07
	c2.628-3.491,3.787-8.055,4.686-12.417c-2.25,0.119-4.522,0.256-6.775,0.479c-2.296,6.525-5.073,12.91-10.29,17.107
	c-0.177,0.141-0.354,0.27-0.53,0.403c0.314,1.153-0.105,2.423-1.153,3.125c-0.662,0.444-1.436,0.562-2.156,0.411
	c5.639,3.854,12.456,6.112,19.802,6.112c19.292,0,34.949-15.549,35.131-34.799C70.136,35.661,69.988,35.836,69.806,35.989z"/>
</svg>
