<?xml version="1.0" encoding="utf-8"?>
<!-- Generator: Adobe Illustrator 21.0.1, SVG Export Plug-In . SVG Version: 6.00 Build 0)  -->
<svg version="1.1" id="Layer_1" xmlns="http://www.w3.org/2000/svg" xmlns:xlink="http://www.w3.org/1999/xlink" x="0px" y="0px"
	 width="86px" height="79.419px" viewBox="0 0 86 79.419" enable-background="new 0 0 86 79.419" xml:space="preserve">
<path fill="#88B86A" d="M84.837,35.662c-0.701-0.689-1.662-1.116-2.723-1.116c-1.229,0-2.324,0.572-3.036,1.464
	c-0.072,0.09-0.139,0.183-0.202,0.279c-0.921,1.29-0.963,3.044-0.038,4.383c-9.891,6.041-22.997,5.702-34.232,5.894
	c-0.634,0.011-1.272,0.018-1.912,0.026c0.097-0.413,0.193-0.823,0.292-1.232c0.589-2.445,1.166-4.952,1.844-7.425
	c7.214,0.152,14.696,0.16,20.728-3.415c1.162,0.824,2.757,0.867,3.967-0.023c1.361-1.002,1.743-2.828,0.989-4.285
	c-0.08-0.156-0.161-0.31-0.269-0.456c-0.035-0.047-0.078-0.083-0.115-0.127c-1.134-1.389-3.164-1.672-4.627-0.592
	c-1.409,1.034-1.768,2.95-0.906,4.423c-5.785,2.615-12.691,2.499-19.108,2.182c1.582-5.161,3.764-10.033,7.623-13.678
	c0.787-0.744,1.558-1.359,2.319-1.887c1.212,1.344,3.269,1.522,4.676,0.362c0.919-0.753,1.338-1.884,1.225-2.981
	c-0.024-0.229-0.073-0.454-0.144-0.677c-0.127-0.401-0.324-0.783-0.606-1.131c-1.194-1.452-3.339-1.664-4.79-0.469
	c-1.012,0.829-1.405,2.122-1.158,3.319c-1.76,0.829-3.535,2.037-5.322,3.843c-3.525,3.56-5.41,8.213-6.715,13.15
	c-0.235-0.012-0.469-0.024-0.702-0.035c-2-0.099-4.034-0.227-6.072-0.314c3.487-9.882,7.603-19.757,15.729-26.065
	c2.811-2.178,5.423-3.476,7.93-4.291c0.408,1.709,1.942,2.981,3.776,2.981c2.146,0,3.886-1.74,3.886-3.886
	c0-0.199-0.02-0.394-0.049-0.585C66.811,1.433,65.204,0,63.257,0c-0.268,0-0.53,0.027-0.783,0.079
	c-1.498,0.306-2.68,1.476-3.009,2.966c-4.297,0.573-8.729,2.129-13.448,6.051c-7.681,6.38-11.189,16.172-14.179,25.963
	c-5.261,0.012-10.406,0.654-14.852,3.269c-0.381,0.222-0.734,0.454-1.079,0.686c-1.165-0.838-2.77-0.887-3.986,0.007
	c-1.468,1.081-1.801,3.116-0.796,4.614c0.03,0.041,0.047,0.085,0.076,0.127c0.286,0.387,0.641,0.696,1.034,0.921
	c1.133,0.652,2.587,0.623,3.706-0.201c1.112-0.823,1.573-2.193,1.296-3.461c4.172-2.173,8.911-2.91,13.746-3.133
	c-0.388,1.3-0.774,2.595-1.166,3.874c-0.529,1.731-1.061,3.514-1.612,5.318c-7.009,0.617-13.75,2.132-19.47,6.025
	c-1.085,0.739-2.043,1.497-2.929,2.269c-1.368-0.827-3.154-0.753-4.444,0.332C-0.256,57.07-0.46,59.483,0.9,61.101
	c0,0,0,0.002,0.003,0.002c0.527,0.625,1.213,1.033,1.95,1.227c1.163,0.306,2.452,0.065,3.443-0.77
	c1.035-0.872,1.483-2.175,1.32-3.424c5.629-3.966,12.286-5.787,19.217-6.738c-2.615,7.919-5.975,15.826-11.885,21.383
	c-0.926-0.944-2.265-1.321-3.528-1.053c-0.034,0.007-0.069,0.013-0.103,0.021c-0.099,0.024-0.198,0.051-0.296,0.083
	C10.87,71.881,10.722,71.935,10.58,72c-1.341,0.613-2.274,1.962-2.274,3.533c0,0.552,0.117,1.076,0.324,1.551
	c0.545,1.25,1.728,2.158,3.139,2.311c0.139,0.015,0.28,0.024,0.423,0.024c2.146,0,3.886-1.74,3.886-3.886
	c0-0.383-0.058-0.751-0.161-1.101c0.228-0.172,0.456-0.339,0.686-0.522c6.991-5.624,10.712-14.181,13.789-22.922
	c3.018-0.299,6.062-0.482,9.078-0.642c-1.205,5.845-2.758,11.96-6.278,16.639c-1.223-0.91-2.945-0.919-4.179,0.093
	c-1.349,1.106-1.61,3.021-0.692,4.457c0.073,0.11,0.135,0.226,0.221,0.332c0.081,0.096,0.176,0.175,0.264,0.261
	c1.227,1.196,3.17,1.321,4.525,0.209c1.284-1.056,1.592-2.856,0.82-4.26c4.365-4.741,6.173-11.346,7.701-17.853
	c0.45-0.026,0.907-0.046,1.357-0.072c12.299-0.663,25.912-0.34,35.944-7.402c0.381-0.267,0.747-0.542,1.101-0.818
	c0.692,0.347,1.47,0.47,2.229,0.37c1.029-0.097,1.939-0.595,2.576-1.336C85.644,40.284,86,39.401,86,38.433
	C86,37.348,85.554,36.367,84.837,35.662z M40.375,45.856c-0.051,0.25-0.101,0.513-0.152,0.765c-2.794,0.03-5.61,0.076-8.408,0.218
	c0.612-1.829,1.219-3.646,1.836-5.426c0.415-1.194,0.829-2.401,1.247-3.613c1.972-0.005,3.943,0.035,5.877,0.056
	c0.408,0.006,0.818,0.014,1.231,0.022C41.399,40.534,40.905,43.234,40.375,45.856z"/>
</svg>
