<svg xmlns="http://www.w3.org/2000/svg" viewBox="0 0 48.8 37.2"><path fill="#231F20" d="M18.9 3.4l-10-2.1-.2 1.2 9.9 2.1M27.4 6.4l10.2 2.2.3-1.2-10.3-2.2"/><path fill="none" stroke="#231F20" stroke-linecap="square" stroke-miterlimit="10" d="M.8 18.7l6.9-15 6.9 15z"/><path fill="#231F20" d="M29.7 29.2s-5.4-7-5.4-19.5H22c0 12.6-5.4 19.5-5.4 19.5h13.1zM12.6 31.1h21v2.2h-21zM8.6 35.1h29v2.2h-29z"/><path fill="#231F20" stroke="#231F20" stroke-miterlimit="10" d="M.7 20.7c.9 3.1 3.7 5.3 7 5.3s6.2-2.3 7-5.3H.7z"/><path fill="#231F20" d="M48.1 32.4L37.8 22.1V8.9h1v12.8l10 10"/><path fill="#231F20" stroke="#231F20" stroke-miterlimit="10" d="M46.8 33.2c-2.8 1.6-6.4 1.2-8.7-1.2s-2.8-6-1.2-8.7l9.9 9.9z"/><path fill="none" stroke="#231F20" stroke-miterlimit="10" d="M21.17 1.945l4.89 1.04-1.04 4.89-4.89-1.04z" stroke-width=".99995"/><path fill="none" stroke="#231F20" stroke-miterlimit="10" d="M25.702 4.545l1.662.353-.353 1.663-1.662-.352zM19.103 3.14l1.662.354-.353 1.663-1.663-.354zM37.695 7.23l1.663.355-.354 1.662-1.663-.353zM8.404 2.626L6.74 2.272 7.096.61l1.663.353z" stroke-width=".99995"/></svg>