<?xml version="1.0" encoding="utf-8"?>
<!-- Generator: Adobe Illustrator 21.0.1, SVG Export Plug-In . SVG Version: 6.00 Build 0)  -->
<svg version="1.1" id="Symbol_Editing_Mode" xmlns="http://www.w3.org/2000/svg" xmlns:xlink="http://www.w3.org/1999/xlink"
	 x="0px" y="0px" width="183px" height="70.866px" viewBox="0 0 183 70.866" enable-background="new 0 0 183 70.866"
	 xml:space="preserve">
<g id="GLA_x5F_Logo_3">
</g>
<g>
	<path fill-rule="evenodd" clip-rule="evenodd" fill="#FFFFFF" d="M33.106,33.554c-0.315,0.912-0.627,1.82-0.939,2.719
		c-0.464,1.339-0.921,2.707-1.382,4.084c2.106-0.106,4.225-0.141,6.328-0.164c0.038-0.19,0.076-0.388,0.114-0.576
		c0.399-1.973,0.77-4.005,1.228-6.004c-0.311-0.006-0.619-0.011-0.926-0.016C36.074,33.58,34.59,33.55,33.106,33.554"/>
	<path fill-rule="evenodd" clip-rule="evenodd" fill="#FFFFFF" d="M57.267,7.652c0.142,1.053-0.298,2.144-1.241,2.777
		c-1.324,0.885-3.11,0.531-3.998-0.792c-0.195-0.293-0.321-0.609-0.398-0.932c-1.893,0.612-3.867,1.591-5.991,3.237
		c-6.115,4.747-9.212,12.179-11.837,19.615c1.533,0.065,3.065,0.162,4.569,0.236c0.175,0.008,0.351,0.017,0.528,0.027
		c0.983-3.715,2.401-7.218,5.054-9.896c1.345-1.359,2.681-2.268,4.005-2.892c-0.186-0.901,0.11-1.874,0.871-2.498
		c1.092-0.899,2.706-0.74,3.605,0.353c0.212,0.261,0.36,0.549,0.456,0.851c0.053,0.167,0.09,0.337,0.108,0.509
		c0.085,0.826-0.23,1.677-0.922,2.243c-1.059,0.873-2.607,0.739-3.519-0.272c-0.573,0.397-1.153,0.86-1.745,1.42
		c-2.904,2.743-4.546,6.409-5.737,10.293c4.829,0.239,10.026,0.326,14.38-1.642c-0.649-1.109-0.379-2.55,0.682-3.329
		c1.101-0.812,2.629-0.6,3.482,0.446c0.028,0.033,0.06,0.06,0.086,0.095c0.081,0.11,0.142,0.226,0.202,0.343
		c0.567,1.096,0.28,2.47-0.744,3.224c-0.911,0.67-2.111,0.638-2.986,0.017c-4.539,2.69-10.17,2.684-15.599,2.57
		c-0.51,1.861-0.944,3.748-1.388,5.588c-0.074,0.307-0.147,0.616-0.22,0.927c0.482-0.006,0.962-0.011,1.439-0.02
		c8.455-0.144,18.318,0.111,25.761-4.435c-0.833-1.205-0.64-2.866,0.502-3.829c1.156-0.974,2.844-0.871,3.891,0.179
		c0.049,0.049,0.102,0.093,0.149,0.142c-0.906-10.02-5.981-18.832-13.48-24.697C57.244,7.559,57.261,7.605,57.267,7.652"/>
	<path fill-rule="evenodd" clip-rule="evenodd" fill="#FFFFFF" d="M13.458,63.15c-0.623-1.273-0.236-2.837,0.975-3.65
		c1.171-0.784,2.707-0.592,3.659,0.379c4.448-4.182,6.977-10.133,8.944-16.092c-5.216,0.716-10.226,2.086-14.462,5.071
		c0.123,0.94-0.214,1.921-0.993,2.577c-0.746,0.628-1.715,0.809-2.591,0.579c-0.555-0.146-1.071-0.453-1.468-0.923
		c-0.002,0-0.002-0.001-0.002-0.001c-1.023-1.218-0.87-3.034,0.347-4.06c0.971-0.816,2.315-0.873,3.344-0.25
		c0.667-0.582,1.388-1.152,2.205-1.708c4.305-2.93,9.378-4.07,14.653-4.534c0.415-1.358,0.815-2.699,1.213-4.002
		c0.295-0.962,0.586-1.937,0.878-2.915c-3.639,0.168-7.205,0.723-10.345,2.358c0.209,0.954-0.138,1.985-0.975,2.605
		c-0.842,0.62-1.937,0.642-2.789,0.151c-0.296-0.17-0.563-0.402-0.778-0.693c-0.022-0.031-0.034-0.064-0.057-0.095
		c-0.756-1.127-0.506-2.659,0.599-3.472c0.915-0.673,2.122-0.637,2.999-0.006c0.26-0.174,0.526-0.349,0.812-0.516
		c3.345-1.968,7.218-2.451,11.177-2.46c2.25-7.368,4.89-14.737,10.671-19.538c3.561-2.959,6.904-4.128,10.145-4.557
		c0.158-0.693,0.563-1.329,1.199-1.756c0.343-0.229,0.717-0.373,1.098-0.439C48.535,1.904,42.207,0,35.432,0
		C15.864,0,0,15.863,0,35.433c0,11.292,5.289,21.344,13.518,27.831C13.499,63.226,13.475,63.189,13.458,63.15"/>
	<path fill-rule="evenodd" clip-rule="evenodd" fill="#FFFFFF" d="M70.391,36.291c-0.908,0.767-2.152,0.874-3.153,0.371
		c-0.266,0.208-0.542,0.415-0.828,0.616c-7.549,5.315-17.794,5.072-27.05,5.571c-0.338,0.02-0.682,0.034-1.021,0.054
		c-1.15,4.897-2.511,9.868-5.795,13.435c0.582,1.057,0.349,2.412-0.617,3.206c-1.02,0.837-2.482,0.743-3.406-0.157
		c-0.067-0.064-0.138-0.124-0.199-0.196c-0.065-0.08-0.112-0.167-0.167-0.25c-0.691-1.08-0.494-2.522,0.521-3.354
		c0.929-0.762,2.225-0.755,3.145-0.07c2.65-3.521,3.818-8.123,4.725-12.522c-2.269,0.121-4.56,0.258-6.832,0.483
		c-2.315,6.579-5.116,13.018-10.377,17.25c-0.179,0.142-0.357,0.273-0.535,0.407c0.316,1.163-0.106,2.444-1.163,3.151
		c-0.667,0.449-1.447,0.566-2.175,0.415c5.687,3.886,12.561,6.162,19.967,6.162c19.454,0,35.242-15.68,35.426-35.091
		C70.723,35.96,70.575,36.136,70.391,36.291"/>
	<path fill="#FFFFFF" d="M111.875,24.003c0,0.6-0.022,0.644-0.289,0.799c-1.444,0.756-3.621,1-5.353,1
		c-5.442,0-10.263-2.577-10.263-8.708c0-3.554,1.844-6.042,3.865-7.264c2.132-1.288,4.109-1.444,5.975-1.444
		c1.533,0,3.488,0.266,3.931,0.355c0.467,0.089,1.244,0.222,1.755,0.244c0.267,0.022,0.311,0.111,0.311,0.266
		c0,0.244-0.155,0.866-0.155,3.643c0,0.355-0.067,0.466-0.244,0.466c-0.155,0-0.2-0.111-0.222-0.289
		c-0.066-0.511-0.178-1.222-0.755-1.843c-0.667-0.711-2.444-1.733-4.954-1.733c-1.222,0-2.843,0.089-4.398,1.377
		c-1.244,1.044-2.044,2.71-2.044,5.442c0,4.776,3.043,8.352,7.73,8.352c0.578,0,1.355,0,1.888-0.244
		c0.333-0.155,0.422-0.444,0.422-0.822v-2.088c0-1.111,0-1.955-0.023-2.621c-0.022-0.755-0.222-1.111-0.955-1.266
		c-0.177-0.044-0.555-0.066-0.866-0.066c-0.2,0-0.333-0.044-0.333-0.178c0-0.178,0.155-0.222,0.466-0.222
		c1.155,0,2.555,0.066,3.221,0.066c0.689,0,1.866-0.066,2.599-0.066c0.289,0,0.444,0.044,0.444,0.222
		c0,0.133-0.133,0.178-0.288,0.178c-0.178,0-0.333,0.022-0.6,0.066c-0.6,0.111-0.822,0.489-0.844,1.266
		c-0.022,0.666-0.022,1.555-0.022,2.665V24.003"/>
	<path fill="#FFFFFF" d="M118.916,20.005c0,2.421,0,3.62,0.422,3.976c0.333,0.289,1.089,0.4,2.599,0.4
		c1.044,0,1.799-0.023,2.288-0.533c0.244-0.244,0.445-0.777,0.489-1.133c0.022-0.178,0.066-0.289,0.222-0.289
		c0.133,0,0.178,0.2,0.178,0.422s-0.133,1.622-0.289,2.177c-0.133,0.422-0.222,0.511-1.244,0.511c-1.399,0-2.532-0.023-3.51-0.067
		c-0.978-0.022-1.799-0.044-2.599-0.044c-0.222,0-0.644,0.022-1.11,0.022c-0.467,0.022-0.955,0.044-1.355,0.044
		c-0.244,0-0.378-0.066-0.378-0.2c0-0.089,0.067-0.2,0.311-0.2c0.289,0,0.511-0.023,0.688-0.067c0.4-0.089,0.511-0.444,0.578-1
		c0.089-0.799,0.089-2.288,0.089-4.02v-3.332c0-2.866,0-3.399-0.023-3.999c-0.044-0.644-0.222-0.844-0.844-1.022
		c-0.156-0.044-0.4-0.066-0.644-0.066c-0.222,0-0.333-0.067-0.333-0.2c0-0.133,0.134-0.178,0.422-0.178
		c0.911,0,2.155,0.044,2.688,0.044c0.466,0,2.066-0.044,2.821-0.044c0.289,0,0.422,0.044,0.422,0.178c0,0.133-0.111,0.2-0.356,0.2
		c-0.222,0-0.533,0.022-0.755,0.066c-0.533,0.089-0.689,0.355-0.733,1.022c-0.044,0.6-0.044,1.133-0.044,3.999V20.005"/>
	<path fill="#FFFFFF" d="M125.98,18.339c0-3.221,2.266-7.397,8.197-7.397c4.931,0,7.996,2.732,7.996,7.064s-3.154,7.73-8.197,7.73
		C128.29,25.736,125.98,21.693,125.98,18.339 M139.263,18.694c0-4.176-2.51-6.753-5.664-6.753c-2.177,0-4.731,1.155-4.731,5.82
		c0,3.887,2.221,6.953,5.908,6.953C136.153,24.714,139.263,24.07,139.263,18.694z"/>
	<path fill="#FFFFFF" d="M145.816,16.673c0-2.866,0-3.399-0.022-3.999c-0.045-0.644-0.222-0.844-0.844-1.022
		c-0.155-0.044-0.489-0.066-0.777-0.066c-0.2,0-0.333-0.067-0.333-0.2c0-0.133,0.156-0.178,0.445-0.178
		c1.022,0,2.266,0.044,2.643,0.044c0.977,0,2.266-0.044,2.932-0.044c3.532,0,4.154,1.821,4.154,2.821
		c0,1.466-1.089,2.599-2.199,3.31c1.599,0.511,3.598,1.866,3.598,4.088c0,2.021-1.599,4.109-5.198,4.109
		c-0.222,0-0.888-0.023-1.555-0.067c-0.667-0.022-1.355-0.044-1.666-0.044c-0.222,0-0.644,0.022-1.111,0.022
		c-0.466,0.022-0.955,0.044-1.355,0.044c-0.244,0-0.377-0.066-0.377-0.2c0-0.089,0.066-0.2,0.311-0.2
		c0.289,0,0.511-0.023,0.689-0.067c0.4-0.089,0.511-0.444,0.578-1c0.089-0.799,0.089-2.288,0.089-4.02V16.673 M148.349,16.983
		c0,0.156,0.066,0.178,0.133,0.2c0.178,0.044,0.466,0.066,0.911,0.066c0.644,0,1.199-0.066,1.533-0.333
		c0.511-0.4,0.889-1.088,0.889-1.999c0-1.266-0.756-2.843-2.444-2.843c-0.267,0-0.644,0-0.844,0.044
		c-0.133,0.022-0.177,0.111-0.177,0.311V16.983z M148.349,22.537c0,1.244,0.066,1.622,0.689,1.866
		c0.511,0.2,0.955,0.222,1.399,0.222c1.044,0,2.399-0.578,2.399-2.666c0-0.866-0.378-2.355-1.844-3.354
		c-0.4-0.289-0.933-0.489-1.688-0.489h-0.844c-0.067,0-0.111,0.023-0.111,0.133V22.537z"/>
	<path fill="#FFFFFF" d="M160.987,20.716c-0.111,0-0.133,0.022-0.178,0.133l-1.044,2.555c-0.2,0.466-0.289,0.933-0.289,1.155
		c0,0.333,0.177,0.533,0.777,0.533h0.289c0.244,0,0.289,0.089,0.289,0.2c0,0.155-0.111,0.2-0.311,0.2
		c-0.644,0-1.555-0.066-2.177-0.066c-0.2,0-1.244,0.066-2.266,0.066c-0.244,0-0.355-0.044-0.355-0.2c0-0.111,0.066-0.2,0.222-0.2
		c0.178,0,0.4-0.023,0.578-0.023c0.889-0.133,1.222-0.711,1.622-1.666l5.109-11.795c0.222-0.533,0.377-0.756,0.577-0.756
		c0.289,0,0.378,0.178,0.578,0.6c0.467,1.044,3.732,8.685,4.976,11.551c0.755,1.711,1.311,1.955,1.666,2.021
		c0.289,0.044,0.511,0.067,0.733,0.067c0.178,0,0.267,0.066,0.267,0.2c0,0.155-0.111,0.2-0.844,0.2c-0.689,0-2.11,0-3.754-0.044
		c-0.355-0.022-0.577-0.022-0.577-0.155c0-0.111,0.044-0.178,0.244-0.2c0.133-0.023,0.267-0.2,0.178-0.422l-1.511-3.821
		c-0.044-0.111-0.111-0.133-0.2-0.133H160.987 M165.163,19.671c0.089,0,0.111-0.044,0.089-0.111l-1.844-4.731
		c-0.022-0.067-0.044-0.178-0.089-0.178c-0.066,0-0.089,0.111-0.111,0.178l-1.888,4.709c-0.045,0.089,0,0.133,0.066,0.133H165.163z"
		/>
	<path fill="#FFFFFF" d="M176.802,20.005c0,2.421,0,3.62,0.422,3.976c0.333,0.289,1.088,0.4,2.599,0.4
		c1.044,0,1.8-0.023,2.288-0.533c0.244-0.244,0.444-0.777,0.489-1.133c0.022-0.178,0.066-0.289,0.222-0.289
		c0.133,0,0.178,0.2,0.178,0.422s-0.133,1.622-0.289,2.177c-0.133,0.422-0.222,0.511-1.244,0.511c-1.4,0-2.533-0.023-3.51-0.067
		c-0.977-0.022-1.799-0.044-2.599-0.044c-0.222,0-0.644,0.022-1.111,0.022c-0.466,0.022-0.955,0.044-1.355,0.044
		c-0.244,0-0.377-0.066-0.377-0.2c0-0.089,0.066-0.2,0.311-0.2c0.289,0,0.511-0.023,0.689-0.067c0.4-0.089,0.511-0.444,0.578-1
		c0.089-0.799,0.089-2.288,0.089-4.02v-3.332c0-2.866,0-3.399-0.022-3.999c-0.045-0.644-0.222-0.844-0.844-1.022
		c-0.155-0.044-0.4-0.066-0.644-0.066c-0.222,0-0.333-0.067-0.333-0.2c0-0.133,0.133-0.178,0.422-0.178
		c0.911,0,2.155,0.044,2.688,0.044c0.467,0,2.066-0.044,2.821-0.044c0.289,0,0.422,0.044,0.422,0.178c0,0.133-0.112,0.2-0.356,0.2
		c-0.222,0-0.533,0.022-0.755,0.066c-0.533,0.089-0.689,0.355-0.733,1.022c-0.045,0.6-0.045,1.133-0.045,3.999V20.005"/>
	<path fill="#FFFFFF" d="M132.222,41.013c0,2.843,0,4.376,0.466,4.776c0.378,0.333,0.956,0.489,2.688,0.489
		c1.177,0,2.044-0.022,2.599-0.622c0.267-0.289,0.534-0.911,0.578-1.333c0.022-0.2,0.067-0.333,0.244-0.333
		c0.155,0,0.178,0.111,0.178,0.378c0,0.244-0.156,1.91-0.333,2.554c-0.133,0.489-0.245,0.6-1.4,0.6
		c-1.599,0-2.755-0.045-3.754-0.067c-1-0.044-1.8-0.066-2.71-0.066c-0.244,0-0.733,0-1.266,0.022c-0.511,0-1.088,0.044-1.533,0.044
		c-0.289,0-0.444-0.066-0.444-0.222c0-0.111,0.089-0.178,0.356-0.178c0.333,0,0.599-0.044,0.799-0.089
		c0.444-0.089,0.555-0.578,0.644-1.222c0.111-0.933,0.111-2.688,0.111-4.731v-3.91c0-3.376,0-3.999-0.044-4.709
		c-0.045-0.755-0.222-1.11-0.955-1.266c-0.178-0.045-0.444-0.067-0.733-0.067c-0.244,0-0.377-0.044-0.377-0.2
		c0-0.155,0.155-0.2,0.489-0.2c1.044,0,2.444,0.067,3.043,0.067c0.534,0,2.155-0.067,3.021-0.067c0.311,0,0.466,0.045,0.466,0.2
		c0,0.155-0.133,0.2-0.4,0.2c-0.244,0-0.6,0.022-0.866,0.067c-0.6,0.111-0.777,0.489-0.822,1.266
		c-0.044,0.711-0.044,1.333-0.044,4.709V41.013"/>
	<path fill="#FFFFFF" d="M142.773,42.546c0-1.022-0.178-1.421-0.444-1.977c-0.133-0.289-2.799-4.443-3.488-5.442
		c-0.489-0.688-0.889-1.133-1.266-1.333c-0.244-0.133-0.578-0.244-0.822-0.244c-0.155,0-0.289-0.067-0.289-0.2
		s0.133-0.178,0.377-0.178c0.333,0,1.8,0.044,2.444,0.044c0.422,0,1.333-0.044,2.221-0.044c0.178,0,0.289,0.044,0.289,0.178
		c0,0.155-0.133,0.155-0.444,0.244c-0.155,0.044-0.267,0.133-0.267,0.289c0,0.155,0.089,0.377,0.244,0.644
		c0.356,0.578,2.91,4.998,3.243,5.531c0.244-0.444,2.621-4.487,2.91-5.065c0.2-0.422,0.289-0.755,0.289-1
		c0-0.178-0.089-0.355-0.422-0.422c-0.178-0.044-0.356-0.066-0.356-0.222c0-0.133,0.112-0.178,0.333-0.178
		c0.644,0,1.333,0.044,1.91,0.044c0.422,0,1.711-0.044,2.088-0.044c0.222,0,0.356,0.044,0.356,0.155
		c0,0.133-0.155,0.222-0.377,0.222c-0.2,0-0.555,0.089-0.844,0.222c-0.422,0.2-0.6,0.377-1.022,0.888
		c-0.644,0.755-3.443,5.242-3.799,6.042c-0.289,0.688-0.244,1.266-0.244,1.888v1.51c0,0.311,0,1.088,0.044,1.888
		c0.044,0.555,0.222,0.911,0.8,1c0.289,0.044,0.711,0.066,0.977,0.066c0.222,0,0.333,0.111,0.333,0.2c0,0.133-0.155,0.2-0.422,0.2
		c-1.222,0-2.532-0.066-3.065-0.066c-0.489,0-1.8,0.066-2.533,0.066c-0.266,0-0.422-0.044-0.422-0.2c0-0.089,0.089-0.2,0.311-0.2
		c0.267,0,0.511-0.022,0.689-0.066c0.4-0.089,0.555-0.444,0.599-1c0.067-0.8,0.067-1.577,0.067-1.888V42.546"/>
	<path fill="#FFFFFF" d="M154.323,33.327c0.044-0.311,0.222-0.489,0.377-0.489c0.2,0,0.333,0.089,0.6,0.599l5.242,10.44
		l5.242-10.573c0.155-0.311,0.333-0.466,0.511-0.466c0.156,0,0.378,0.2,0.445,0.599l1.777,11.618
		c0.178,1.177,0.355,1.688,0.955,1.866c0.555,0.155,0.866,0.178,1.111,0.178c0.178,0,0.311,0.066,0.311,0.178
		c0,0.155-0.222,0.222-0.511,0.222c-0.489,0-3.265-0.066-4.043-0.111c-0.466-0.023-0.577-0.111-0.577-0.222
		c0-0.089,0.089-0.155,0.222-0.2c0.111-0.045,0.155-0.267,0.089-0.8l-1.088-8.152h-0.066l-4.198,8.352
		c-0.444,0.889-0.555,1.067-0.778,1.067c-0.244,0-0.466-0.378-0.777-0.955c-0.466-0.866-2.021-3.754-2.243-4.287
		c-0.156-0.356-1.311-2.644-1.955-3.954h-0.066l-0.933,7.286c-0.044,0.333-0.066,0.578-0.066,0.889c0,0.356,0.267,0.489,0.6,0.555
		c0.333,0.066,0.511,0.089,0.688,0.089c0.178,0,0.311,0.089,0.311,0.178c0,0.178-0.178,0.222-0.466,0.222
		c-0.822,0-1.711-0.066-2.066-0.066c-0.378,0-1.311,0.066-1.933,0.066c-0.2,0-0.355-0.044-0.355-0.222
		c0-0.089,0.111-0.178,0.311-0.178c0.155,0,0.289,0,0.6-0.044c0.533-0.067,0.711-0.822,0.8-1.444L154.323,33.327"/>
	<path fill="#FFFFFF" d="M174.093,38.636c0-2.865,0-3.398-0.022-3.998c-0.045-0.644-0.222-0.844-0.844-1.022
		c-0.155-0.045-0.489-0.066-0.778-0.066c-0.2,0-0.333-0.067-0.333-0.2s0.156-0.178,0.445-0.178c1.021,0,2.266,0.044,2.821,0.044
		c0.622,0,4.954,0.022,5.331,0c0.356-0.022,0.667-0.089,0.822-0.111c0.111-0.022,0.222-0.089,0.311-0.089
		c0.111,0,0.133,0.089,0.133,0.178c0,0.133-0.111,0.356-0.155,1.222c-0.022,0.2-0.066,1.022-0.111,1.244
		c-0.022,0.089-0.067,0.311-0.222,0.311c-0.133,0-0.155-0.089-0.155-0.244c0-0.133-0.022-0.466-0.133-0.688
		c-0.155-0.333-0.311-0.6-1.288-0.689c-0.333-0.044-2.665-0.089-3.065-0.089c-0.089,0-0.133,0.067-0.133,0.178v4.665
		c0,0.111,0.022,0.2,0.133,0.2c0.444,0,2.976,0,3.421-0.045c0.467-0.044,0.733-0.111,0.933-0.288
		c0.155-0.133,0.222-0.244,0.311-0.244c0.089,0,0.155,0.089,0.155,0.2c0,0.111-0.044,0.422-0.155,1.377
		c-0.044,0.377-0.089,1.133-0.089,1.266c0,0.156-0.022,0.422-0.2,0.422c-0.133,0-0.178-0.066-0.178-0.155
		c-0.022-0.2-0.022-0.444-0.067-0.689c-0.111-0.377-0.355-0.666-1.088-0.733c-0.355-0.044-2.576-0.089-3.065-0.089
		c-0.089,0-0.111,0.089-0.111,0.2v1.511c0,0.644-0.022,2.243,0,2.799c0.044,1.288,0.644,1.577,2.643,1.577
		c0.511,0,1.333-0.022,1.844-0.244c0.489-0.222,0.71-0.622,0.844-1.4c0.044-0.2,0.089-0.289,0.222-0.289
		c0.155,0,0.178,0.244,0.178,0.445c0,0.422-0.155,1.711-0.267,2.088c-0.133,0.489-0.311,0.489-1.044,0.489
		c-1.466,0-2.643-0.022-3.598-0.066c-0.955-0.022-1.688-0.044-2.266-0.044c-0.222,0-0.644,0.022-1.111,0.022
		c-0.466,0.022-0.955,0.044-1.355,0.044c-0.244,0-0.377-0.066-0.377-0.2c0-0.089,0.066-0.2,0.311-0.2
		c0.289,0,0.511-0.022,0.689-0.066c0.4-0.089,0.511-0.444,0.578-1c0.089-0.8,0.089-2.288,0.089-4.021V38.636"/>
	<path fill="#FFFFFF" d="M79.045,62.887c-0.111,0-0.155,0.045-0.2,0.178l-1.2,3.043c-0.222,0.555-0.333,1.089-0.333,1.355
		c0,0.4,0.2,0.689,0.888,0.689h0.333c0.267,0,0.333,0.045,0.333,0.178c0,0.178-0.133,0.222-0.378,0.222
		c-0.711,0-1.666-0.066-2.355-0.066c-0.244,0-1.466,0.066-2.621,0.066c-0.289,0-0.422-0.044-0.422-0.222
		c0-0.133,0.089-0.178,0.266-0.178c0.2,0,0.511-0.022,0.689-0.045c1.022-0.133,1.444-0.888,1.888-1.999l5.576-13.772
		c0.266-0.644,0.4-0.889,0.622-0.889c0.2,0,0.333,0.2,0.555,0.711c0.533,1.222,4.087,10.107,5.509,13.484
		c0.844,1.999,1.488,2.31,1.955,2.421c0.333,0.066,0.667,0.089,0.933,0.089c0.178,0,0.289,0.022,0.289,0.178
		c0,0.178-0.2,0.222-1.022,0.222c-0.8,0-2.421,0-4.198-0.044c-0.4-0.022-0.667-0.022-0.667-0.178c0-0.133,0.089-0.178,0.311-0.2
		c0.155-0.044,0.311-0.244,0.2-0.511l-1.777-4.576c-0.044-0.111-0.111-0.155-0.222-0.155H79.045 M83.577,61.776
		c0.111,0,0.133-0.067,0.111-0.133l-1.999-5.465c-0.022-0.089-0.044-0.2-0.111-0.2c-0.066,0-0.111,0.111-0.133,0.2L79.4,61.62
		c-0.022,0.089,0,0.155,0.089,0.155H83.577z"/>
	<path fill="#FFFFFF" d="M94.994,63.065c0,2.421,0,3.62,0.422,3.976c0.333,0.289,1.088,0.4,2.599,0.4
		c1.044,0,1.799-0.022,2.288-0.533c0.244-0.244,0.444-0.777,0.489-1.133c0.022-0.178,0.066-0.289,0.222-0.289
		c0.133,0,0.178,0.2,0.178,0.422s-0.133,1.622-0.289,2.177c-0.133,0.422-0.222,0.511-1.244,0.511c-1.4,0-2.532-0.022-3.51-0.067
		c-0.977-0.022-1.799-0.044-2.599-0.044c-0.222,0-0.644,0.022-1.111,0.022c-0.466,0.022-0.955,0.044-1.355,0.044
		c-0.244,0-0.378-0.066-0.378-0.2c0-0.089,0.067-0.2,0.311-0.2c0.288,0,0.511-0.022,0.688-0.066c0.4-0.089,0.511-0.444,0.578-1
		c0.089-0.799,0.089-2.288,0.089-4.02v-3.332c0-2.866,0-3.399-0.023-3.999c-0.044-0.644-0.222-0.844-0.844-1.021
		c-0.155-0.045-0.4-0.067-0.644-0.067c-0.222,0-0.333-0.066-0.333-0.2c0-0.133,0.133-0.178,0.422-0.178
		c0.911,0,2.155,0.044,2.688,0.044c0.466,0,2.066-0.044,2.821-0.044c0.289,0,0.422,0.044,0.422,0.178c0,0.133-0.111,0.2-0.356,0.2
		c-0.222,0-0.533,0.022-0.755,0.067c-0.533,0.089-0.689,0.355-0.733,1.021c-0.044,0.6-0.044,1.133-0.044,3.999V63.065"/>
	<path fill="#FFFFFF" d="M107.255,63.065c0,2.421,0,3.62,0.422,3.976c0.333,0.289,1.088,0.4,2.599,0.4
		c1.044,0,1.799-0.022,2.288-0.533c0.244-0.244,0.444-0.777,0.489-1.133c0.022-0.178,0.066-0.289,0.222-0.289
		c0.133,0,0.178,0.2,0.178,0.422s-0.133,1.622-0.289,2.177c-0.133,0.422-0.222,0.511-1.244,0.511c-1.4,0-2.533-0.022-3.51-0.067
		c-0.977-0.022-1.799-0.044-2.599-0.044c-0.222,0-0.644,0.022-1.111,0.022c-0.466,0.022-0.955,0.044-1.355,0.044
		c-0.244,0-0.377-0.066-0.377-0.2c0-0.089,0.067-0.2,0.311-0.2c0.289,0,0.511-0.022,0.689-0.066c0.4-0.089,0.511-0.444,0.578-1
		c0.089-0.799,0.089-2.288,0.089-4.02v-3.332c0-2.866,0-3.399-0.022-3.999c-0.044-0.644-0.222-0.844-0.844-1.021
		c-0.155-0.045-0.4-0.067-0.644-0.067c-0.222,0-0.333-0.066-0.333-0.2c0-0.133,0.133-0.178,0.422-0.178
		c0.911,0,2.155,0.044,2.688,0.044c0.467,0,2.066-0.044,2.821-0.044c0.289,0,0.422,0.044,0.422,0.178c0,0.133-0.112,0.2-0.356,0.2
		c-0.222,0-0.533,0.022-0.755,0.067c-0.533,0.089-0.689,0.355-0.733,1.021c-0.045,0.6-0.045,1.133-0.045,3.999V63.065"/>
	<path fill="#FFFFFF" d="M116.895,59.733c0-2.866,0-3.399-0.022-3.999c-0.045-0.644-0.244-0.866-0.666-0.999
		c-0.223-0.067-0.467-0.089-0.711-0.089c-0.2,0-0.311-0.044-0.311-0.222c0-0.111,0.155-0.155,0.467-0.155
		c0.733,0,2.066,0.044,2.621,0.044c0.488,0,1.754-0.044,2.51-0.044c0.244,0,0.4,0.044,0.4,0.155c0,0.178-0.111,0.222-0.311,0.222
		c-0.2,0-0.355,0.022-0.578,0.067c-0.533,0.089-0.689,0.355-0.733,1.021c-0.045,0.6-0.045,1.133-0.045,3.999v3.332
		c0,1.821,0,3.332,0.089,4.132c0.067,0.511,0.2,0.799,0.778,0.888c0.267,0.044,0.711,0.066,1,0.066c0.222,0,0.311,0.111,0.311,0.2
		c0,0.133-0.155,0.2-0.378,0.2c-1.288,0-2.621-0.066-3.154-0.066c-0.444,0-1.777,0.066-2.555,0.066c-0.244,0-0.377-0.066-0.377-0.2
		c0-0.089,0.066-0.2,0.311-0.2c0.289,0,0.511-0.022,0.689-0.066c0.4-0.089,0.511-0.356,0.578-0.911
		c0.089-0.777,0.089-2.288,0.089-4.109V59.733"/>
	<path fill="#FFFFFF" d="M126.78,63.775c-0.111,0-0.133,0.022-0.178,0.133l-1.044,2.554c-0.2,0.467-0.289,0.933-0.289,1.156
		c0,0.333,0.178,0.533,0.777,0.533h0.289c0.244,0,0.289,0.089,0.289,0.2c0,0.155-0.111,0.2-0.311,0.2
		c-0.644,0-1.555-0.066-2.177-0.066c-0.2,0-1.244,0.066-2.266,0.066c-0.244,0-0.355-0.044-0.355-0.2c0-0.111,0.066-0.2,0.222-0.2
		c0.178,0,0.4-0.022,0.578-0.022c0.888-0.133,1.222-0.711,1.622-1.666l5.109-11.795c0.222-0.533,0.378-0.755,0.578-0.755
		c0.289,0,0.378,0.177,0.578,0.599c0.466,1.044,3.732,8.686,4.976,11.551c0.755,1.711,1.31,1.955,1.666,2.021
		c0.288,0.044,0.511,0.066,0.733,0.066c0.178,0,0.267,0.067,0.267,0.2c0,0.155-0.111,0.2-0.844,0.2c-0.688,0-2.11,0-3.754-0.044
		c-0.355-0.022-0.578-0.022-0.578-0.155c0-0.111,0.044-0.178,0.244-0.2c0.133-0.022,0.267-0.2,0.177-0.422l-1.51-3.821
		c-0.044-0.111-0.111-0.133-0.2-0.133H126.78 M130.956,62.731c0.089,0,0.111-0.045,0.089-0.111l-1.844-4.731
		c-0.022-0.067-0.044-0.178-0.089-0.178c-0.066,0-0.089,0.111-0.111,0.178l-1.889,4.709c-0.044,0.089,0,0.133,0.067,0.133H130.956z"
		/>
	<path fill="#FFFFFF" d="M141.195,65.974c0.045,1.466,0.289,1.91,0.667,2.044c0.333,0.111,0.711,0.133,1.022,0.133
		c0.222,0,0.333,0.089,0.333,0.2c0,0.155-0.178,0.2-0.444,0.2c-1.266,0-2.177-0.066-2.533-0.066c-0.178,0-1.111,0.066-2.11,0.066
		c-0.266,0-0.444-0.023-0.444-0.2c0-0.111,0.133-0.2,0.311-0.2c0.267,0,0.622-0.022,0.889-0.089
		c0.511-0.133,0.578-0.644,0.599-2.288l0.178-11.196c0-0.378,0.133-0.644,0.333-0.644c0.244,0,0.511,0.289,0.844,0.622
		c0.244,0.244,3.177,3.243,6.02,6.02c1.333,1.31,3.932,3.976,4.221,4.242h0.089l-0.2-8.397c-0.022-1.155-0.2-1.488-0.666-1.666
		c-0.289-0.111-0.756-0.111-1.022-0.111c-0.244,0-0.311-0.089-0.311-0.2c0-0.155,0.2-0.178,0.489-0.178
		c1.021,0,2.066,0.044,2.488,0.044c0.222,0,0.955-0.044,1.91-0.044c0.266,0,0.444,0.022,0.444,0.178c0,0.111-0.111,0.2-0.333,0.2
		c-0.2,0-0.355,0-0.599,0.067c-0.533,0.155-0.689,0.489-0.711,1.555l-0.222,11.906c0,0.422-0.155,0.6-0.311,0.6
		c-0.333,0-0.6-0.2-0.8-0.4c-1.222-1.133-3.665-3.466-5.709-5.442c-2.132-2.044-4.198-4.332-4.576-4.665h-0.066L141.195,65.974"/>
	<path fill="#FFFFFF" d="M158.744,66.751c-1.933-1.621-2.444-3.754-2.444-5.575c0-1.288,0.422-3.509,2.288-5.176
		c1.422-1.244,3.288-1.999,6.198-1.999c1.222,0,1.955,0.089,2.843,0.2c0.733,0.111,1.377,0.244,1.955,0.311
		c0.222,0.023,0.289,0.111,0.289,0.222c0,0.155-0.044,0.378-0.089,1.044c-0.045,0.622-0.045,1.666-0.067,2.044
		c-0.022,0.267-0.089,0.466-0.267,0.466c-0.155,0-0.2-0.155-0.2-0.4c-0.022-0.6-0.266-1.266-0.755-1.755
		c-0.667-0.644-1.977-1.111-3.776-1.111c-1.711,0-2.799,0.311-3.687,1.067c-1.444,1.244-1.8,3.066-1.8,4.909
		c0,4.487,3.466,6.62,6.087,6.62c1.732,0,2.688-0.133,3.465-1c0.333-0.378,0.6-0.911,0.666-1.266
		c0.045-0.289,0.089-0.378,0.244-0.378c0.133,0,0.222,0.178,0.222,0.333c0,0.222-0.222,1.866-0.422,2.51
		c-0.089,0.333-0.178,0.422-0.511,0.555c-0.777,0.311-2.266,0.422-3.532,0.422C162.786,68.795,160.521,68.24,158.744,66.751"/>
	<path fill="#FFFFFF" d="M174.093,59.733c0-2.866,0-3.399-0.022-3.999c-0.045-0.644-0.222-0.844-0.844-1.021
		c-0.155-0.045-0.489-0.067-0.778-0.067c-0.2,0-0.333-0.066-0.333-0.2c0-0.133,0.156-0.178,0.445-0.178
		c1.021,0,2.266,0.044,2.821,0.044c0.622,0,4.954,0.022,5.331,0c0.356-0.022,0.667-0.089,0.822-0.111
		c0.111-0.022,0.222-0.089,0.311-0.089c0.111,0,0.133,0.089,0.133,0.178c0,0.133-0.111,0.355-0.155,1.222
		c-0.022,0.2-0.066,1.022-0.111,1.244c-0.022,0.089-0.067,0.311-0.222,0.311c-0.133,0-0.155-0.089-0.155-0.244
		c0-0.133-0.022-0.467-0.133-0.689c-0.155-0.333-0.311-0.6-1.288-0.689c-0.333-0.044-2.665-0.089-3.065-0.089
		c-0.089,0-0.133,0.067-0.133,0.178v4.664c0,0.112,0.022,0.2,0.133,0.2c0.444,0,2.976,0,3.421-0.045
		c0.467-0.044,0.733-0.111,0.933-0.289c0.155-0.133,0.222-0.244,0.311-0.244c0.089,0,0.155,0.089,0.155,0.2
		c0,0.111-0.044,0.422-0.155,1.377c-0.044,0.377-0.089,1.133-0.089,1.266c0,0.155-0.022,0.422-0.2,0.422
		c-0.133,0-0.178-0.067-0.178-0.155c-0.022-0.2-0.022-0.445-0.067-0.689c-0.111-0.378-0.355-0.667-1.088-0.733
		c-0.355-0.045-2.576-0.089-3.065-0.089c-0.089,0-0.111,0.089-0.111,0.2v1.51c0,0.645-0.022,2.244,0,2.799
		c0.044,1.288,0.644,1.577,2.643,1.577c0.511,0,1.333-0.022,1.844-0.244c0.489-0.223,0.71-0.622,0.844-1.4
		c0.044-0.2,0.089-0.289,0.222-0.289c0.155,0,0.178,0.244,0.178,0.444c0,0.422-0.155,1.71-0.267,2.088
		c-0.133,0.489-0.311,0.489-1.044,0.489c-1.466,0-2.643-0.022-3.598-0.067c-0.955-0.022-1.688-0.044-2.266-0.044
		c-0.222,0-0.644,0.022-1.111,0.022c-0.466,0.022-0.955,0.044-1.355,0.044c-0.244,0-0.377-0.066-0.377-0.2
		c0-0.089,0.066-0.2,0.311-0.2c0.289,0,0.511-0.022,0.689-0.066c0.4-0.089,0.511-0.444,0.578-1c0.089-0.799,0.089-2.288,0.089-4.02
		V59.733"/>
</g>
</svg>
