<?xml version="1.0" encoding="utf-8"?>
<!-- Generator: Adobe Illustrator 21.0.1, SVG Export Plug-In . SVG Version: 6.00 Build 0)  -->
<svg version="1.1" id="Symbol_Editing_Mode" xmlns="http://www.w3.org/2000/svg" xmlns:xlink="http://www.w3.org/1999/xlink"
	 x="0px" y="0px" width="65px" height="65.007px" viewBox="0 0 65 65.007" enable-background="new 0 0 65 65.007"
	 xml:space="preserve">
<g id="GLA_x5F_Logo">
</g>
<g>
	<g>
		
			<radialGradient id="SVGID_1_" cx="33.1992" cy="66.0012" r="37.9104" gradientTransform="matrix(0.8025 0 0 -0.8025 0 67.4066)" gradientUnits="userSpaceOnUse">
			<stop  offset="0" style="stop-color:#1B9BD4"/>
			<stop  offset="1" style="stop-color:#234392"/>
		</radialGradient>
		<path fill="url(#SVGID_1_)" d="M30.369,30.78c-0.289,0.836-0.575,1.669-0.861,2.494c-0.426,1.229-0.845,2.484-1.268,3.746
			c1.932-0.098,3.876-0.129,5.805-0.15c0.035-0.175,0.07-0.355,0.104-0.528c0.366-1.81,0.707-3.674,1.127-5.508
			c-0.285-0.006-0.568-0.01-0.85-0.014C33.091,30.804,31.73,30.777,30.369,30.78z"/>
		
			<radialGradient id="SVGID_2_" cx="33.199" cy="66.0019" r="37.9107" gradientTransform="matrix(0.8025 0 0 -0.8025 0 67.4066)" gradientUnits="userSpaceOnUse">
			<stop  offset="0" style="stop-color:#1B9BD4"/>
			<stop  offset="1" style="stop-color:#234392"/>
		</radialGradient>
		<path fill="url(#SVGID_2_)" d="M52.531,7.02c0.13,0.965-0.273,1.967-1.139,2.548c-1.214,0.812-2.853,0.487-3.667-0.727
			c-0.179-0.268-0.295-0.559-0.366-0.855c-1.737,0.562-3.547,1.46-5.495,2.97c-5.609,4.353-8.45,11.171-10.857,17.994
			c1.407,0.06,2.811,0.148,4.191,0.217c0.161,0.007,0.323,0.016,0.485,0.024c0.901-3.408,2.203-6.621,4.636-9.078
			c1.234-1.247,2.459-2.081,3.674-2.653c-0.17-0.827,0.1-1.719,0.799-2.291c1.002-0.825,2.483-0.679,3.307,0.324
			c0.194,0.24,0.331,0.504,0.419,0.781c0.049,0.153,0.083,0.309,0.1,0.467c0.079,0.758-0.211,1.538-0.846,2.058
			c-0.972,0.802-2.391,0.678-3.227-0.25c-0.526,0.364-1.058,0.789-1.601,1.302c-2.664,2.517-4.17,5.88-5.263,9.443
			c4.43,0.219,9.197,0.299,13.191-1.506c-0.595-1.018-0.347-2.339,0.625-3.054c1.01-0.745,2.411-0.55,3.195,0.409
			c0.025,0.03,0.055,0.055,0.079,0.087c0.074,0.101,0.13,0.207,0.185,0.315c0.52,1.005,0.257,2.266-0.683,2.958
			c-0.835,0.615-1.936,0.585-2.739,0.016c-4.164,2.468-9.329,2.463-14.309,2.358c-0.468,1.707-0.867,3.438-1.273,5.126
			c-0.068,0.282-0.135,0.565-0.201,0.85c0.442-0.006,0.882-0.01,1.32-0.018c7.756-0.132,16.803,0.102,23.632-4.068
			c-0.764-1.106-0.587-2.629,0.46-3.512c1.061-0.893,2.61-0.799,3.57,0.165c0.045,0.045,0.093,0.085,0.136,0.131
			c-0.83-9.195-5.486-17.278-12.364-22.657C52.511,6.934,52.527,6.977,52.531,7.02z"/>
		
			<radialGradient id="SVGID_3_" cx="33.1991" cy="66.0009" r="37.9092" gradientTransform="matrix(0.8025 0 0 -0.8025 0 67.4066)" gradientUnits="userSpaceOnUse">
			<stop  offset="0" style="stop-color:#1B9BD4"/>
			<stop  offset="1" style="stop-color:#234392"/>
		</radialGradient>
		<path fill="url(#SVGID_3_)" d="M12.345,57.93c-0.571-1.168-0.216-2.602,0.894-3.349c1.074-0.72,2.484-0.543,3.357,0.348
			c4.08-3.837,6.4-9.295,8.204-14.762c-4.785,0.656-9.381,1.914-13.266,4.652c0.112,0.863-0.197,1.762-0.912,2.364
			c-0.684,0.576-1.573,0.742-2.376,0.531c-0.51-0.134-0.982-0.416-1.347-0.847c-0.002,0-0.002-0.001-0.002-0.001
			c-0.939-1.117-0.798-2.784,0.319-3.725c0.891-0.749,2.124-0.801,3.068-0.23c0.611-0.534,1.273-1.056,2.022-1.566
			c3.949-2.687,8.603-3.733,13.441-4.159c0.38-1.245,0.747-2.476,1.112-3.671c0.27-0.883,0.538-1.777,0.805-2.674
			c-3.337,0.153-6.609,0.663-9.489,2.163c0.192,0.875-0.127,1.821-0.894,2.389c-0.773,0.569-1.777,0.589-2.559,0.139
			c-0.271-0.156-0.516-0.369-0.713-0.636c-0.021-0.028-0.031-0.059-0.053-0.087c-0.694-1.034-0.464-2.439,0.55-3.185
			c0.839-0.618,1.947-0.584,2.752-0.006c0.238-0.16,0.482-0.32,0.745-0.473c3.069-1.805,6.621-2.248,10.253-2.257
			c2.064-6.758,4.486-13.518,9.788-17.923c3.266-2.714,6.333-3.787,9.306-4.18c0.145-0.636,0.517-1.219,1.1-1.611
			c0.315-0.21,0.657-0.342,1.007-0.403C44.522,1.746,38.717,0,32.503,0C14.553,0,0,14.552,0,32.504
			c0,10.358,4.852,19.578,12.4,25.529C12.382,57.999,12.36,57.965,12.345,57.93z"/>
		
			<radialGradient id="SVGID_4_" cx="44.8083" cy="36.881" r="41.1621" gradientTransform="matrix(0.8025 0 0 -0.8025 0 67.4066)" gradientUnits="userSpaceOnUse">
			<stop  offset="0.0165" style="stop-color:#CCDB2C"/>
			<stop  offset="0.9831" style="stop-color:#2A9145"/>
		</radialGradient>
		<path fill="url(#SVGID_4_)" d="M64.571,33.291c-0.833,0.704-1.975,0.802-2.892,0.341c-0.244,0.19-0.497,0.381-0.759,0.565
			c-6.925,4.876-16.324,4.653-24.814,5.11c-0.311,0.018-0.625,0.031-0.936,0.05c-1.054,4.491-2.303,9.052-5.316,12.324
			c0.534,0.97,0.32,2.212-0.566,2.941c-0.935,0.768-2.277,0.682-3.124-0.144c-0.062-0.059-0.127-0.114-0.182-0.18
			c-0.06-0.074-0.103-0.153-0.153-0.23c-0.634-0.991-0.453-2.313,0.477-3.077c0.852-0.698,2.041-0.693,2.886-0.064
			c2.431-3.23,3.503-7.451,4.334-11.486c-2.082,0.111-4.183,0.237-6.267,0.443c-2.124,6.035-4.693,11.941-9.519,15.824
			c-0.164,0.131-0.327,0.25-0.491,0.373c0.29,1.066-0.097,2.242-1.066,2.89c-0.611,0.412-1.327,0.52-1.995,0.381
			c5.217,3.565,11.523,5.653,18.316,5.653c17.846,0,32.328-14.383,32.496-32.189C64.876,32.987,64.739,33.149,64.571,33.291z"/>
	</g>
</g>
</svg>
