<?xml version="1.0" encoding="utf-8"?>
<!-- Generator: Adobe Illustrator 16.0.0, SVG Export Plug-In . SVG Version: 6.00 Build 0)  -->
<!DOCTYPE svg PUBLIC "-//W3C//DTD SVG 1.1//EN" "http://www.w3.org/Graphics/SVG/1.1/DTD/svg11.dtd">
<svg version="1.1" id="Шар_1" xmlns="http://www.w3.org/2000/svg" xmlns:xlink="http://www.w3.org/1999/xlink" x="0px" y="0px"
	 width="129.397px" height="124.656px" viewBox="0 0 129.397 124.656" enable-background="new 0 0 129.397 124.656"
	 xml:space="preserve">
<g>
	<defs>
		<rect id="SVGID_1_" y="0" width="129.397" height="124.656"/>
	</defs>
	<clipPath id="SVGID_2_">
		<use xlink:href="#SVGID_1_"  overflow="visible"/>
	</clipPath>
	<g clip-path="url(#SVGID_2_)">
		<path fill="#589E2D" d="M29.852,124.656c-0.436,0-0.869-0.189-1.165-0.554c-0.078-0.096-7.896-9.71-18.34-21.929
			C-0.501,89.484-0.018,78.935,0.008,78.491l0.704-46.185c0.065-3.652,3.087-6.62,6.736-6.62c3.714,0,6.736,3.023,6.736,6.738v35.18
			c0,3.302,1.387,6.485,3.805,8.734L33.521,90.79c1.194,1.113,3.076,1.123,4.284,0.026c1.277-1.161,1.383-3.154,0.237-4.444
			l-12.978-14.6c-2.292-2.579-2.121-6.454,0.39-8.822c1.245-1.173,2.876-1.784,4.58-1.723c1.708,0.063,3.286,0.792,4.44,2.053
			C40.438,69.793,51.03,81.412,54.95,86.06c5.453,6.462,5.205,12.765,5.145,13.603v23.494c0,0.828-0.671,1.5-1.5,1.5
			s-1.5-0.672-1.5-1.5V99.603c0-0.048,0.002-0.097,0.007-0.145c0.02-0.223,0.433-5.685-4.444-11.464
			c-3.886-4.607-14.447-16.191-20.396-22.688c-0.608-0.664-1.438-1.048-2.338-1.081c-0.902-0.021-1.757,0.29-2.412,0.907
			c-1.323,1.248-1.413,3.289-0.206,4.647l12.978,14.6c2.233,2.512,2.026,6.396-0.461,8.656c-2.351,2.138-6.017,2.117-8.346-0.049
			L15.945,78.536c-3.025-2.815-4.761-6.8-4.761-10.932v-35.18c0-2.062-1.676-3.738-3.736-3.738c-2.024,0-3.7,1.646-3.736,3.67
			L3.006,78.602c-0.007,0.157-0.382,9.922,9.621,21.623c10.47,12.248,18.31,21.89,18.388,21.985c0.522,0.644,0.425,1.588-0.218,2.11
			C30.519,124.546,30.185,124.656,29.852,124.656z"/>
	</g>
	<g clip-path="url(#SVGID_2_)">
		<path fill="#589E2D" d="M99.545,124.656c-0.332,0-0.667-0.11-0.945-0.336c-0.643-0.522-0.74-1.467-0.218-2.11
			c0.078-0.096,7.917-9.737,18.388-21.985c10.004-11.701,9.628-21.466,9.623-21.563l-0.708-46.309
			c-0.036-2.02-1.712-3.666-3.735-3.666c-2.061,0-3.737,1.677-3.737,3.738v35.18c0,4.132-1.734,8.116-4.76,10.931L97.919,92.987
			c-2.326,2.167-5.992,2.188-8.346,0.048c-2.487-2.261-2.693-6.145-0.459-8.656L102.09,69.78c1.208-1.359,1.118-3.4-0.204-4.646
			c-0.656-0.619-1.512-0.925-2.413-0.908c-0.899,0.033-1.729,0.417-2.337,1.081c-4.784,5.223-16.348,17.889-20.397,22.688
			c-4.925,5.837-4.449,11.408-4.443,11.464c0.005,0.048,0.007,0.097,0.007,0.145v23.554c0,0.828-0.672,1.5-1.5,1.5
			s-1.5-0.672-1.5-1.5V99.662c-0.061-0.838-0.308-7.141,5.144-13.603c4.085-4.842,15.682-17.543,20.478-22.779
			c1.154-1.261,2.731-1.99,4.439-2.053c1.723-0.057,3.337,0.55,4.581,1.723c2.511,2.366,2.683,6.242,0.389,8.822l-12.976,14.6
			c-1.147,1.29-1.041,3.283,0.235,4.443c1.206,1.099,3.089,1.089,4.284-0.024l15.533-14.452c2.417-2.249,3.803-5.433,3.803-8.734
			v-35.18c0-3.715,3.022-6.738,6.737-6.738c3.647,0,6.669,2.968,6.735,6.616l0.706,46.255c0.023,0.378,0.508,10.928-10.34,23.617
			c-10.445,12.219-18.263,21.833-18.341,21.929C100.414,124.467,99.981,124.656,99.545,124.656z"/>
	</g>
	<g clip-path="url(#SVGID_2_)">
		<path fill="#589E2D" d="M64.379,70.18c-10.59-0.003-42.31-24.544-42.31-47.201C22.07,10.309,32.378,0,45.048,0
			c8.094,0,15.522,4.262,19.651,11.07C68.827,4.263,76.256,0,84.349,0c12.671,0,22.979,10.308,22.979,22.978
			c0,12.025-12.415,25.547-17.752,30.803c-9.506,9.359-20.015,16.254-24.988,16.395L64.379,70.18z M45.048,3
			C34.032,3,25.07,11.962,25.07,22.979c0,20.184,29.996,44.199,39.311,44.201l0.123-0.001c8.097-0.229,39.825-26.324,39.825-44.2
			C104.328,11.962,95.365,3,84.349,3C76.444,3,69.27,7.677,66.07,14.915c-0.239,0.543-0.777,0.894-1.372,0.894l0,0
			c-0.594,0-1.132-0.351-1.372-0.894C60.128,7.677,52.953,3,45.048,3z"/>
	</g>
	<g clip-path="url(#SVGID_2_)">
		<path fill="#589E2D" d="M31.488,25.802c-0.829,0-1.5-0.671-1.5-1.5c0-8.834,7.187-16.021,16.02-16.021c0.829,0,1.5,0.671,1.5,1.5
			s-0.671,1.5-1.5,1.5c-7.179,0-13.02,5.841-13.02,13.021C32.988,25.13,32.317,25.802,31.488,25.802z"/>
	</g>
</g>
</svg>
