<?xml version="1.0" encoding="utf-8"?>
<!-- Generator: Adobe Illustrator 15.0.0, SVG Export Plug-In . SVG Version: 6.00 Build 0)  -->
<!DOCTYPE svg PUBLIC "-//W3C//DTD SVG 1.1//EN" "http://www.w3.org/Graphics/SVG/1.1/DTD/svg11.dtd">
<svg version="1.1" id="Шар_1" xmlns="http://www.w3.org/2000/svg" xmlns:xlink="http://www.w3.org/1999/xlink" x="0px" y="0px"
	 width="656.133px" height="136.657px" viewBox="0 0 656.133 136.657" enable-background="new 0 0 656.133 136.657"
	 xml:space="preserve">
<g>
	<path fill="none" d="M177.184,126.639c0,1.675,1.097,2.426,2.367,2.426c1.848,0,3.031-1.155,3.436-2.339
		c0.086-0.26,0.115-0.549,0.115-0.809v-2.425C180.331,123.435,177.184,123.925,177.184,126.639z"/>
	<path fill="none" d="M441.267,73.647c1.424,1.495,3.104,2.673,5.036,3.534c1.922,0.865,4.018,1.299,6.271,1.299
		c2.193,0,4.269-0.42,6.227-1.248c1.958-0.832,3.667-1.977,5.141-3.436c1.457-1.459,2.598-3.171,3.435-5.134
		c0.823-1.955,1.239-4.037,1.239-6.22c0-2.198-0.396-4.274-1.201-6.237c-0.79-1.955-1.902-3.676-3.329-5.172
		c-1.426-1.497-3.11-2.675-5.034-3.545c-1.925-0.86-3.985-1.291-6.175-1.291c-2.188,0-4.272,0.412-6.228,1.244
		c-1.956,0.832-3.67,1.955-5.129,3.385c-1.463,1.431-2.629,3.124-3.484,5.079c-0.865,1.964-1.299,4.04-1.299,6.238
		c0,2.188,0.402,4.283,1.191,6.275C438.726,70.411,439.845,72.151,441.267,73.647z"/>
	<path fill="none" d="M388.207,73.76c1.46,1.496,3.182,2.646,5.178,3.479c1.991,0.821,4.157,1.242,6.477,1.242
		c2.259,0,4.35-0.447,6.275-1.337c1.93-0.897,3.6-2.085,5.041-3.58c1.429-1.486,2.535-3.213,3.334-5.163
		c0.798-1.955,1.192-4.031,1.192-6.21c0-2.189-0.433-4.256-1.297-6.205c-0.858-1.96-2.022-3.661-3.487-5.121
		c-1.459-1.458-3.171-2.609-5.129-3.478c-1.961-0.861-4.041-1.286-6.225-1.286c-2.194,0-4.27,0.406-6.229,1.239
		c-1.96,0.827-3.671,1.973-5.131,3.423c-1.468,1.468-2.626,3.165-3.497,5.115c-0.86,1.959-1.285,4.027-1.285,6.21
		c0,2.319,0.425,4.475,1.285,6.463C385.581,70.533,386.739,72.272,388.207,73.76z"/>
	<path fill="none" d="M213.383,73.647c1.422,1.495,3.105,2.673,5.032,3.534c1.932,0.865,4.011,1.299,6.279,1.299
		c2.193,0,4.261-0.42,6.224-1.248c1.964-0.832,3.67-1.977,5.129-3.436c1.464-1.459,2.615-3.171,3.438-5.134
		c0.831-1.955,1.249-4.037,1.249-6.22c0-2.198-0.398-4.274-1.198-6.237c-0.795-1.955-1.904-3.676-3.343-5.172
		c-1.422-1.497-3.1-2.675-5.023-3.545c-1.926-0.86-3.993-1.291-6.176-1.291c-2.193,0-4.268,0.412-6.233,1.244
		c-1.964,0.832-3.666,1.955-5.126,3.385c-1.467,1.431-2.626,3.124-3.497,5.079c-0.866,1.964-1.291,4.04-1.291,6.238
		c0,2.188,0.408,4.283,1.202,6.275C210.84,70.411,211.953,72.151,213.383,73.647z"/>
	<path fill="none" d="M230.928,129.064c1.847,0,3.031-1.155,3.436-2.339c0.086-0.26,0.115-0.549,0.115-0.809v-2.425
		c-2.771-0.058-5.918,0.433-5.918,3.146C228.561,128.313,229.658,129.064,230.928,129.064z"/>
	<path fill="none" d="M312.784,118.296c-2.425,0-4.157,2.05-4.157,5.312c0,2.714,1.414,5.023,4.128,5.023
		c1.588,0,3.002-0.981,3.522-2.627c0.145-0.404,0.203-0.895,0.203-1.356v-2.512c0-0.404-0.029-0.78-0.145-1.126
		C315.873,119.508,314.66,118.296,312.784,118.296z"/>
	<path fill="none" d="M496.046,73.9c1.454,1.457,3.151,2.607,5.072,3.432c1.922,0.836,3.948,1.244,6.08,1.244
		c2.269,0,4.39-0.432,6.368-1.291c1.996-0.861,3.726-2.039,5.181-3.54c1.473-1.492,2.614-3.235,3.445-5.223
		c0.829-2.002,1.245-4.125,1.245-6.378c0-2.198-0.439-4.255-1.294-6.182c-0.862-1.93-2.018-3.6-3.448-5.031
		c-1.422-1.431-3.104-2.553-5.074-3.386c-1.953-0.832-4.034-1.253-6.222-1.253c-2.265,0-4.373,0.44-6.333,1.3
		c-1.963,0.86-3.655,2.039-5.082,3.535c-1.433,1.497-2.553,3.241-3.391,5.237c-0.832,1.988-1.243,4.12-1.243,6.374
		c0,2.192,0.411,4.233,1.243,6.13C493.432,70.763,494.567,72.437,496.046,73.9z"/>
	<path fill="none" d="M619.574,50.979c-1.431-1.459-3.105-2.601-5.035-3.433c-1.934-0.832-3.988-1.253-6.187-1.253
		c-2.247,0-4.372,0.439-6.368,1.3c-1.998,0.86-3.713,2.03-5.181,3.488c-1.464,1.463-2.614,3.189-3.438,5.182
		c-0.831,1.991-1.24,4.114-1.24,6.377c0,2.189,0.409,4.274,1.24,6.229c0.823,1.955,1.974,3.657,3.438,5.078
		c1.468,1.43,3.169,2.581,5.134,3.44c1.963,0.861,4.029,1.301,6.229,1.301c2.254,0,4.367-0.439,6.327-1.301
		c1.953-0.859,3.661-2.048,5.118-3.538c1.478-1.492,2.623-3.24,3.446-5.232c0.833-1.992,1.249-4.116,1.249-6.38
		c0-2.187-0.436-4.244-1.295-6.181C622.146,54.14,620.996,52.441,619.574,50.979z"/>
	<path fill="#FFFFFF" d="M160.723,51.081c1.402-1.458,3.058-2.628,4.985-3.488c1.927-0.86,4.011-1.3,6.279-1.3
		c2.732,0,5.247,0.664,7.572,1.992c2.322,1.403,4.22,3.161,5.676,5.288h11.362v-17.74h-10.455v5.083
		c-2.002-2.123-4.293-3.769-6.885-4.929c-2.589-1.159-5.376-1.744-8.368-1.744c-3.787,0-7.305,0.777-10.559,2.343
		c-3.249,1.562-6.098,3.638-8.515,6.219c-2.437,2.599-4.324,5.602-5.68,9.024c-1.376,3.423-2.04,6.958-2.04,10.615
		c0,3.919,0.739,7.566,2.235,10.956c1.497,3.39,3.512,6.345,6.024,8.87c2.523,2.526,5.499,4.512,8.916,5.975
		c3.418,1.459,7.064,2.193,10.915,2.193c2.921,0,5.774-0.486,8.569-1.449c2.797-0.959,5.388-2.285,7.772-3.983
		c2.389-1.688,4.465-3.737,6.228-6.125c1.658-2.259,2.887-4.703,3.681-7.322c0.186,0.536,0.383,1.068,0.603,1.594
		c1.422,3.423,3.406,6.405,5.926,8.968c2.528,2.553,5.464,4.584,8.818,6.08c3.352,1.486,6.985,2.238,10.913,2.238
		c3.91,0,7.571-0.752,10.957-2.238c3.389-1.496,6.339-3.527,8.865-6.08c2.529-2.563,4.518-5.545,5.975-8.968
		c1.474-3.422,2.194-7.088,2.194-11.007c0-3.792-0.72-7.379-2.194-10.769c-1.457-3.38-3.431-6.341-5.923-8.871
		c-2.493-2.52-5.419-4.525-8.763-6.022c-3.354-1.492-6.963-2.24-10.811-2.24c-3.859,0-7.496,0.734-10.914,2.193
		c-3.427,1.459-6.392,3.451-8.913,5.976c-2.535,2.525-4.535,5.495-6.031,8.922c-1.492,3.413-2.24,7.051-2.24,10.903
		c0,3.102,0.467,6.055,1.389,8.872h-13.248c-1.133,2.323-2.893,4.138-5.284,5.427c-2.385,1.297-4.878,1.945-7.466,1.945
		c-2.194,0-4.275-0.42-6.235-1.248c-1.953-0.832-3.665-1.959-5.133-3.384c-1.464-1.436-2.6-3.119-3.437-5.088
		c-0.828-1.959-1.239-4.064-1.239-6.317c0-2.198,0.396-4.273,1.196-6.237C158.239,54.251,159.334,52.544,160.723,51.081z
		 M210.138,55.906c0.871-1.955,2.03-3.648,3.497-5.079c1.46-1.43,3.162-2.553,5.126-3.385c1.965-0.832,4.04-1.244,6.233-1.244
		c2.183,0,4.25,0.431,6.176,1.291c1.923,0.87,3.601,2.048,5.023,3.545c1.439,1.496,2.548,3.217,3.343,5.172
		c0.8,1.963,1.198,4.039,1.198,6.237c0,2.183-0.418,4.265-1.249,6.22c-0.823,1.963-1.974,3.675-3.438,5.134
		c-1.459,1.459-3.165,2.604-5.129,3.436c-1.963,0.828-4.031,1.248-6.224,1.248c-2.268,0-4.347-0.434-6.279-1.299
		c-1.927-0.861-3.61-2.039-5.032-3.534c-1.43-1.496-2.543-3.236-3.334-5.228c-0.794-1.992-1.202-4.087-1.202-6.275
		C208.847,59.946,209.272,57.871,210.138,55.906z"/>
	<path fill="#FFFFFF" d="M251.807,35.832v11.363h6.863v30.487h-6.863v11.359h25.9V77.682h-6.875V64.229
		c0-2.523,0.261-4.834,0.791-6.92c0.534-2.09,1.801-4.003,3.788-5.727c1.533-1.329,3.173-2.278,4.928-2.839
		c1.763-0.57,3.61-0.917,5.531-1.052V35.239c-3.45,0.136-6.583,0.981-9.418,2.544c-2.813,1.552-4.989,3.932-6.517,7.116v-9.067
		H251.807z"/>
	<path fill="#FFFFFF" d="M290.073,77.682v11.359h25.897V77.682h-6.866V62.237c0-1.791,0.1-3.717,0.295-5.779
		c0.197-2.058,0.866-3.853,1.992-5.378c1.127-1.529,2.554-2.655,4.293-3.389c1.72-0.735,3.517-1.09,5.372-1.09
		c1.795,0,3.522,0.346,5.178,1.038c1.654,0.701,3.063,1.777,4.184,3.24c1.063,1.459,1.688,3.007,1.848,4.634
		c0.164,1.628,0.248,3.273,0.248,4.933v17.235h-6.869v11.359h25.899V77.682h-6.869V56.855c0-1.519-0.037-2.969-0.117-4.325
		c-0.056-1.366-0.219-2.679-0.482-3.946c-0.27-1.254-0.714-2.503-1.351-3.732c-0.632-1.23-1.477-2.441-2.534-3.638
		c-1.935-2.123-4.24-3.75-6.924-4.876c-2.695-1.137-5.505-1.703-8.417-1.703c-3.329,0-6.387,0.721-9.165,2.146
		c-2.805,1.432-4.983,3.638-6.58,6.626v-7.575h-19.031v11.363h6.869v30.486H290.073z"/>
	<path fill="#FFFFFF" d="M364.89,77.682v11.359h19.03v-8.053c2.056,2.955,4.662,5.166,7.785,6.641
		c3.133,1.467,6.49,2.205,10.092,2.205c3.529,0,6.976-0.793,10.332-2.389c3.358-1.595,6.207-3.684,8.544-6.279
		c2.325-2.516,4.106-5.406,5.336-8.669c0.114-0.301,0.218-0.604,0.321-0.906c0.183,0.524,0.375,1.046,0.59,1.561
		c1.432,3.423,3.4,6.405,5.936,8.968c2.52,2.553,5.452,4.584,8.809,6.08c3.357,1.486,6.995,2.238,10.91,2.238
		c3.928,0,7.569-0.752,10.975-2.238c3.384-1.496,6.33-3.527,8.858-6.08c2.521-2.563,4.509-5.545,5.973-8.968
		c0.504-1.179,0.916-2.39,1.247-3.627c0.337,1.339,0.775,2.646,1.315,3.922c1.421,3.356,3.372,6.298,5.829,8.823
		c2.451,2.525,5.347,4.512,8.661,5.975c3.324,1.459,6.884,2.193,10.665,2.193c3.526,0,6.786-0.678,9.773-2.043
		c2.979-1.355,5.434-3.545,7.368-6.527v7.174h22.23v-11.36h-9.864V47.195h3.454V35.832h-15.82v7.576
		c-1.854-2.923-4.226-5.149-7.084-6.673c-2.851-1.534-6.003-2.291-9.458-2.291c-3.919,0-7.566,0.743-10.951,2.239
		c-3.395,1.497-6.331,3.54-8.828,6.121c-2.488,2.6-4.47,5.602-5.93,9.024c-0.499,1.171-0.906,2.37-1.234,3.591
		c-0.35-1.377-0.806-2.726-1.374-4.043c-1.464-3.38-3.438-6.341-5.929-8.871c-2.483-2.52-5.416-4.525-8.767-6.022
		c-3.35-1.492-6.954-2.24-10.809-2.24c-3.856,0-7.485,0.734-10.903,2.193c-3.424,1.459-6.397,3.451-8.922,5.976
		c-2.524,2.525-4.537,5.495-6.033,8.922c-0.271,0.623-0.51,1.256-0.731,1.894c-0.176-0.486-0.362-0.969-0.567-1.445
		c-1.436-3.329-3.403-6.228-5.892-8.725c-2.504-2.488-5.42-4.442-8.744-5.878c-3.334-1.426-6.887-2.146-10.68-2.146
		c-3.395,0-6.509,0.72-9.338,2.146c-2.833,1.436-5.214,3.54-7.146,6.326V17.9h-19.03v11.353h6.878v48.429H364.89z M492.594,56.364
		c0.838-1.996,1.958-3.74,3.391-5.237c1.427-1.496,3.119-2.675,5.082-3.535c1.96-0.86,4.068-1.3,6.333-1.3
		c2.188,0,4.269,0.421,6.222,1.253c1.97,0.833,3.652,1.955,5.074,3.386c1.431,1.431,2.586,3.101,3.448,5.031
		c0.854,1.927,1.294,3.984,1.294,6.182c0,2.253-0.416,4.376-1.245,6.378c-0.831,1.988-1.973,3.731-3.445,5.223
		c-1.455,1.501-3.185,2.679-5.181,3.54c-1.979,0.859-4.1,1.291-6.368,1.291c-2.132,0-4.158-0.408-6.08-1.244
		c-1.921-0.824-3.618-1.975-5.072-3.432c-1.479-1.464-2.614-3.138-3.452-5.032c-0.832-1.897-1.243-3.938-1.243-6.13
		C491.351,60.484,491.762,58.352,492.594,56.364z M438.035,55.906c0.855-1.955,2.021-3.648,3.484-5.079
		c1.459-1.43,3.173-2.553,5.129-3.385c1.955-0.832,4.039-1.244,6.228-1.244c2.189,0,4.25,0.431,6.175,1.291
		c1.924,0.87,3.608,2.048,5.034,3.545c1.427,1.496,2.539,3.217,3.329,5.172c0.805,1.963,1.201,4.039,1.201,6.237
		c0,2.183-0.416,4.265-1.239,6.22c-0.837,1.963-1.978,3.675-3.435,5.134c-1.474,1.459-3.183,2.604-5.141,3.436
		c-1.958,0.828-4.033,1.248-6.227,1.248c-2.254,0-4.35-0.434-6.271-1.299c-1.932-0.861-3.612-2.039-5.036-3.534
		c-1.422-1.496-2.541-3.236-3.339-5.228c-0.789-1.992-1.191-4.087-1.191-6.275C436.736,59.946,437.17,57.871,438.035,55.906z
		 M384.71,55.878c0.871-1.95,2.029-3.647,3.497-5.115c1.46-1.45,3.171-2.596,5.131-3.423c1.959-0.833,4.034-1.239,6.229-1.239
		c2.184,0,4.264,0.425,6.225,1.286c1.958,0.869,3.67,2.02,5.129,3.478c1.465,1.46,2.629,3.161,3.487,5.121
		c0.864,1.949,1.297,4.016,1.297,6.205c0,2.179-0.395,4.255-1.192,6.21c-0.799,1.95-1.905,3.676-3.334,5.163
		c-1.441,1.495-3.111,2.683-5.041,3.58c-1.926,0.89-4.017,1.337-6.275,1.337c-2.319,0-4.485-0.421-6.477-1.242
		c-1.996-0.833-3.718-1.982-5.178-3.479c-1.468-1.487-2.626-3.227-3.497-5.208c-0.86-1.988-1.285-4.144-1.285-6.463
		C383.425,59.905,383.85,57.837,384.71,55.878z"/>
	<path fill="#FFFFFF" d="M543.286,35.832v11.363h10.077v30.487h-3.666v11.359H572.4V77.682h-6.884V64.229
		c0-2.523,0.275-4.834,0.793-6.92c0.541-2.09,1.811-4.003,3.793-5.727c1.534-1.329,3.174-2.278,4.935-2.839
		c1.751-0.57,3.604-0.917,5.522-1.052V35.239c-3.442,0.136-6.594,0.981-9.409,2.544c-2.833,1.552-4.998,3.932-6.527,7.116v-9.067
		H543.286z"/>
	<path fill="#FFFFFF" d="M616.18,37.18c-3.087-1.496-6.316-2.241-9.707-2.241c-3.788,0-7.313,0.73-10.558,2.194
		c-3.265,1.463-6.121,3.456-8.572,5.98c-2.46,2.516-4.39,5.453-5.783,8.768c-1.394,3.32-2.095,6.84-2.095,10.563
		c0,3.714,0.716,7.22,2.15,10.503c1.416,3.291,3.367,6.2,5.826,8.724c2.45,2.516,5.326,4.518,8.614,5.977
		c3.292,1.459,6.798,2.188,10.516,2.188c3.587,0,6.888-0.708,9.909-2.141c3.02-1.422,5.535-3.629,7.527-6.621v7.97h19.035v-11.36
		h-6.884V17.9h-19.133v11.353h6.981v14.355C621.876,40.817,619.267,38.675,616.18,37.18z M624.307,62.236
		c0,2.264-0.416,4.388-1.249,6.38c-0.823,1.992-1.969,3.74-3.446,5.232c-1.457,1.49-3.165,2.679-5.118,3.538
		c-1.96,0.861-4.073,1.301-6.327,1.301c-2.199,0-4.266-0.439-6.229-1.301c-1.965-0.859-3.666-2.011-5.134-3.44
		c-1.464-1.421-2.614-3.123-3.438-5.078c-0.831-1.955-1.24-4.04-1.24-6.229c0-2.263,0.409-4.386,1.24-6.377
		c0.823-1.993,1.974-3.719,3.438-5.182c1.468-1.458,3.183-2.628,5.181-3.488c1.996-0.861,4.121-1.3,6.368-1.3
		c2.198,0,4.253,0.421,6.187,1.253c1.93,0.832,3.604,1.974,5.035,3.433c1.422,1.463,2.572,3.161,3.438,5.077
		C623.871,57.993,624.307,60.049,624.307,62.236z"/>
	<path fill="#FAFAFB" d="M172.367,130.623v-8.228c0-4.851-2.743-6.063-4.619-6.063c-1.328,0-2.223,0.346-3.061,0.981
		c-0.577,0.433-1.154,1.01-1.588,1.818h-0.057c-0.606-1.646-2.05-2.8-3.926-2.8c-2.339,0-3.638,1.241-4.417,2.569h-0.087
		l-0.115-2.252h-2.223c0.057,1.154,0.115,2.31,0.115,3.781v10.191h2.483v-8.43c0-0.434,0.058-0.866,0.202-1.241
		c0.404-1.271,1.588-2.542,3.147-2.542c1.934,0,2.916,1.589,2.916,3.812v8.401h2.482v-8.661c0-0.433,0.087-0.895,0.202-1.27
		c0.463-1.213,1.559-2.282,3.031-2.282c2.022,0,3.032,1.589,3.032,4.303v7.91H172.367z"/>
	<path fill="#FAFAFB" d="M174.644,126.929c0,2.02,1.443,4.012,4.272,4.012c1.992,0,3.522-0.981,4.272-2.078h0.087l0.231,1.761h2.281
		c-0.144-0.953-0.202-2.137-0.202-3.349v-5.226c0-2.801-1.04-5.716-5.341-5.716c-1.761,0-3.464,0.49-4.619,1.212l0.577,1.703
		c0.982-0.664,2.338-1.039,3.666-1.039c2.859-0.028,3.176,2.079,3.176,3.233v0.289C177.645,121.702,174.644,123.55,174.644,126.929z
		 M183.102,123.492v2.425c0,0.26-0.029,0.549-0.115,0.809c-0.405,1.184-1.588,2.339-3.436,2.339c-1.27,0-2.367-0.751-2.367-2.426
		C177.184,123.925,180.331,123.435,183.102,123.492z"/>
	<path fill="#FAFAFB" d="M200.826,130.623v-8.344c0-4.792-3.003-5.946-4.938-5.946c-2.309,0-3.926,1.299-4.619,2.598h-0.058
		l-0.144-2.28h-2.252c0.087,1.154,0.116,2.31,0.116,3.781v10.191h2.541v-8.43c0-0.404,0.057-0.866,0.173-1.184
		c0.462-1.415,1.761-2.6,3.407-2.6c2.396,0,3.233,1.906,3.233,4.158v8.055H200.826z"/>
	<path fill="#FAFAFB" d="M204.142,116.65v8.17c0,4.879,2.627,6.12,4.821,6.12c2.483,0,3.984-1.473,4.62-2.598h0.057l0.144,2.28
		h2.252c-0.086-1.097-0.115-2.367-0.115-3.84V116.65h-2.541v8.545c0,0.491-0.087,0.953-0.23,1.3
		c-0.462,1.154-1.646,2.338-3.35,2.338c-2.28,0-3.117-1.818-3.117-4.475v-7.708H204.142z"/>
	<path fill="#FAFAFB" d="M224.867,111.857c0.75,0,1.241,0.145,1.645,0.318l0.318-1.964c-0.491-0.202-1.242-0.404-2.166-0.404
		c-1.155,0-2.425,0.376-3.377,1.3c-1.184,1.126-1.646,2.916-1.646,4.879v0.664h-1.934v1.934h1.934v12.039h2.541v-12.039h3.349
		v-1.934h-3.378v-0.751C222.153,113.763,222.73,111.857,224.867,111.857z"/>
	<path fill="#FAFAFB" d="M230.292,130.94c1.991,0,3.522-0.981,4.272-2.078h0.087l0.231,1.761h2.282
		c-0.145-0.953-0.203-2.137-0.203-3.349v-5.226c0-2.801-1.04-5.716-5.341-5.716c-1.762,0-3.465,0.49-4.619,1.212l0.577,1.703
		c0.982-0.664,2.338-1.039,3.667-1.039c2.858-0.028,3.175,2.079,3.175,3.233v0.289c-5.399-0.029-8.401,1.818-8.401,5.197
		C226.02,128.948,227.462,130.94,230.292,130.94z M234.479,123.492v2.425c0,0.26-0.029,0.549-0.115,0.809
		c-0.405,1.184-1.589,2.339-3.436,2.339c-1.27,0-2.367-0.751-2.367-2.426C228.561,123.925,231.708,123.435,234.479,123.492z"/>
	<path fill="#FAFAFB" d="M246.803,118.354c1.385,0,2.338,0.347,2.944,0.664l0.578-1.935c-0.693-0.375-2.021-0.75-3.522-0.75
		c-4.562,0-7.506,3.146-7.506,7.448c0,4.272,2.742,7.131,6.957,7.131c1.877,0,3.349-0.491,4.013-0.809l-0.433-1.905
		c-0.722,0.317-1.674,0.664-3.118,0.664c-2.771,0-4.85-1.992-4.85-5.226C241.866,120.75,243.598,118.354,246.803,118.354z"/>
	<path fill="#FAFAFB" d="M259.589,118.584v-1.934h-3.638v-3.349l-2.482,0.779v2.569h-2.166v1.934h2.166v7.593
		c0,1.646,0.288,2.888,0.981,3.667c0.606,0.664,1.559,1.068,2.743,1.068c0.981,0,1.76-0.174,2.251-0.347l-0.115-1.935
		c-0.376,0.115-0.78,0.174-1.472,0.174c-1.415,0-1.906-0.982-1.906-2.714v-7.507H259.589z"/>
	<path fill="#FAFAFB" d="M261.637,116.65v8.17c0,4.879,2.627,6.12,4.821,6.12c2.483,0,3.984-1.473,4.62-2.598h0.057l0.145,2.28
		h2.251c-0.086-1.097-0.115-2.367-0.115-3.84V116.65h-2.541v8.545c0,0.491-0.086,0.953-0.23,1.3
		c-0.462,1.154-1.646,2.338-3.35,2.338c-2.281,0-3.117-1.818-3.117-4.475v-7.708H261.637z"/>
	<path fill="#FAFAFB" d="M279.446,130.623v-7.478c0-0.404,0.029-0.808,0.087-1.184c0.346-1.876,1.616-3.233,3.406-3.233
		c0.347,0,0.607,0.029,0.866,0.058v-2.396c-0.231-0.029-0.433-0.058-0.692-0.058c-1.704,0-3.262,1.184-3.898,3.06h-0.086
		l-0.116-2.742h-2.223c0.086,1.298,0.115,2.713,0.115,4.359v9.613H279.446z"/>
	<rect x="285.737" y="116.65" fill="#FAFAFB" width="2.541" height="13.973"/>
	<path fill="#FAFAFB" d="M287.008,111.136c-0.952,0-1.588,0.693-1.588,1.588c0,0.838,0.606,1.56,1.53,1.56h0.029
		c0.982,0,1.588-0.722,1.588-1.56C288.567,111.829,287.932,111.136,287.008,111.136z"/>
	<path fill="#FAFAFB" d="M303.664,130.623v-8.344c0-4.792-3.002-5.946-4.936-5.946c-2.31,0-3.927,1.299-4.62,2.598h-0.057
		l-0.145-2.28h-2.251c0.086,1.154,0.115,2.31,0.115,3.781v10.191h2.54v-8.43c0-0.404,0.058-0.866,0.174-1.184
		c0.461-1.415,1.761-2.6,3.407-2.6c2.396,0,3.233,1.906,3.233,4.158v8.055H303.664z"/>
	<path fill="#FAFAFB" d="M312.003,134.665c-1.731,0-3.174-0.52-4.098-1.126l-0.636,1.963c1.126,0.751,2.974,1.154,4.648,1.154
		c1.761,0,3.724-0.433,5.109-1.674c1.329-1.241,1.993-3.176,1.993-6.41v-8.111c0-1.675,0.029-2.829,0.115-3.811h-2.251l-0.087,2.107
		h-0.057c-0.636-1.185-1.935-2.425-4.36-2.425c-3.233,0-6.322,2.655-6.322,7.391c0,3.896,2.483,6.842,5.946,6.842
		c2.166,0,3.696-1.039,4.447-2.339h0.057v1.53C316.507,133.308,314.603,134.665,312.003,134.665z M316.479,124.647
		c0,0.462-0.058,0.952-0.203,1.356c-0.52,1.646-1.934,2.627-3.522,2.627c-2.714,0-4.128-2.31-4.128-5.023
		c0-3.262,1.732-5.312,4.157-5.312c1.876,0,3.089,1.212,3.551,2.714c0.116,0.346,0.145,0.722,0.145,1.126V124.647z"/>
	<rect x="327.878" y="116.65" fill="#FAFAFB" width="2.541" height="13.973"/>
	<path fill="#FAFAFB" d="M329.148,111.136c-0.953,0-1.588,0.693-1.588,1.588c0,0.838,0.607,1.56,1.531,1.56h0.028
		c0.981,0,1.588-0.722,1.588-1.56C330.707,111.829,330.071,111.136,329.148,111.136z"/>
	<path fill="#FAFAFB" d="M345.806,130.623v-8.344c0-4.792-3.004-5.946-4.938-5.946c-2.309,0-3.927,1.299-4.619,2.598h-0.059
		l-0.144-2.28h-2.252c0.086,1.154,0.114,2.31,0.114,3.781v10.191h2.542v-8.43c0-0.404,0.058-0.866,0.173-1.184
		c0.462-1.415,1.761-2.6,3.406-2.6c2.396,0,3.233,1.906,3.233,4.158v8.055H345.806z"/>
	<path fill="#FAFAFB" d="M355.704,118.354c1.385,0,2.338,0.347,2.944,0.664l0.577-1.935c-0.692-0.375-2.021-0.75-3.521-0.75
		c-4.561,0-7.507,3.146-7.507,7.448c0,4.272,2.743,7.131,6.958,7.131c1.876,0,3.349-0.491,4.013-0.809l-0.433-1.905
		c-0.722,0.317-1.676,0.664-3.118,0.664c-2.771,0-4.851-1.992-4.851-5.226C350.767,120.75,352.499,118.354,355.704,118.354z"/>
	<path fill="#FAFAFB" d="M362.225,130.94c1.04,0,1.731-0.779,1.731-1.818c0-1.068-0.691-1.819-1.702-1.819s-1.732,0.78-1.732,1.819
		s0.693,1.818,1.675,1.818H362.225z"/>
	<polygon fill="#FFFFFF" points="647.051,11.911 647.051,6.237 648.661,6.237 648.661,5.475 644.63,5.475 644.63,6.237 
		646.239,6.237 646.239,11.911 	"/>
	<polygon fill="#FFFFFF" points="652.703,10.336 650.087,5.475 649.273,5.475 649.273,11.911 650.087,11.911 650.087,7.143 
		650.104,7.143 652.703,11.979 655.303,7.143 655.32,7.143 655.32,11.911 656.132,11.911 656.132,5.475 655.32,5.475 	"/>
	<path fill="#FFFFFF" d="M8.203,44.147c-16.168,26.62-7.697,61.306,18.929,77.476c26.62,16.178,61.311,7.695,77.475-18.93
		c11.981-19.716,10.421-43.858-2.007-61.627L90.143,55.613c6.037,11.458,6.082,25.707-1.129,37.579
		c-10.924,18.004-34.379,23.727-52.372,12.795C18.655,95.059,12.926,71.608,23.857,53.615c7.826-12.887,22.078-19.478,36.148-18.162
		L75.336,20.28C50.648,11.458,22.344,20.865,8.203,44.147z"/>
	<polygon fill="#FFE600" points="61.152,43.557 73.75,44.624 59.647,79.178 101.23,30.61 86.553,29.347 105.725,0.001 	"/>
</g>
</svg>
