<?xml version="1.0" encoding="utf-8"?>
<!-- Generator: Adobe Illustrator 16.0.0, SVG Export Plug-In . SVG Version: 6.00 Build 0)  -->
<!DOCTYPE svg PUBLIC "-//W3C//DTD SVG 1.1//EN" "http://www.w3.org/Graphics/SVG/1.1/DTD/svg11.dtd">
<svg version="1.1" id="Layer_1" xmlns="http://www.w3.org/2000/svg" xmlns:xlink="http://www.w3.org/1999/xlink" x="0px" y="0px"
	 width="339.323px" height="100.945px" viewBox="0 0 339.323 100.945" enable-background="new 0 0 339.323 100.945"
	 xml:space="preserve">
<path fill="#074D81" d="M53.413,1v31.889c-5.653-4.783-10.871-6.812-17.974-6.812C17.466,26.076,5,40.715,5,61.878
	c0,21.308,12.756,36.381,30.875,36.381c6.812,0,12.754-2.319,17.538-6.957v5.362h14.638V1H53.413z M51.817,75.068
	c-2.03,5.362-7.972,9.131-14.494,9.131c-10.292,0-16.959-8.552-16.959-21.741c0-13.77,6.667-22.322,17.393-22.322
	c6.522,0,12.755,4.058,14.351,9.421c0.869,2.609,1.159,6.232,1.159,13.625C53.267,68.98,52.832,72.603,51.817,75.068z"/>
<path fill="#074D81" d="M142.905,73.474V48.107c0-8.262-0.869-11.451-4.492-15.219c-4.204-4.494-11.887-6.958-21.453-6.958
	c-9.712,0-19.423,2.318-28.844,7.103l6.088,11.74c9.711-4.202,14.494-5.363,21.161-5.363c8.988,0,12.611,3.189,12.756,11.016v2.175
	c-11.74,1.159-15.655,1.595-20.292,2.464c-14.786,2.898-21.742,9.421-21.742,20.437c0,13.046,11.304,22.902,26.235,22.902
	c7.972,0,14.204-2.899,18.698-8.552c1.449,4.782,5.363,7.681,11.885,8.552l7.393-11.307
	C143.63,84.345,142.905,82.895,142.905,73.474z M128.121,74.778c0,4.059-0.581,5.652-2.609,7.391
	c-2.609,2.32-7.103,3.916-10.871,3.916c-7.102,0-12.901-4.64-12.901-10.292c0-4.64,3.044-7.394,9.856-8.988
	c4.494-1.015,8.262-1.447,16.524-2.318V74.778z"/>
<path fill="#074D81" d="M182.445,72.894c0,8.552,1.74,10.58,8.988,10.58c2.464,0,5.218-0.288,8.262-0.868l1.883,12.899
	c-4.782,1.305-10.145,2.028-14.784,2.028c-13.624,0-18.987-5.652-18.987-19.711V40.136h-12.611V27.525h12.611V6.218L182.445,1
	v26.525h18.119v12.611h-18.119V72.894L182.445,72.894z"/>
<path fill="#074D81" d="M237.672,72.894c0,8.552,1.739,10.58,8.987,10.58c2.464,0,5.218-0.288,8.262-0.868l1.883,12.899
	c-4.781,1.305-10.145,2.028-14.784,2.028c-13.624,0-18.986-5.652-18.986-19.711V40.136h-12.611V27.525h12.611V6.218L237.672,1
	v26.525h18.118v12.611h-18.118V72.894L237.672,72.894z"/>
<path fill="#074D81" d="M298.986,25.786c-19.278,0-32.179,14.641-32.179,36.672c0,21.306,13.624,36.09,33.338,36.09
	c19.278,0,32.757-14.93,32.757-36.09C332.902,40.715,319.133,25.786,298.986,25.786z M299.564,84.199
	c-10.725,0-17.827-8.843-17.827-22.031c0-13.191,7.247-22.322,17.973-22.322c10.438,0,17.395,8.843,17.395,22.322
	C317.104,75.356,310.002,84.199,299.564,84.199z"/>
</svg>
