<?xml version="1.0" encoding="utf-8"?>
<!-- Generator: Adobe Illustrator 18.1.0, SVG Export Plug-In . SVG Version: 6.00 Build 0)  -->
<svg version="1.1" id="Layer_1" xmlns="http://www.w3.org/2000/svg" xmlns:xlink="http://www.w3.org/1999/xlink" x="0px" y="0px"
	 viewBox="0 0 410 160" enable-background="new 0 0 410 160" xml:space="preserve">
<path fill="#0E447B" d="M59.8,0.3v52.3c-7.1-7.8-13.6-11.2-22.6-11.2c-22.6,0-38.2,24-38.2,58.7c0,34.9,16,59.6,38.8,59.6
	c8.5,0,16-3.8,22-11.4v8.8h18.4V0.3H59.8z M57.8,121.7c-2.5,8.8-10,15-18.2,15c-12.9,0-21.3-14-21.3-35.6c0-22.6,8.4-36.6,21.8-36.6
	c8.2,0,16,6.7,18,15.4c1.1,4.3,1.5,10.2,1.5,22.3C59.7,111.7,59.1,117.7,57.8,121.7z"/>
<path fill="#0E447B" d="M172.2,119.1V77.5c0-13.5-1.1-18.8-5.6-24.9c-5.3-7.4-14.9-11.4-26.9-11.4c-12.2,0-24.4,3.8-36.2,11.6
	L111,72c12.2-6.9,18.2-8.8,26.6-8.8c11.3,0,15.8,5.2,16,18.1v3.6c-14.7,1.9-19.6,2.6-25.5,4c-18.6,4.8-27.3,15.4-27.3,33.5
	c0,21.4,14.2,37.5,32.9,37.5c10,0,17.8-4.8,23.5-14c1.8,7.8,6.7,12.6,14.9,14l9.3-18.5C173.1,136.9,172.2,134.5,172.2,119.1z
	 M153.6,121.2c0,6.7-0.7,9.3-3.3,12.1c-3.3,3.8-8.9,6.4-13.6,6.4c-8.9,0-16.2-7.6-16.2-16.9c0-7.6,3.8-12.1,12.4-14.7
	c5.6-1.7,10.4-2.4,20.7-3.8V121.2z"/>
<path fill="#0E447B" d="M221.8,118.1c0,14,2.2,17.3,11.3,17.3c3.1,0,6.5-0.5,10.4-1.4l2.4,21.1c-6,2.1-12.7,3.3-18.6,3.3
	c-17.1,0-23.8-9.3-23.8-32.3V64.5h-15.8V43.8h15.8V8.9l18.4-8.6v43.5h22.7v20.7h-22.7V118.1L221.8,118.1z"/>
<path fill="#0E447B" d="M291.1,118.1c0,14,2.2,17.3,11.3,17.3c3.1,0,6.5-0.5,10.4-1.4l2.4,21.1c-6,2.1-12.7,3.3-18.6,3.3
	c-17.1,0-23.8-9.3-23.8-32.3V64.5h-15.8V43.8h15.8V8.9l18.4-8.6v43.5h22.7v20.7h-22.7V118.1L291.1,118.1z"/>
<path fill="#0E447B" d="M368.1,40.9c-24.2,0-40.4,24-40.4,60.1c0,34.9,17.1,59.1,41.8,59.1c24.2,0,41.1-24.5,41.1-59.1
	C410.6,65.4,393.3,40.9,368.1,40.9z M368.8,136.7c-13.5,0-22.4-14.5-22.4-36.1c0-21.6,9.1-36.6,22.6-36.6
	c13.1,0,21.8,14.5,21.8,36.6C390.8,122.2,381.9,136.7,368.8,136.7z"/>
</svg>
