<?xml version="1.0" encoding="utf-8"?>
<!-- Generator: Adobe Illustrator 17.0.1, SVG Export Plug-In . SVG Version: 6.00 Build 0)  -->
<!DOCTYPE svg PUBLIC "-//W3C//DTD SVG 1.1//EN" "http://www.w3.org/Graphics/SVG/1.1/DTD/svg11.dtd">
<svg version="1.1" id="Layer_1" xmlns="http://www.w3.org/2000/svg" xmlns:xlink="http://www.w3.org/1999/xlink" x="0px" y="0px"
	 width="746px" height="432px" viewBox="0 0 746 432" enable-background="new 0 0 746 432" xml:space="preserve">
<g id="Rounded_Rectangle_1_1_" enable-background="new    ">
	<g id="Rounded_Rectangle_1">
		<g>
			<path fill="#818181" d="M736,0H10C4.477,0,0,4.327,0,9.664v412.672C0,427.674,4.477,432,10,432h726c5.521,0,10-4.326,10-9.664
				V9.664C746,4.327,741.521,0,736,0z"/>
		</g>
	</g>
</g>
<g id="Rectangle_14_1_" enable-background="new    ">
	<g id="Rectangle_14">
		<g>
			<rect y="34.001" fill="#555555" width="746" height="401.833"/>
		</g>
	</g>
</g>
<g id="Rectangle_15_1_" enable-background="new    ">
	<g id="Rectangle_15">
		<g>
			<rect x="9" y="42" fill="#FFFFFF" width="729" height="393.833"/>
		</g>
	</g>
</g>
<g id="Rectangle_19_1_" enable-background="new    ">
	<g id="Rectangle_19">
		<g>
			<rect x="373" y="83" fill="#D4D6D6" width="318" height="102.001"/>
		</g>
	</g>
</g>
<g id="Ellipse_2_1_" enable-background="new    ">
	<g id="Ellipse_2">
		<g>
			<circle fill="#FFFFFF" cx="18.5" cy="17.5" r="4.5"/>
		</g>
	</g>
</g>
<g id="Ellipse_2_copy_1_" enable-background="new    ">
	<g id="Ellipse_2_copy">
		<g>
			<circle fill="#FFFFFF" cx="35.5" cy="17.5" r="4.5"/>
		</g>
	</g>
</g>
<g id="Ellipse_2_copy_2_1_" enable-background="new    ">
	<g id="Ellipse_2_copy_2">
		<g>
			<circle fill="#FFFFFF" cx="51.5" cy="17.5" r="4.5"/>
		</g>
	</g>
</g>
<g id="Rectangle_19_copy_3_1_" enable-background="new    ">
	<g id="Rectangle_19_copy_3">
		<g>
			<rect x="402" y="340" fill="#EBEBEB" width="134" height="8"/>
		</g>
	</g>
</g>
<g id="Rectangle_19_copy_4_1_" enable-background="new    ">
	<g id="Rectangle_19_copy_4">
		<g>
			<rect x="402" y="360" fill="#EBEBEB" width="134" height="8"/>
		</g>
	</g>
</g>
<g id="Rectangle_19_copy_5_1_" enable-background="new    ">
	<g id="Rectangle_19_copy_5">
		<g>
			<rect x="402" y="380" fill="#EBEBEB" width="134" height="8"/>
		</g>
	</g>
</g>
<g id="Rectangle_19_copy_6_5_" enable-background="new    ">
	<g id="Rectangle_19_copy_6">
		<g>
			<rect x="556" y="340" fill="#EBEBEB" width="134" height="8"/>
		</g>
	</g>
</g>
<g id="Rectangle_19_copy_6_4_" enable-background="new    ">
	<g id="Rectangle_19_copy_6_1_">
		<g>
			<rect x="556" y="360" fill="#EBEBEB" width="134" height="8"/>
		</g>
	</g>
</g>
<g id="Rectangle_19_copy_6_3_" enable-background="new    ">
	<g id="Rectangle_19_copy_6_2_">
		<g>
			<rect x="556" y="380" fill="#EBEBEB" width="134" height="8"/>
		</g>
	</g>
</g>
<g id="_x3C__x21_doctype_html_x3E___x3C_html_x3E___x3C_head_x3E___x3C_title_x3E_Focus_Lab_is_pretty_cool_x3C__x2F__1_">
	<g>
		<path fill="#979696" d="M80.781,114.87v-1.169l6.785-2.853v1.246l-5.38,2.199l5.38,2.22v1.246L80.781,114.87z"/>
		<path fill="#979696" d="M89.969,116.798l-0.384-5.407v-2.261h1.558v2.261l-0.363,5.407H89.969z M89.641,119.331v-1.427h1.446
			v1.427H89.641z"/>
		<path fill="#979696" d="M98.089,119.331v-0.933c-0.471,0.733-1.163,1.1-2.075,1.1c-0.592,0-1.136-0.163-1.632-0.487
			c-0.496-0.324-0.88-0.778-1.153-1.36c-0.272-0.582-0.409-1.251-0.409-2.007c0-0.738,0.123-1.407,0.37-2.008
			c0.247-0.601,0.617-1.061,1.111-1.381s1.045-0.48,1.656-0.48c0.447,0,0.846,0.094,1.195,0.282c0.35,0.188,0.634,0.433,0.853,0.734
			v-3.66h1.251v10.201L98.089,119.331L98.089,119.331z M94.113,115.643c0,0.946,0.2,1.654,0.601,2.122
			c0.4,0.469,0.874,0.703,1.418,0.703c0.55,0,1.017-0.224,1.401-0.671s0.577-1.131,0.577-2.049c0-1.012-0.196-1.754-0.587-2.227
			c-0.392-0.473-0.874-0.709-1.447-0.709c-0.559,0-1.026,0.227-1.401,0.682S94.113,114.664,94.113,115.643z"/>
		<path fill="#979696" d="M100.765,115.636c0-1.369,0.382-2.382,1.146-3.041c0.638-0.547,1.416-0.821,2.334-0.821
			c1.02,0,1.854,0.333,2.501,0.999s0.971,1.585,0.971,2.759c0,0.951-0.143,1.699-0.43,2.244c-0.287,0.545-0.704,0.968-1.251,1.27
			c-0.547,0.301-1.145,0.452-1.792,0.452c-1.039,0-1.879-0.332-2.519-0.995C101.085,117.839,100.765,116.883,100.765,115.636z
			 M102.058,115.636c0,0.946,0.207,1.655,0.622,2.125c0.415,0.471,0.937,0.707,1.565,0.707c0.624,0,1.144-0.237,1.558-0.71
			s0.622-1.194,0.622-2.164c0-0.914-0.208-1.606-0.625-2.077s-0.935-0.706-1.555-0.706c-0.629,0-1.151,0.234-1.565,0.703
			S102.058,114.689,102.058,115.636z"/>
		<path fill="#979696" d="M114.035,116.624l1.237,0.16c-0.135,0.849-0.481,1.514-1.038,1.994s-1.24,0.72-2.051,0.72
			c-1.016,0-1.832-0.331-2.449-0.992c-0.617-0.661-0.926-1.608-0.926-2.842c0-0.798,0.133-1.496,0.398-2.095
			s0.669-1.047,1.212-1.347c0.543-0.299,1.133-0.449,1.771-0.449c0.806,0,1.465,0.203,1.978,0.609
			c0.512,0.406,0.841,0.982,0.985,1.729l-1.223,0.188c-0.117-0.496-0.323-0.87-0.619-1.12s-0.653-0.376-1.073-0.376
			c-0.633,0-1.148,0.226-1.544,0.679c-0.396,0.452-0.594,1.168-0.594,2.146c0,0.993,0.191,1.714,0.573,2.164
			c0.382,0.45,0.88,0.675,1.495,0.675c0.494,0,0.906-0.151,1.237-0.452C113.737,117.714,113.946,117.25,114.035,116.624z"/>
		<path fill="#979696" d="M119.094,118.21l0.182,1.106c-0.354,0.074-0.671,0.112-0.95,0.112c-0.457,0-0.811-0.072-1.062-0.216
			c-0.252-0.144-0.429-0.333-0.531-0.567c-0.103-0.234-0.154-0.727-0.154-1.479v-4.252h-0.922v-0.974h0.922v-1.83l1.251-0.751v2.582
			h1.265v0.974h-1.265v4.321c0,0.357,0.022,0.587,0.066,0.689c0.044,0.102,0.116,0.184,0.216,0.244c0.1,0.061,0.244,0.09,0.43,0.09
			C118.682,118.259,118.865,118.243,119.094,118.21z"/>
		<path fill="#979696" d="M120.268,122.177l-0.14-1.176c0.275,0.074,0.515,0.111,0.72,0.111c0.28,0,0.503-0.046,0.671-0.139
			s0.305-0.223,0.412-0.39c0.079-0.125,0.208-0.436,0.384-0.932c0.023-0.07,0.061-0.172,0.112-0.306l-2.816-7.404h1.356l1.544,4.28
			c0.2,0.542,0.38,1.113,0.538,1.711c0.145-0.575,0.317-1.136,0.517-1.684l1.586-4.308h1.257l-2.823,7.516
			c-0.303,0.812-0.538,1.371-0.706,1.677c-0.224,0.413-0.48,0.716-0.769,0.908s-0.633,0.289-1.034,0.289
			C120.836,122.33,120.566,122.279,120.268,122.177z"/>
		<path fill="#979696" d="M127.479,122.163V111.94h1.146v0.96c0.27-0.376,0.575-0.658,0.916-0.846
			c0.34-0.188,0.752-0.282,1.237-0.282c0.633,0,1.192,0.163,1.677,0.487s0.85,0.783,1.097,1.374c0.247,0.592,0.37,1.24,0.37,1.945
			c0,0.756-0.136,1.437-0.409,2.042s-0.668,1.069-1.188,1.392c-0.52,0.322-1.065,0.483-1.639,0.483
			c-0.419,0-0.795-0.088-1.128-0.265c-0.333-0.176-0.606-0.399-0.821-0.668v3.598h-1.258L127.479,122.163L127.479,122.163z
			 M128.618,115.677c0,0.951,0.193,1.654,0.58,2.108c0.387,0.454,0.855,0.682,1.405,0.682c0.559,0,1.038-0.235,1.436-0.707
			c0.398-0.471,0.597-1.2,0.597-2.188c0-0.941-0.194-1.646-0.583-2.115c-0.389-0.469-0.854-0.703-1.394-0.703
			c-0.536,0-1.01,0.249-1.422,0.748C128.824,114.001,128.618,114.727,128.618,115.677z"/>
		<path fill="#979696" d="M140.518,116.951l1.3,0.16c-0.205,0.756-0.585,1.343-1.139,1.76c-0.555,0.417-1.263,0.626-2.125,0.626
			c-1.085,0-1.946-0.333-2.582-0.999s-0.954-1.599-0.954-2.801c0-1.243,0.322-2.208,0.964-2.896c0.643-0.687,1.477-1.03,2.501-1.03
			c0.992,0,1.803,0.336,2.432,1.009c0.629,0.672,0.943,1.619,0.943,2.839c0,0.074-0.002,0.186-0.007,0.334h-5.534
			c0.046,0.812,0.277,1.434,0.692,1.865c0.415,0.432,0.932,0.647,1.551,0.647c0.461,0,0.854-0.121,1.181-0.362
			C140.068,117.863,140.327,117.479,140.518,116.951z M136.388,114.926h4.144c-0.056-0.622-0.214-1.088-0.475-1.399
			c-0.4-0.482-0.92-0.724-1.558-0.724c-0.578,0-1.063,0.193-1.457,0.578C136.648,113.766,136.43,114.281,136.388,114.926z"/>
		<path fill="#979696" d="M147.373,119.331V109.13h1.258v3.66c0.587-0.677,1.328-1.016,2.222-1.016c0.549,0,1.027,0.108,1.432,0.324
			c0.405,0.216,0.695,0.514,0.87,0.894c0.175,0.38,0.262,0.933,0.262,1.656v4.683h-1.258v-4.683c0-0.626-0.136-1.082-0.409-1.367
			c-0.273-0.286-0.658-0.428-1.157-0.428c-0.373,0-0.723,0.096-1.052,0.289c-0.328,0.192-0.562,0.453-0.702,0.783
			c-0.14,0.329-0.209,0.784-0.209,1.364v4.043L147.373,119.331L147.373,119.331z"/>
		<path fill="#979696" d="M158.078,118.21l0.182,1.106c-0.354,0.074-0.671,0.112-0.95,0.112c-0.457,0-0.811-0.072-1.062-0.216
			c-0.252-0.144-0.429-0.333-0.531-0.567c-0.103-0.234-0.154-0.727-0.154-1.479v-4.252h-0.922v-0.974h0.922v-1.83l1.251-0.751v2.582
			h1.265v0.974h-1.265v4.321c0,0.357,0.022,0.587,0.066,0.689c0.044,0.102,0.116,0.184,0.216,0.244c0.1,0.061,0.244,0.09,0.43,0.09
			C157.666,118.259,157.85,118.243,158.078,118.21z"/>
		<path fill="#979696" d="M159.308,119.331v-7.39h1.125v1.037c0.233-0.362,0.542-0.653,0.929-0.874s0.827-0.331,1.321-0.331
			c0.55,0,1,0.114,1.352,0.341c0.352,0.228,0.6,0.545,0.744,0.954c0.587-0.863,1.351-1.294,2.292-1.294
			c0.736,0,1.302,0.203,1.698,0.609s0.594,1.031,0.594,1.875v5.073h-1.251v-4.655c0-0.501-0.041-0.862-0.122-1.082
			s-0.229-0.398-0.444-0.532c-0.214-0.135-0.466-0.202-0.754-0.202c-0.522,0-0.955,0.173-1.3,0.519s-0.517,0.899-0.517,1.66v4.293
			h-1.258v-4.801c0-0.557-0.103-0.975-0.308-1.253s-0.541-0.417-1.006-0.417c-0.354,0-0.682,0.093-0.982,0.278
			c-0.3,0.185-0.519,0.457-0.653,0.814c-0.135,0.357-0.203,0.872-0.203,1.545v3.834L159.308,119.331L159.308,119.331z"/>
		<path fill="#979696" d="M171.201,119.331V109.13h1.258v10.201C172.459,119.331,171.201,119.331,171.201,119.331z"/>
		<path fill="#979696" d="M181.032,114.87l-6.785,2.888v-1.246l5.374-2.22l-5.374-2.199v-1.246l6.785,2.853V114.87z"/>
		<path fill="#979696" d="M80.781,137.039v-1.169l6.785-2.853v1.246l-5.38,2.199l5.38,2.22v1.246L80.781,137.039z"/>
		<path fill="#979696" d="M89.298,141.5v-10.201h1.258v3.66c0.587-0.677,1.328-1.016,2.222-1.016c0.549,0,1.027,0.108,1.432,0.324
			s0.695,0.514,0.87,0.894c0.175,0.38,0.262,0.933,0.262,1.656v4.683h-1.258v-4.683c0-0.626-0.136-1.082-0.409-1.367
			c-0.273-0.286-0.658-0.428-1.157-0.428c-0.373,0-0.723,0.096-1.052,0.289c-0.328,0.192-0.562,0.453-0.702,0.783
			c-0.14,0.329-0.209,0.784-0.209,1.364v4.043L89.298,141.5L89.298,141.5z"/>
		<path fill="#979696" d="M100.003,140.379l0.182,1.106c-0.354,0.074-0.671,0.112-0.95,0.112c-0.457,0-0.811-0.072-1.062-0.216
			c-0.252-0.144-0.429-0.333-0.531-0.567c-0.103-0.234-0.154-0.727-0.154-1.479v-4.252h-0.922v-0.974h0.922v-1.83l1.251-0.751v2.582
			h1.265v0.974h-1.265v4.321c0,0.357,0.022,0.587,0.066,0.689c0.044,0.102,0.116,0.184,0.216,0.244c0.1,0.061,0.244,0.09,0.43,0.09
			C99.591,140.428,99.775,140.412,100.003,140.379z"/>
		<path fill="#979696" d="M101.233,141.5v-7.39h1.125v1.037c0.233-0.362,0.542-0.653,0.929-0.874s0.827-0.331,1.321-0.331
			c0.55,0,1,0.114,1.352,0.341c0.352,0.228,0.6,0.545,0.744,0.954c0.587-0.863,1.351-1.294,2.292-1.294
			c0.736,0,1.302,0.203,1.698,0.609c0.396,0.406,0.594,1.031,0.594,1.875v5.073h-1.251v-4.655c0-0.501-0.041-0.862-0.122-1.082
			s-0.229-0.398-0.444-0.532c-0.214-0.135-0.466-0.202-0.754-0.202c-0.522,0-0.955,0.173-1.3,0.519s-0.517,0.899-0.517,1.66v4.293
			h-1.258V136.7c0-0.557-0.103-0.975-0.308-1.253s-0.541-0.417-1.006-0.417c-0.354,0-0.682,0.093-0.982,0.278
			s-0.519,0.457-0.653,0.814c-0.135,0.357-0.203,0.872-0.203,1.545v3.834L101.233,141.5L101.233,141.5z"/>
		<path fill="#979696" d="M113.126,141.5v-10.201h1.258V141.5H113.126z"/>
		<path fill="#979696" d="M122.958,137.039l-6.785,2.888v-1.246l5.374-2.22l-5.374-2.199v-1.246l6.785,2.853
			C122.958,135.869,122.958,137.039,122.958,137.039z"/>
		<path fill="#979696" d="M80.781,159.208v-1.169l6.785-2.853v1.246l-5.38,2.199l5.38,2.22v1.246L80.781,159.208z"/>
		<path fill="#979696" d="M89.298,163.668v-10.201h1.258v3.66c0.587-0.677,1.328-1.016,2.222-1.016c0.549,0,1.027,0.108,1.432,0.324
			s0.695,0.514,0.87,0.894c0.175,0.38,0.262,0.933,0.262,1.656v4.683h-1.258v-4.683c0-0.626-0.136-1.082-0.409-1.367
			c-0.273-0.286-0.658-0.428-1.157-0.428c-0.373,0-0.723,0.096-1.052,0.289c-0.328,0.192-0.562,0.453-0.702,0.783
			c-0.14,0.329-0.209,0.784-0.209,1.364v4.043L89.298,163.668L89.298,163.668z"/>
		<path fill="#979696" d="M102.337,161.288l1.3,0.16c-0.205,0.756-0.585,1.343-1.139,1.76c-0.555,0.417-1.263,0.626-2.125,0.626
			c-1.085,0-1.946-0.333-2.582-0.999s-0.954-1.599-0.954-2.801c0-1.243,0.322-2.208,0.964-2.895c0.643-0.687,1.477-1.03,2.501-1.03
			c0.992,0,1.803,0.336,2.432,1.009c0.629,0.672,0.943,1.619,0.943,2.839c0,0.074-0.002,0.186-0.007,0.334h-5.534
			c0.046,0.812,0.277,1.434,0.692,1.865c0.415,0.432,0.932,0.647,1.551,0.647c0.461,0,0.854-0.121,1.181-0.362
			C101.887,162.2,102.146,161.817,102.337,161.288z M98.208,159.263h4.144c-0.056-0.622-0.214-1.088-0.475-1.399
			c-0.4-0.482-0.92-0.724-1.558-0.724c-0.578,0-1.063,0.193-1.457,0.578C98.467,158.104,98.25,158.618,98.208,159.263z"/>
		<path fill="#979696" d="M110.059,162.756c-0.466,0.395-0.914,0.673-1.345,0.835c-0.431,0.163-0.893,0.244-1.387,0.244
			c-0.815,0-1.442-0.198-1.88-0.595c-0.438-0.397-0.657-0.904-0.657-1.521c0-0.362,0.083-0.692,0.248-0.992s0.382-0.54,0.65-0.72
			c0.268-0.181,0.569-0.318,0.905-0.411c0.247-0.065,0.62-0.127,1.118-0.188c1.016-0.121,1.763-0.264,2.243-0.431
			c0.004-0.172,0.007-0.281,0.007-0.327c0-0.51-0.119-0.87-0.356-1.079c-0.321-0.283-0.799-0.424-1.433-0.424
			c-0.591,0-1.028,0.103-1.31,0.31s-0.49,0.572-0.625,1.096l-1.229-0.167c0.112-0.524,0.295-0.947,0.552-1.27
			c0.256-0.322,0.626-0.57,1.111-0.744c0.484-0.174,1.045-0.261,1.684-0.261c0.634,0,1.148,0.074,1.544,0.223
			s0.687,0.335,0.874,0.56c0.186,0.225,0.317,0.509,0.391,0.853c0.042,0.213,0.063,0.599,0.063,1.155v1.67
			c0,1.165,0.027,1.901,0.081,2.209c0.053,0.309,0.159,0.604,0.318,0.887h-1.314C110.18,163.408,110.096,163.104,110.059,162.756z
			 M109.954,159.959c-0.457,0.186-1.142,0.343-2.055,0.473c-0.517,0.074-0.883,0.158-1.097,0.25
			c-0.214,0.093-0.379,0.229-0.496,0.407c-0.116,0.179-0.174,0.377-0.174,0.595c0,0.334,0.126,0.613,0.381,0.835
			c0.253,0.223,0.625,0.334,1.114,0.334c0.484,0,0.916-0.105,1.293-0.317c0.377-0.211,0.654-0.5,0.832-0.866
			c0.135-0.283,0.203-0.701,0.203-1.252L109.954,159.959L109.954,159.959z"/>
		<path fill="#979696" d="M117.99,163.668v-0.933c-0.471,0.733-1.163,1.1-2.075,1.1c-0.592,0-1.136-0.163-1.632-0.487
			c-0.496-0.324-0.88-0.778-1.153-1.36c-0.272-0.582-0.409-1.251-0.409-2.007c0-0.738,0.123-1.407,0.37-2.008
			s0.617-1.061,1.111-1.381c0.494-0.32,1.045-0.48,1.656-0.48c0.447,0,0.846,0.094,1.195,0.282c0.35,0.188,0.634,0.433,0.853,0.734
			v-3.66h1.251v10.201L117.99,163.668L117.99,163.668z M114.014,159.98c0,0.946,0.2,1.654,0.601,2.122
			c0.4,0.469,0.874,0.703,1.418,0.703c0.55,0,1.017-0.224,1.401-0.671s0.577-1.131,0.577-2.049c0-1.012-0.196-1.754-0.587-2.227
			c-0.392-0.473-0.874-0.709-1.447-0.709c-0.559,0-1.026,0.227-1.401,0.682S114.014,159.001,114.014,159.98z"/>
		<path fill="#979696" d="M127.758,159.208l-6.785,2.888v-1.246l5.374-2.22l-5.374-2.199v-1.246l6.785,2.853
			C127.758,158.038,127.758,159.208,127.758,159.208z"/>
		<path fill="#979696" d="M80.781,181.376v-1.169l6.785-2.853v1.246l-5.38,2.199l5.38,2.22v1.246L80.781,181.376z"/>
		<path fill="#979696" d="M92.044,184.716l0.182,1.106c-0.354,0.074-0.671,0.112-0.95,0.112c-0.457,0-0.811-0.072-1.062-0.216
			c-0.252-0.144-0.429-0.333-0.531-0.567c-0.103-0.234-0.154-0.727-0.154-1.479v-4.252h-0.922v-0.974h0.922v-1.83l1.251-0.751v2.582
			h1.265v0.974H90.78v4.321c0,0.357,0.022,0.587,0.066,0.689c0.044,0.102,0.116,0.184,0.216,0.244c0.1,0.061,0.244,0.09,0.43,0.09
			C91.632,184.765,91.816,184.749,92.044,184.716z"/>
		<path fill="#979696" d="M93.281,177.076v-1.44h1.258v1.44H93.281z M93.281,185.836v-7.39h1.258v7.39H93.281z"/>
		<path fill="#979696" d="M99.2,184.716l0.182,1.106c-0.354,0.074-0.671,0.112-0.95,0.112c-0.457,0-0.811-0.072-1.062-0.216
			c-0.252-0.144-0.429-0.333-0.531-0.567c-0.103-0.234-0.154-0.727-0.154-1.479v-4.252h-0.922v-0.974h0.922v-1.83l1.251-0.751v2.582
			H99.2v0.974h-1.265v4.321c0,0.357,0.022,0.587,0.066,0.689s0.116,0.184,0.216,0.244c0.1,0.061,0.244,0.09,0.43,0.09
			C98.788,184.765,98.971,184.749,99.2,184.716z"/>
		<path fill="#979696" d="M100.402,185.836v-10.201h1.258v10.201H100.402z"/>
		<path fill="#979696" d="M108.689,183.457l1.3,0.16c-0.205,0.756-0.585,1.343-1.139,1.76c-0.555,0.417-1.263,0.626-2.125,0.626
			c-1.085,0-1.946-0.333-2.582-0.999s-0.954-1.599-0.954-2.801c0-1.243,0.322-2.208,0.964-2.895c0.643-0.687,1.477-1.03,2.501-1.03
			c0.992,0,1.803,0.336,2.432,1.009c0.629,0.672,0.943,1.619,0.943,2.839c0,0.074-0.002,0.186-0.007,0.334h-5.534
			c0.046,0.812,0.277,1.434,0.692,1.865c0.415,0.432,0.932,0.647,1.551,0.647c0.461,0,0.854-0.121,1.181-0.362
			C108.239,184.369,108.498,183.985,108.689,183.457z M104.559,181.432h4.144c-0.056-0.622-0.214-1.088-0.475-1.399
			c-0.4-0.482-0.92-0.724-1.558-0.724c-0.578,0-1.063,0.193-1.457,0.578C104.819,180.272,104.601,180.787,104.559,181.432z"/>
		<path fill="#979696" d="M118.192,181.376l-6.785,2.888v-1.246l5.374-2.22l-5.374-2.199v-1.246l6.785,2.853V181.376z"/>
		<path fill="#979696" d="M120.155,185.836v-10.201h6.911v1.204h-5.555v3.159h4.808v1.204h-4.808v4.634L120.155,185.836
			L120.155,185.836z"/>
		<path fill="#979696" d="M128.198,182.142c0-1.369,0.382-2.382,1.146-3.041c0.638-0.547,1.416-0.821,2.334-0.821
			c1.02,0,1.854,0.333,2.501,0.999s0.971,1.585,0.971,2.759c0,0.951-0.143,1.699-0.43,2.244c-0.287,0.545-0.704,0.968-1.251,1.27
			c-0.547,0.301-1.145,0.452-1.792,0.452c-1.039,0-1.879-0.332-2.519-0.995C128.519,184.345,128.198,183.389,128.198,182.142z
			 M129.491,182.142c0,0.946,0.207,1.655,0.622,2.125c0.415,0.471,0.937,0.707,1.565,0.707c0.624,0,1.144-0.237,1.558-0.71
			s0.622-1.194,0.622-2.164c0-0.914-0.208-1.606-0.625-2.077s-0.935-0.706-1.555-0.706c-0.629,0-1.151,0.234-1.565,0.703
			C129.699,180.489,129.491,181.195,129.491,182.142z"/>
		<path fill="#979696" d="M141.468,183.129l1.237,0.16c-0.135,0.849-0.481,1.514-1.038,1.994c-0.557,0.48-1.24,0.72-2.051,0.72
			c-1.016,0-1.832-0.331-2.449-0.992c-0.617-0.661-0.926-1.608-0.926-2.842c0-0.798,0.133-1.496,0.398-2.095
			s0.669-1.047,1.212-1.347c0.543-0.299,1.133-0.449,1.771-0.449c0.806,0,1.465,0.203,1.978,0.609
			c0.512,0.406,0.841,0.982,0.985,1.729l-1.223,0.188c-0.117-0.496-0.323-0.87-0.619-1.12s-0.653-0.376-1.073-0.376
			c-0.633,0-1.148,0.226-1.544,0.679c-0.396,0.452-0.594,1.168-0.594,2.146c0,0.993,0.191,1.714,0.573,2.164s0.88,0.675,1.495,0.675
			c0.494,0,0.906-0.151,1.237-0.452C141.17,184.22,141.379,183.756,141.468,183.129z"/>
		<path fill="#979696" d="M148.644,185.836v-1.085c-0.578,0.835-1.362,1.252-2.355,1.252c-0.438,0-0.847-0.083-1.226-0.25
			c-0.38-0.167-0.662-0.377-0.846-0.63c-0.184-0.252-0.313-0.562-0.388-0.929c-0.051-0.246-0.077-0.636-0.077-1.169v-4.579h1.258
			v4.099c0,0.654,0.025,1.095,0.077,1.322c0.079,0.33,0.247,0.588,0.503,0.776c0.256,0.188,0.573,0.282,0.951,0.282
			c0.377,0,0.731-0.096,1.062-0.289c0.331-0.192,0.565-0.455,0.702-0.787s0.206-0.813,0.206-1.444v-3.959h1.258v7.39
			L148.644,185.836L148.644,185.836z"/>
		<path fill="#979696" d="M151.237,183.63l1.244-0.195c0.07,0.497,0.264,0.877,0.583,1.142c0.319,0.264,0.765,0.396,1.338,0.396
			c0.578,0,1.006-0.117,1.286-0.352c0.28-0.234,0.419-0.509,0.419-0.825c0-0.283-0.124-0.505-0.37-0.668
			c-0.172-0.111-0.601-0.252-1.286-0.424c-0.922-0.232-1.562-0.433-1.918-0.602s-0.626-0.403-0.811-0.703s-0.276-0.63-0.276-0.992
			c0-0.329,0.076-0.634,0.227-0.915c0.151-0.281,0.357-0.514,0.618-0.699c0.196-0.144,0.462-0.266,0.8-0.365
			c0.338-0.1,0.7-0.15,1.086-0.15c0.583,0,1.094,0.083,1.534,0.25s0.765,0.393,0.975,0.679c0.209,0.285,0.354,0.667,0.433,1.145
			l-1.23,0.167c-0.056-0.38-0.218-0.677-0.485-0.891c-0.268-0.213-0.646-0.32-1.136-0.32c-0.578,0-0.99,0.095-1.237,0.286
			c-0.247,0.19-0.37,0.413-0.37,0.668c0,0.162,0.051,0.309,0.154,0.438c0.103,0.134,0.263,0.246,0.482,0.334
			c0.126,0.046,0.496,0.153,1.111,0.32c0.89,0.237,1.51,0.431,1.862,0.581c0.352,0.151,0.628,0.37,0.828,0.658
			c0.2,0.288,0.301,0.645,0.301,1.072c0,0.417-0.123,0.811-0.367,1.179c-0.245,0.369-0.597,0.654-1.059,0.856
			c-0.461,0.202-0.983,0.303-1.565,0.303c-0.964,0-1.699-0.199-2.205-0.599C151.699,185.006,151.376,184.415,151.237,183.63z"/>
		<path fill="#979696" d="M162.976,185.836v-10.201h1.355v8.998h5.045v1.204L162.976,185.836L162.976,185.836z"/>
		<path fill="#979696" d="M175.672,184.925c-0.466,0.395-0.914,0.673-1.345,0.835c-0.431,0.163-0.893,0.244-1.387,0.244
			c-0.815,0-1.442-0.198-1.88-0.595s-0.657-0.904-0.657-1.521c0-0.362,0.083-0.692,0.248-0.992c0.165-0.3,0.382-0.54,0.65-0.72
			c0.268-0.181,0.569-0.318,0.905-0.411c0.247-0.065,0.62-0.127,1.118-0.188c1.016-0.121,1.763-0.264,2.243-0.431
			c0.004-0.172,0.007-0.281,0.007-0.327c0-0.51-0.119-0.87-0.356-1.079c-0.321-0.283-0.799-0.424-1.433-0.424
			c-0.591,0-1.028,0.103-1.31,0.31s-0.49,0.572-0.625,1.096l-1.229-0.167c0.112-0.524,0.295-0.947,0.552-1.27
			c0.256-0.322,0.626-0.57,1.111-0.744c0.484-0.174,1.045-0.261,1.684-0.261c0.634,0,1.148,0.074,1.544,0.223
			s0.687,0.335,0.874,0.56c0.186,0.225,0.317,0.509,0.391,0.853c0.042,0.213,0.063,0.599,0.063,1.155v1.67
			c0,1.165,0.027,1.901,0.081,2.209c0.053,0.309,0.159,0.604,0.318,0.887h-1.314C175.793,185.577,175.709,185.273,175.672,184.925z
			 M175.568,182.127c-0.457,0.186-1.142,0.343-2.055,0.473c-0.517,0.074-0.883,0.158-1.097,0.25
			c-0.214,0.093-0.379,0.229-0.496,0.407c-0.116,0.179-0.174,0.377-0.174,0.595c0,0.334,0.126,0.613,0.381,0.835
			c0.253,0.223,0.625,0.334,1.114,0.334c0.484,0,0.916-0.105,1.293-0.317c0.377-0.211,0.654-0.5,0.832-0.866
			c0.135-0.283,0.203-0.701,0.203-1.252L175.568,182.127L175.568,182.127z"/>
		<path fill="#979696" d="M179.949,185.836h-1.167v-10.201h1.258v3.639c0.531-0.663,1.208-0.995,2.033-0.995
			c0.457,0,0.889,0.092,1.296,0.275s0.743,0.441,1.006,0.772s0.469,0.732,0.619,1.2c0.149,0.469,0.224,0.97,0.224,1.503
			c0,1.266-0.314,2.245-0.943,2.937c-0.629,0.691-1.384,1.037-2.264,1.037c-0.876,0-1.563-0.364-2.062-1.092L179.949,185.836
			L179.949,185.836z M179.935,182.086c0,0.886,0.121,1.526,0.363,1.92c0.396,0.645,0.932,0.967,1.607,0.967
			c0.55,0,1.025-0.238,1.426-0.713c0.4-0.476,0.601-1.184,0.601-2.126c0-0.965-0.192-1.677-0.577-2.136
			c-0.384-0.459-0.849-0.689-1.394-0.689c-0.55,0-1.025,0.238-1.425,0.713C180.135,180.498,179.935,181.186,179.935,182.086z"/>
		<path fill="#979696" d="M190.731,177.076v-1.44h1.258v1.44H190.731z M190.731,185.836v-7.39h1.258v7.39H190.731z"/>
		<path fill="#979696" d="M193.4,183.63l1.244-0.195c0.07,0.497,0.264,0.877,0.583,1.142c0.319,0.264,0.765,0.396,1.338,0.396
			c0.578,0,1.006-0.117,1.286-0.352c0.28-0.234,0.419-0.509,0.419-0.825c0-0.283-0.124-0.505-0.37-0.668
			c-0.172-0.111-0.601-0.252-1.286-0.424c-0.922-0.232-1.562-0.433-1.918-0.602s-0.626-0.403-0.811-0.703s-0.276-0.63-0.276-0.992
			c0-0.329,0.076-0.634,0.227-0.915c0.151-0.281,0.357-0.514,0.618-0.699c0.196-0.144,0.462-0.266,0.8-0.365
			c0.338-0.1,0.7-0.15,1.086-0.15c0.583,0,1.094,0.083,1.534,0.25s0.765,0.393,0.975,0.679c0.209,0.285,0.354,0.667,0.433,1.145
			l-1.23,0.167c-0.056-0.38-0.218-0.677-0.485-0.891c-0.268-0.213-0.646-0.32-1.136-0.32c-0.578,0-0.99,0.095-1.237,0.286
			c-0.247,0.19-0.37,0.413-0.37,0.668c0,0.162,0.051,0.309,0.154,0.438c0.103,0.134,0.263,0.246,0.482,0.334
			c0.126,0.046,0.496,0.153,1.111,0.32c0.89,0.237,1.51,0.431,1.862,0.581c0.352,0.151,0.628,0.37,0.828,0.658
			c0.2,0.288,0.301,0.645,0.301,1.072c0,0.417-0.123,0.811-0.367,1.179c-0.245,0.369-0.597,0.654-1.059,0.856
			c-0.461,0.202-0.983,0.303-1.565,0.303c-0.964,0-1.699-0.199-2.205-0.599C193.862,185.006,193.54,184.415,193.4,183.63z"/>
		<path fill="#979696" d="M205.035,188.668v-10.222h1.146v0.96c0.27-0.376,0.575-0.658,0.916-0.846
			c0.34-0.188,0.752-0.282,1.237-0.282c0.633,0,1.192,0.163,1.677,0.487s0.85,0.783,1.097,1.374c0.247,0.592,0.37,1.24,0.37,1.945
			c0,0.756-0.136,1.437-0.409,2.042s-0.668,1.069-1.188,1.392c-0.52,0.322-1.065,0.483-1.639,0.483
			c-0.419,0-0.795-0.088-1.128-0.265c-0.333-0.176-0.606-0.399-0.821-0.668v3.598h-1.258L205.035,188.668L205.035,188.668z
			 M206.174,182.183c0,0.951,0.193,1.654,0.58,2.108c0.387,0.454,0.855,0.682,1.405,0.682c0.559,0,1.038-0.235,1.436-0.707
			c0.398-0.471,0.597-1.2,0.597-2.188c0-0.941-0.194-1.646-0.583-2.115c-0.389-0.469-0.854-0.703-1.394-0.703
			c-0.536,0-1.01,0.249-1.422,0.748C206.38,180.507,206.174,181.232,206.174,182.183z"/>
		<path fill="#979696" d="M212.979,185.836v-7.39h1.132v1.121c0.289-0.524,0.555-0.87,0.8-1.037c0.245-0.167,0.514-0.25,0.807-0.25
			c0.424,0,0.855,0.135,1.293,0.404l-0.434,1.162c-0.307-0.181-0.615-0.271-0.922-0.271c-0.275,0-0.521,0.083-0.741,0.247
			c-0.219,0.165-0.375,0.393-0.468,0.686c-0.14,0.445-0.21,0.932-0.21,1.461v3.869h-1.257V185.836z"/>
		<path fill="#979696" d="M222.839,183.457l1.3,0.16c-0.205,0.756-0.585,1.343-1.139,1.76c-0.555,0.417-1.263,0.626-2.125,0.626
			c-1.085,0-1.946-0.333-2.582-0.999s-0.954-1.599-0.954-2.801c0-1.243,0.322-2.208,0.964-2.895c0.643-0.687,1.477-1.03,2.501-1.03
			c0.992,0,1.803,0.336,2.432,1.009c0.629,0.672,0.943,1.619,0.943,2.839c0,0.074-0.002,0.186-0.007,0.334h-5.534
			c0.046,0.812,0.277,1.434,0.692,1.865c0.415,0.432,0.932,0.647,1.551,0.647c0.461,0,0.854-0.121,1.181-0.362
			C222.389,184.369,222.648,183.985,222.839,183.457z M218.709,181.432h4.144c-0.056-0.622-0.214-1.088-0.475-1.399
			c-0.4-0.482-0.92-0.724-1.558-0.724c-0.578,0-1.063,0.193-1.457,0.578C218.969,180.272,218.751,180.787,218.709,181.432z"/>
		<path fill="#979696" d="M228.464,184.716l0.182,1.106c-0.354,0.074-0.671,0.112-0.95,0.112c-0.457,0-0.811-0.072-1.062-0.216
			c-0.252-0.144-0.429-0.333-0.531-0.567c-0.103-0.234-0.154-0.727-0.154-1.479v-4.252h-0.922v-0.974h0.922v-1.83l1.251-0.751v2.582
			h1.265v0.974H227.2v4.321c0,0.357,0.022,0.587,0.066,0.689s0.116,0.184,0.216,0.244c0.1,0.061,0.244,0.09,0.43,0.09
			C228.052,184.765,228.236,184.749,228.464,184.716z"/>
		<path fill="#979696" d="M232.44,184.716l0.182,1.106c-0.354,0.074-0.671,0.112-0.95,0.112c-0.457,0-0.811-0.072-1.062-0.216
			c-0.252-0.144-0.429-0.333-0.531-0.567c-0.103-0.234-0.154-0.727-0.154-1.479v-4.252h-0.922v-0.974h0.922v-1.83l1.251-0.751v2.582
			h1.265v0.974h-1.265v4.321c0,0.357,0.022,0.587,0.066,0.689s0.116,0.184,0.216,0.244c0.1,0.061,0.244,0.09,0.43,0.09
			C232.028,184.765,232.212,184.749,232.44,184.716z"/>
		<path fill="#979696" d="M233.614,188.683l-0.14-1.176c0.275,0.074,0.515,0.111,0.72,0.111c0.28,0,0.503-0.046,0.671-0.139
			s0.305-0.223,0.412-0.39c0.079-0.125,0.208-0.436,0.384-0.932c0.023-0.07,0.061-0.172,0.112-0.306l-2.816-7.404h1.356l1.544,4.28
			c0.2,0.542,0.38,1.113,0.538,1.711c0.145-0.575,0.317-1.136,0.517-1.684l1.586-4.308h1.257l-2.823,7.516
			c-0.303,0.812-0.538,1.371-0.706,1.677c-0.224,0.413-0.48,0.716-0.769,0.908s-0.633,0.289-1.034,0.289
			C234.183,188.835,233.913,188.785,233.614,188.683z"/>
		<path fill="#979696" d="M249.644,183.129l1.237,0.16c-0.135,0.849-0.481,1.514-1.038,1.994c-0.557,0.48-1.24,0.72-2.051,0.72
			c-1.016,0-1.832-0.331-2.449-0.992c-0.617-0.661-0.926-1.608-0.926-2.842c0-0.798,0.133-1.496,0.398-2.095
			s0.669-1.047,1.212-1.347c0.543-0.299,1.133-0.449,1.771-0.449c0.806,0,1.465,0.203,1.978,0.609
			c0.512,0.406,0.841,0.982,0.985,1.729l-1.223,0.188c-0.117-0.496-0.323-0.87-0.619-1.12s-0.653-0.376-1.073-0.376
			c-0.633,0-1.148,0.226-1.544,0.679c-0.396,0.452-0.594,1.168-0.594,2.146c0,0.993,0.191,1.714,0.573,2.164s0.88,0.675,1.495,0.675
			c0.494,0,0.906-0.151,1.237-0.452C249.346,184.22,249.556,183.756,249.644,183.129z"/>
		<path fill="#979696" d="M251.489,182.142c0-1.369,0.382-2.382,1.146-3.041c0.638-0.547,1.416-0.821,2.334-0.821
			c1.02,0,1.854,0.333,2.501,0.999s0.971,1.585,0.971,2.759c0,0.951-0.143,1.699-0.43,2.244s-0.704,0.968-1.251,1.27
			c-0.547,0.301-1.145,0.452-1.792,0.452c-1.039,0-1.879-0.332-2.519-0.995C251.809,184.345,251.489,183.389,251.489,182.142z
			 M252.782,182.142c0,0.946,0.207,1.655,0.622,2.125c0.415,0.471,0.937,0.707,1.565,0.707c0.624,0,1.144-0.237,1.558-0.71
			s0.622-1.194,0.622-2.164c0-0.914-0.208-1.606-0.625-2.077s-0.935-0.706-1.555-0.706c-0.629,0-1.151,0.234-1.565,0.703
			C252.99,180.489,252.782,181.195,252.782,182.142z"/>
		<path fill="#979696" d="M259.448,182.142c0-1.369,0.382-2.382,1.146-3.041c0.638-0.547,1.416-0.821,2.334-0.821
			c1.02,0,1.854,0.333,2.501,0.999s0.971,1.585,0.971,2.759c0,0.951-0.143,1.699-0.43,2.244s-0.704,0.968-1.251,1.27
			c-0.547,0.301-1.145,0.452-1.792,0.452c-1.039,0-1.879-0.332-2.519-0.995C259.768,184.345,259.448,183.389,259.448,182.142z
			 M260.741,182.142c0,0.946,0.207,1.655,0.622,2.125c0.415,0.471,0.937,0.707,1.565,0.707c0.624,0,1.144-0.237,1.558-0.71
			s0.622-1.194,0.622-2.164c0-0.914-0.208-1.606-0.625-2.077s-0.935-0.706-1.555-0.706c-0.629,0-1.151,0.234-1.565,0.703
			C260.949,180.489,260.741,181.195,260.741,182.142z"/>
		<path fill="#979696" d="M267.847,185.836v-10.201h1.258v10.201H267.847z"/>
		<path fill="#979696" d="M270.894,181.376v-1.169l6.785-2.853v1.246l-5.38,2.199l5.38,2.22v1.246L270.894,181.376z"/>
		<path fill="#979696" d="M278.468,186.01l2.97-10.549h1.006l-2.963,10.549H278.468z"/>
		<path fill="#979696" d="M286.133,184.716l0.182,1.106c-0.354,0.074-0.671,0.112-0.95,0.112c-0.457,0-0.811-0.072-1.062-0.216
			c-0.252-0.144-0.429-0.333-0.531-0.567c-0.103-0.234-0.154-0.727-0.154-1.479v-4.252h-0.922v-0.974h0.922v-1.83l1.251-0.751v2.582
			h1.265v0.974h-1.265v4.321c0,0.357,0.022,0.587,0.066,0.689s0.116,0.184,0.216,0.244c0.1,0.061,0.244,0.09,0.43,0.09
			C285.721,184.765,285.905,184.749,286.133,184.716z"/>
		<path fill="#979696" d="M287.37,177.076v-1.44h1.258v1.44H287.37z M287.37,185.836v-7.39h1.258v7.39H287.37z"/>
		<path fill="#979696" d="M293.289,184.716l0.182,1.106c-0.354,0.074-0.671,0.112-0.95,0.112c-0.457,0-0.811-0.072-1.062-0.216
			c-0.252-0.144-0.429-0.333-0.531-0.567c-0.103-0.234-0.154-0.727-0.154-1.479v-4.252h-0.922v-0.974h0.922v-1.83l1.251-0.751v2.582
			h1.265v0.974h-1.265v4.321c0,0.357,0.022,0.587,0.066,0.689s0.116,0.184,0.216,0.244c0.1,0.061,0.244,0.09,0.43,0.09
			C292.876,184.765,293.06,184.749,293.289,184.716z"/>
		<path fill="#979696" d="M294.491,185.836v-10.201h1.258v10.201H294.491z"/>
		<path fill="#979696" d="M302.778,183.457l1.3,0.16c-0.205,0.756-0.585,1.343-1.139,1.76c-0.555,0.417-1.263,0.626-2.125,0.626
			c-1.085,0-1.946-0.333-2.582-0.999s-0.954-1.599-0.954-2.801c0-1.243,0.322-2.208,0.964-2.895c0.643-0.687,1.477-1.03,2.501-1.03
			c0.992,0,1.803,0.336,2.432,1.009c0.629,0.672,0.943,1.619,0.943,2.839c0,0.074-0.002,0.186-0.007,0.334h-5.534
			c0.046,0.812,0.277,1.434,0.692,1.865c0.415,0.432,0.932,0.647,1.551,0.647c0.461,0,0.854-0.121,1.181-0.362
			C302.328,184.369,302.586,183.985,302.778,183.457z M298.648,181.432h4.144c-0.056-0.622-0.214-1.088-0.475-1.399
			c-0.4-0.482-0.92-0.724-1.558-0.724c-0.578,0-1.063,0.193-1.457,0.578C298.908,180.272,298.69,180.787,298.648,181.432z"/>
		<path fill="#979696" d="M312.281,181.376l-6.785,2.888v-1.246l5.374-2.22l-5.374-2.199v-1.246l6.785,2.853V181.376z"/>
		<path fill="#979696" d="M80.781,203.545v-1.169l6.785-2.853v1.246l-5.38,2.199l5.38,2.22v1.246L80.781,203.545z"/>
		<path fill="#979696" d="M89.271,208.005v-10.201h1.258v10.201H89.271z"/>
		<path fill="#979696" d="M92.484,199.245v-1.44h1.258v1.44H92.484z M92.484,208.005v-7.39h1.258v7.39H92.484z"/>
		<path fill="#979696" d="M95.657,208.005v-7.39h1.132v1.051c0.545-0.812,1.333-1.218,2.362-1.218c0.447,0,0.858,0.08,1.233,0.24
			s0.656,0.37,0.842,0.63c0.187,0.26,0.317,0.568,0.392,0.925c0.046,0.232,0.07,0.638,0.07,1.218v4.544h-1.258v-4.495
			c0-0.51-0.049-0.892-0.146-1.145c-0.098-0.252-0.271-0.455-0.521-0.605c-0.249-0.15-0.542-0.226-0.877-0.226
			c-0.536,0-0.998,0.169-1.387,0.508c-0.389,0.338-0.583,0.981-0.583,1.927v4.036L95.657,208.005L95.657,208.005z"/>
		<path fill="#979696" d="M103.623,208.005v-10.201h1.258v5.817l2.977-3.006h1.628l-2.837,2.742l3.124,4.648h-1.551l-2.453-3.778
			l-0.888,0.849v2.93L103.623,208.005L103.623,208.005z"/>
		<path fill="#979696" d="M114.747,208.005v-10.201h1.258v3.66c0.587-0.677,1.328-1.016,2.222-1.016
			c0.549,0,1.027,0.108,1.432,0.324s0.695,0.514,0.87,0.894c0.175,0.38,0.262,0.933,0.262,1.656v4.683h-1.258v-4.683
			c0-0.626-0.136-1.082-0.409-1.367c-0.273-0.286-0.658-0.428-1.157-0.428c-0.373,0-0.723,0.096-1.052,0.289
			c-0.328,0.192-0.562,0.453-0.702,0.783c-0.14,0.329-0.209,0.784-0.209,1.364v4.043L114.747,208.005L114.747,208.005z"/>
		<path fill="#979696" d="M122.692,208.005v-7.39h1.132v1.121c0.289-0.524,0.555-0.87,0.8-1.037s0.514-0.25,0.807-0.25
			c0.424,0,0.855,0.135,1.293,0.404l-0.434,1.162c-0.307-0.181-0.615-0.271-0.922-0.271c-0.275,0-0.521,0.083-0.741,0.247
			c-0.219,0.165-0.375,0.393-0.468,0.686c-0.14,0.445-0.21,0.932-0.21,1.461v3.869h-1.257L122.692,208.005L122.692,208.005z"/>
		<path fill="#979696" d="M132.552,205.625l1.3,0.16c-0.205,0.756-0.585,1.343-1.139,1.76c-0.555,0.417-1.263,0.626-2.125,0.626
			c-1.085,0-1.946-0.333-2.582-0.999s-0.954-1.599-0.954-2.801c0-1.243,0.322-2.208,0.964-2.895c0.643-0.687,1.477-1.03,2.501-1.03
			c0.992,0,1.803,0.336,2.432,1.009c0.629,0.672,0.943,1.619,0.943,2.839c0,0.074-0.002,0.186-0.007,0.334h-5.534
			c0.046,0.812,0.277,1.434,0.692,1.865c0.415,0.432,0.932,0.647,1.551,0.647c0.461,0,0.854-0.121,1.181-0.362
			C132.102,206.537,132.36,206.154,132.552,205.625z M128.422,203.601h4.144c-0.056-0.622-0.214-1.088-0.475-1.399
			c-0.4-0.482-0.92-0.724-1.558-0.724c-0.578,0-1.063,0.193-1.457,0.578C128.682,202.441,128.464,202.956,128.422,203.601z"/>
		<path fill="#979696" d="M135.731,208.005v-6.416h-1.111v-0.974h1.111v-0.786c0-0.497,0.044-0.865,0.133-1.106
			c0.121-0.325,0.334-0.588,0.64-0.79c0.305-0.202,0.732-0.303,1.282-0.303c0.354,0,0.745,0.042,1.174,0.125l-0.189,1.092
			c-0.261-0.046-0.508-0.069-0.741-0.069c-0.382,0-0.652,0.081-0.811,0.244c-0.158,0.162-0.237,0.466-0.237,0.912v0.682h1.446v0.974
			h-1.446v6.416L135.731,208.005L135.731,208.005z"/>
		<path fill="#979696" d="M146.024,202.007h-6.764v-1.169h6.764L146.024,202.007L146.024,202.007z M146.024,205.104h-6.764v-1.169
			h6.764L146.024,205.104L146.024,205.104z"/>
		<path fill="#979696" d="M147.428,199.154V197.7h1.349v1.148c0,0.622-0.072,1.069-0.217,1.343c-0.2,0.375-0.512,0.659-0.936,0.849
			l-0.308-0.494c0.251-0.102,0.439-0.263,0.562-0.484c0.124-0.22,0.192-0.523,0.206-0.908L147.428,199.154L147.428,199.154z
			 M149.594,199.154V197.7h1.349v1.148c0,0.622-0.072,1.069-0.216,1.343c-0.201,0.375-0.513,0.659-0.937,0.849l-0.308-0.494
			c0.252-0.102,0.439-0.263,0.562-0.484c0.124-0.22,0.192-0.523,0.207-0.908L149.594,199.154L149.594,199.154z"/>
		<path fill="#979696" d="M152.026,205.799l1.244-0.195c0.07,0.497,0.264,0.877,0.583,1.142c0.319,0.264,0.765,0.396,1.338,0.396
			c0.578,0,1.006-0.117,1.286-0.352c0.28-0.234,0.419-0.509,0.419-0.825c0-0.283-0.124-0.505-0.37-0.668
			c-0.172-0.111-0.601-0.252-1.286-0.424c-0.922-0.232-1.562-0.433-1.918-0.602s-0.626-0.403-0.811-0.703s-0.276-0.63-0.276-0.992
			c0-0.329,0.076-0.634,0.227-0.915c0.151-0.281,0.357-0.514,0.618-0.699c0.196-0.144,0.462-0.266,0.8-0.365
			c0.338-0.1,0.7-0.15,1.086-0.15c0.583,0,1.094,0.083,1.534,0.25s0.765,0.393,0.975,0.679c0.209,0.285,0.354,0.667,0.433,1.145
			l-1.23,0.167c-0.056-0.38-0.218-0.677-0.485-0.891c-0.268-0.213-0.646-0.32-1.136-0.32c-0.578,0-0.99,0.095-1.237,0.286
			c-0.247,0.19-0.37,0.413-0.37,0.668c0,0.162,0.051,0.309,0.154,0.438c0.103,0.134,0.263,0.246,0.482,0.334
			c0.126,0.046,0.496,0.153,1.111,0.32c0.89,0.237,1.51,0.431,1.862,0.581c0.352,0.151,0.628,0.37,0.828,0.658
			c0.2,0.288,0.301,0.646,0.301,1.072c0,0.417-0.123,0.811-0.367,1.179c-0.245,0.369-0.597,0.654-1.059,0.856
			c-0.461,0.202-0.983,0.303-1.565,0.303c-0.964,0-1.699-0.199-2.205-0.599C152.488,207.175,152.166,206.583,152.026,205.799z"/>
		<path fill="#979696" d="M162.431,206.885l0.182,1.106c-0.354,0.074-0.671,0.112-0.95,0.112c-0.457,0-0.811-0.072-1.062-0.216
			c-0.252-0.144-0.429-0.333-0.531-0.567c-0.103-0.234-0.154-0.727-0.154-1.479v-4.252h-0.922v-0.974h0.922v-1.83l1.251-0.751v2.582
			h1.265v0.974h-1.265v4.321c0,0.357,0.022,0.587,0.066,0.689s0.116,0.184,0.216,0.244c0.1,0.061,0.244,0.09,0.43,0.09
			C162.019,206.934,162.202,206.917,162.431,206.885z"/>
		<path fill="#979696" d="M163.604,210.852l-0.14-1.176c0.275,0.074,0.515,0.111,0.72,0.111c0.28,0,0.503-0.046,0.671-0.139
			s0.305-0.223,0.412-0.39c0.079-0.125,0.208-0.436,0.384-0.932c0.023-0.07,0.061-0.172,0.112-0.306l-2.816-7.404h1.356l1.544,4.28
			c0.2,0.542,0.38,1.113,0.538,1.711c0.145-0.575,0.317-1.136,0.517-1.684l1.586-4.308h1.257l-2.823,7.516
			c-0.303,0.812-0.538,1.371-0.706,1.677c-0.224,0.413-0.48,0.716-0.769,0.908s-0.633,0.289-1.034,0.289
			C164.173,211.004,163.903,210.954,163.604,210.852z"/>
		<path fill="#979696" d="M170.788,208.005v-10.201h1.258v10.201H170.788z"/>
		<path fill="#979696" d="M179.075,205.625l1.3,0.16c-0.205,0.756-0.585,1.343-1.139,1.76c-0.555,0.417-1.263,0.626-2.125,0.626
			c-1.085,0-1.946-0.333-2.582-0.999s-0.954-1.599-0.954-2.801c0-1.243,0.322-2.208,0.964-2.895c0.643-0.687,1.477-1.03,2.501-1.03
			c0.992,0,1.803,0.336,2.432,1.009c0.629,0.672,0.943,1.619,0.943,2.839c0,0.074-0.002,0.186-0.007,0.334h-5.534
			c0.046,0.812,0.277,1.434,0.692,1.865c0.415,0.432,0.932,0.647,1.551,0.647c0.461,0,0.854-0.121,1.181-0.362
			C178.625,206.537,178.884,206.154,179.075,205.625z M174.945,203.601h4.144c-0.056-0.622-0.214-1.088-0.475-1.399
			c-0.4-0.482-0.92-0.724-1.558-0.724c-0.578,0-1.063,0.193-1.457,0.578C175.205,202.441,174.987,202.956,174.945,203.601z"/>
		<path fill="#979696" d="M182.311,208.005v-1.427h1.432v1.427H182.311z"/>
		<path fill="#979696" d="M190.772,205.298l1.237,0.16c-0.135,0.849-0.481,1.514-1.038,1.994c-0.557,0.48-1.24,0.72-2.051,0.72
			c-1.016,0-1.832-0.331-2.449-0.992c-0.617-0.661-0.926-1.608-0.926-2.842c0-0.798,0.133-1.496,0.398-2.095
			s0.669-1.047,1.212-1.347c0.543-0.299,1.133-0.449,1.771-0.449c0.806,0,1.465,0.203,1.978,0.609
			c0.512,0.406,0.841,0.982,0.985,1.729l-1.223,0.188c-0.117-0.496-0.323-0.87-0.619-1.12s-0.653-0.376-1.073-0.376
			c-0.633,0-1.148,0.226-1.544,0.679c-0.396,0.452-0.594,1.168-0.594,2.146c0,0.993,0.191,1.714,0.573,2.164s0.88,0.675,1.495,0.675
			c0.494,0,0.906-0.151,1.237-0.452C190.475,206.389,190.684,205.925,190.772,205.298z"/>
		<path fill="#979696" d="M192.583,205.799l1.244-0.195c0.07,0.497,0.264,0.877,0.583,1.142c0.319,0.264,0.765,0.396,1.338,0.396
			c0.578,0,1.006-0.117,1.286-0.352c0.28-0.234,0.419-0.509,0.419-0.825c0-0.283-0.124-0.505-0.37-0.668
			c-0.172-0.111-0.601-0.252-1.286-0.424c-0.922-0.232-1.562-0.433-1.918-0.602s-0.626-0.403-0.811-0.703s-0.276-0.63-0.276-0.992
			c0-0.329,0.076-0.634,0.227-0.915c0.151-0.281,0.357-0.514,0.618-0.699c0.196-0.144,0.462-0.266,0.8-0.365
			c0.338-0.1,0.7-0.15,1.086-0.15c0.583,0,1.094,0.083,1.534,0.25s0.765,0.393,0.975,0.679c0.209,0.285,0.354,0.667,0.433,1.145
			l-1.23,0.167c-0.056-0.38-0.218-0.677-0.485-0.891c-0.268-0.213-0.646-0.32-1.136-0.32c-0.578,0-0.99,0.095-1.237,0.286
			c-0.247,0.19-0.37,0.413-0.37,0.668c0,0.162,0.051,0.309,0.154,0.438c0.103,0.134,0.263,0.246,0.482,0.334
			c0.126,0.046,0.496,0.153,1.111,0.32c0.89,0.237,1.51,0.431,1.862,0.581c0.352,0.151,0.628,0.37,0.828,0.658
			c0.2,0.288,0.301,0.646,0.301,1.072c0,0.417-0.123,0.811-0.367,1.179c-0.245,0.369-0.597,0.654-1.059,0.856
			c-0.461,0.202-0.983,0.303-1.565,0.303c-0.964,0-1.699-0.199-2.205-0.599C193.044,207.175,192.722,206.583,192.583,205.799z"/>
		<path fill="#979696" d="M199.738,205.799l1.244-0.195c0.07,0.497,0.264,0.877,0.583,1.142c0.319,0.264,0.765,0.396,1.338,0.396
			c0.578,0,1.006-0.117,1.286-0.352c0.28-0.234,0.419-0.509,0.419-0.825c0-0.283-0.124-0.505-0.37-0.668
			c-0.172-0.111-0.601-0.252-1.286-0.424c-0.922-0.232-1.562-0.433-1.918-0.602s-0.626-0.403-0.811-0.703s-0.276-0.63-0.276-0.992
			c0-0.329,0.076-0.634,0.227-0.915c0.151-0.281,0.357-0.514,0.618-0.699c0.196-0.144,0.462-0.266,0.8-0.365
			c0.338-0.1,0.7-0.15,1.086-0.15c0.583,0,1.094,0.083,1.534,0.25s0.765,0.393,0.975,0.679c0.209,0.285,0.354,0.667,0.433,1.145
			l-1.23,0.167c-0.056-0.38-0.218-0.677-0.485-0.891c-0.268-0.213-0.646-0.32-1.136-0.32c-0.578,0-0.99,0.095-1.237,0.286
			c-0.247,0.19-0.37,0.413-0.37,0.668c0,0.162,0.051,0.309,0.154,0.438c0.103,0.134,0.263,0.246,0.482,0.334
			c0.126,0.046,0.496,0.153,1.111,0.32c0.89,0.237,1.51,0.431,1.862,0.581c0.352,0.151,0.628,0.37,0.828,0.658
			c0.2,0.288,0.301,0.646,0.301,1.072c0,0.417-0.123,0.811-0.367,1.179c-0.245,0.369-0.597,0.654-1.059,0.856
			c-0.461,0.202-0.983,0.303-1.565,0.303c-0.964,0-1.699-0.199-2.205-0.599C200.2,207.175,199.877,206.583,199.738,205.799z"/>
		<path fill="#979696" d="M207.061,199.154V197.7h1.349v1.148c0,0.622-0.072,1.069-0.217,1.343c-0.2,0.375-0.512,0.659-0.936,0.849
			l-0.308-0.494c0.251-0.102,0.439-0.263,0.562-0.484c0.124-0.22,0.192-0.523,0.206-0.908L207.061,199.154L207.061,199.154z
			 M209.227,199.154V197.7h1.349v1.148c0,0.622-0.072,1.069-0.216,1.343c-0.201,0.375-0.513,0.659-0.937,0.849l-0.308-0.494
			c0.252-0.102,0.439-0.263,0.562-0.484c0.124-0.22,0.192-0.523,0.207-0.908L209.227,199.154L209.227,199.154z"/>
		<path fill="#979696" d="M216.124,208.005v-7.39h1.132v1.121c0.289-0.524,0.555-0.87,0.8-1.037c0.245-0.167,0.514-0.25,0.807-0.25
			c0.424,0,0.855,0.135,1.293,0.404l-0.434,1.162c-0.307-0.181-0.615-0.271-0.922-0.271c-0.275,0-0.521,0.083-0.741,0.247
			c-0.219,0.165-0.375,0.393-0.468,0.686c-0.14,0.445-0.21,0.932-0.21,1.461v3.869h-1.257V208.005z"/>
		<path fill="#979696" d="M225.983,205.625l1.3,0.16c-0.205,0.756-0.585,1.343-1.139,1.76c-0.555,0.417-1.263,0.626-2.125,0.626
			c-1.085,0-1.946-0.333-2.582-0.999s-0.954-1.599-0.954-2.801c0-1.243,0.322-2.208,0.964-2.895c0.643-0.687,1.477-1.03,2.501-1.03
			c0.992,0,1.803,0.336,2.432,1.009c0.629,0.672,0.943,1.619,0.943,2.839c0,0.074-0.002,0.186-0.007,0.334h-5.534
			c0.046,0.812,0.277,1.434,0.692,1.865c0.415,0.432,0.932,0.647,1.551,0.647c0.461,0,0.854-0.121,1.181-0.362
			C225.533,206.537,225.792,206.154,225.983,205.625z M221.854,203.601h4.144c-0.056-0.622-0.214-1.088-0.475-1.399
			c-0.4-0.482-0.92-0.724-1.558-0.724c-0.578,0-1.063,0.193-1.457,0.578C222.113,202.441,221.896,202.956,221.854,203.601z"/>
		<path fill="#979696" d="M228.834,208.005v-10.201h1.258v10.201H228.834z"/>
		<path fill="#979696" d="M238.659,202.007h-6.764v-1.169h6.764V202.007z M238.659,205.104h-6.764v-1.169h6.764V205.104z"/>
		<path fill="#979696" d="M240.063,199.154V197.7h1.349v1.148c0,0.622-0.072,1.069-0.217,1.343c-0.2,0.375-0.512,0.659-0.936,0.849
			l-0.308-0.494c0.251-0.102,0.439-0.263,0.562-0.484c0.124-0.22,0.192-0.523,0.206-0.908L240.063,199.154L240.063,199.154z
			 M242.229,199.154V197.7h1.349v1.148c0,0.622-0.072,1.069-0.216,1.343c-0.201,0.375-0.513,0.659-0.937,0.849l-0.308-0.494
			c0.252-0.102,0.439-0.263,0.562-0.484c0.124-0.22,0.192-0.523,0.207-0.908L242.229,199.154L242.229,199.154z"/>
		<path fill="#979696" d="M244.661,205.799l1.244-0.195c0.07,0.497,0.264,0.877,0.583,1.142c0.319,0.264,0.765,0.396,1.338,0.396
			c0.578,0,1.006-0.117,1.286-0.352c0.28-0.234,0.419-0.509,0.419-0.825c0-0.283-0.124-0.505-0.37-0.668
			c-0.172-0.111-0.601-0.252-1.286-0.424c-0.922-0.232-1.562-0.433-1.918-0.602s-0.626-0.403-0.811-0.703s-0.276-0.63-0.276-0.992
			c0-0.329,0.076-0.634,0.227-0.915c0.151-0.281,0.357-0.514,0.618-0.699c0.196-0.144,0.462-0.266,0.8-0.365
			c0.338-0.1,0.7-0.15,1.086-0.15c0.583,0,1.094,0.083,1.534,0.25s0.765,0.393,0.975,0.679c0.209,0.285,0.354,0.667,0.433,1.145
			l-1.23,0.167c-0.056-0.38-0.218-0.677-0.485-0.891c-0.268-0.213-0.646-0.32-1.136-0.32c-0.578,0-0.99,0.095-1.237,0.286
			c-0.247,0.19-0.37,0.413-0.37,0.668c0,0.162,0.051,0.309,0.154,0.438c0.103,0.134,0.263,0.246,0.482,0.334
			c0.126,0.046,0.496,0.153,1.111,0.32c0.89,0.237,1.51,0.431,1.862,0.581c0.352,0.151,0.628,0.37,0.828,0.658
			c0.2,0.288,0.301,0.646,0.301,1.072c0,0.417-0.123,0.811-0.367,1.179c-0.245,0.369-0.597,0.654-1.059,0.856
			c-0.461,0.202-0.983,0.303-1.565,0.303c-0.964,0-1.699-0.199-2.205-0.599C245.123,207.175,244.801,206.583,244.661,205.799z"/>
		<path fill="#979696" d="M255.065,206.885l0.182,1.106c-0.354,0.074-0.671,0.112-0.95,0.112c-0.457,0-0.811-0.072-1.062-0.216
			c-0.252-0.144-0.429-0.333-0.531-0.567c-0.103-0.234-0.154-0.727-0.154-1.479v-4.252h-0.922v-0.974h0.922v-1.83l1.251-0.751v2.582
			h1.265v0.974h-1.265v4.321c0,0.357,0.022,0.587,0.066,0.689s0.116,0.184,0.216,0.244c0.1,0.061,0.244,0.09,0.43,0.09
			C254.653,206.934,254.837,206.917,255.065,206.885z"/>
		<path fill="#979696" d="M256.239,210.852l-0.14-1.176c0.275,0.074,0.515,0.111,0.72,0.111c0.28,0,0.503-0.046,0.671-0.139
			s0.305-0.223,0.412-0.39c0.079-0.125,0.208-0.436,0.384-0.932c0.023-0.07,0.061-0.172,0.112-0.306l-2.816-7.404h1.356l1.544,4.28
			c0.2,0.542,0.38,1.113,0.538,1.711c0.145-0.575,0.317-1.136,0.517-1.684l1.586-4.308h1.257l-2.823,7.516
			c-0.303,0.812-0.538,1.371-0.706,1.677c-0.224,0.413-0.48,0.716-0.769,0.908s-0.633,0.289-1.034,0.289
			C256.808,211.004,256.538,210.954,256.239,210.852z"/>
		<path fill="#979696" d="M263.423,208.005v-10.201h1.258v10.201H263.423z"/>
		<path fill="#979696" d="M271.71,205.625l1.3,0.16c-0.205,0.756-0.585,1.343-1.139,1.76c-0.555,0.417-1.263,0.626-2.125,0.626
			c-1.085,0-1.946-0.333-2.582-0.999s-0.954-1.599-0.954-2.801c0-1.243,0.322-2.208,0.964-2.895c0.643-0.687,1.477-1.03,2.501-1.03
			c0.992,0,1.803,0.336,2.432,1.009c0.629,0.672,0.943,1.619,0.943,2.839c0,0.074-0.002,0.186-0.007,0.334h-5.534
			c0.046,0.812,0.277,1.434,0.692,1.865c0.415,0.432,0.932,0.647,1.551,0.647c0.461,0,0.854-0.121,1.181-0.362
			C271.26,206.537,271.519,206.154,271.71,205.625z M267.58,203.601h4.144c-0.056-0.622-0.214-1.088-0.475-1.399
			c-0.4-0.482-0.92-0.724-1.558-0.724c-0.578,0-1.063,0.193-1.457,0.578C267.84,202.441,267.622,202.956,267.58,203.601z"/>
		<path fill="#979696" d="M274.086,205.799l1.244-0.195c0.07,0.497,0.264,0.877,0.583,1.142c0.319,0.264,0.765,0.396,1.338,0.396
			c0.578,0,1.006-0.117,1.286-0.352c0.28-0.234,0.419-0.509,0.419-0.825c0-0.283-0.124-0.505-0.37-0.668
			c-0.172-0.111-0.601-0.252-1.286-0.424c-0.922-0.232-1.562-0.433-1.918-0.602s-0.626-0.403-0.811-0.703s-0.276-0.63-0.276-0.992
			c0-0.329,0.076-0.634,0.227-0.915c0.151-0.281,0.357-0.514,0.618-0.699c0.196-0.144,0.462-0.266,0.8-0.365
			c0.338-0.1,0.7-0.15,1.086-0.15c0.583,0,1.094,0.083,1.534,0.25s0.765,0.393,0.975,0.679c0.209,0.285,0.354,0.667,0.433,1.145
			l-1.23,0.167c-0.056-0.38-0.218-0.677-0.485-0.891c-0.268-0.213-0.646-0.32-1.136-0.32c-0.578,0-0.99,0.095-1.237,0.286
			c-0.247,0.19-0.37,0.413-0.37,0.668c0,0.162,0.051,0.309,0.154,0.438c0.103,0.134,0.263,0.246,0.482,0.334
			c0.126,0.046,0.496,0.153,1.111,0.32c0.89,0.237,1.51,0.431,1.862,0.581c0.352,0.151,0.628,0.37,0.828,0.658
			c0.2,0.288,0.301,0.646,0.301,1.072c0,0.417-0.123,0.811-0.367,1.179c-0.245,0.369-0.597,0.654-1.059,0.856
			c-0.461,0.202-0.983,0.303-1.565,0.303c-0.964,0-1.699-0.199-2.205-0.599C274.548,207.175,274.226,206.583,274.086,205.799z"/>
		<path fill="#979696" d="M281.744,208.005v-10.201h1.258v3.66c0.587-0.677,1.328-1.016,2.222-1.016
			c0.549,0,1.027,0.108,1.432,0.324s0.695,0.514,0.87,0.894c0.175,0.38,0.262,0.933,0.262,1.656v4.683h-1.258v-4.683
			c0-0.626-0.136-1.082-0.409-1.367c-0.273-0.286-0.658-0.428-1.157-0.428c-0.373,0-0.723,0.096-1.052,0.289
			c-0.328,0.192-0.562,0.453-0.702,0.783c-0.14,0.329-0.209,0.784-0.209,1.364v4.043L281.744,208.005L281.744,208.005z"/>
		<path fill="#979696" d="M294.783,205.625l1.3,0.16c-0.205,0.756-0.585,1.343-1.139,1.76c-0.555,0.417-1.263,0.626-2.125,0.626
			c-1.085,0-1.946-0.333-2.582-0.999s-0.954-1.599-0.954-2.801c0-1.243,0.322-2.208,0.964-2.895c0.643-0.687,1.477-1.03,2.501-1.03
			c0.992,0,1.803,0.336,2.432,1.009c0.629,0.672,0.943,1.619,0.943,2.839c0,0.074-0.002,0.186-0.007,0.334h-5.534
			c0.046,0.812,0.277,1.434,0.692,1.865c0.415,0.432,0.932,0.647,1.551,0.647c0.461,0,0.854-0.121,1.181-0.362
			C294.333,206.537,294.592,206.154,294.783,205.625z M290.653,203.601h4.144c-0.056-0.622-0.214-1.088-0.475-1.399
			c-0.4-0.482-0.92-0.724-1.558-0.724c-0.578,0-1.063,0.193-1.457,0.578C290.913,202.441,290.695,202.956,290.653,203.601z"/>
		<path fill="#979696" d="M302.742,205.625l1.3,0.16c-0.205,0.756-0.585,1.343-1.139,1.76c-0.555,0.417-1.263,0.626-2.125,0.626
			c-1.085,0-1.946-0.333-2.582-0.999s-0.954-1.599-0.954-2.801c0-1.243,0.322-2.208,0.964-2.895c0.643-0.687,1.477-1.03,2.501-1.03
			c0.992,0,1.803,0.336,2.432,1.009c0.629,0.672,0.943,1.619,0.943,2.839c0,0.074-0.002,0.186-0.007,0.334h-5.534
			c0.046,0.812,0.277,1.434,0.692,1.865c0.415,0.432,0.932,0.647,1.551,0.647c0.461,0,0.854-0.121,1.181-0.362
			C302.292,206.537,302.551,206.154,302.742,205.625z M298.612,203.601h4.144c-0.056-0.622-0.214-1.088-0.475-1.399
			c-0.4-0.482-0.92-0.724-1.558-0.724c-0.578,0-1.063,0.193-1.457,0.578C298.872,202.441,298.654,202.956,298.612,203.601z"/>
		<path fill="#979696" d="M308.367,206.885l0.182,1.106c-0.354,0.074-0.671,0.112-0.95,0.112c-0.457,0-0.811-0.072-1.062-0.216
			c-0.252-0.144-0.429-0.333-0.531-0.567c-0.103-0.234-0.154-0.727-0.154-1.479v-4.252h-0.922v-0.974h0.922v-1.83l1.25-0.751v2.582
			h1.266v0.974h-1.266v4.321c0,0.357,0.022,0.587,0.066,0.689s0.116,0.184,0.216,0.244c0.101,0.061,0.244,0.09,0.431,0.09
			C307.955,206.934,308.139,206.917,308.367,206.885z"/>
		<path fill="#979696" d="M309.262,199.154V197.7h1.35v1.148c0,0.622-0.072,1.069-0.218,1.343c-0.199,0.375-0.512,0.659-0.936,0.849
			l-0.308-0.494c0.251-0.102,0.438-0.263,0.562-0.484c0.124-0.22,0.192-0.523,0.206-0.908L309.262,199.154L309.262,199.154z
			 M311.428,199.154V197.7h1.35v1.148c0,0.622-0.072,1.069-0.217,1.343c-0.2,0.375-0.513,0.659-0.937,0.849l-0.308-0.494
			c0.252-0.102,0.438-0.263,0.562-0.484c0.124-0.22,0.192-0.523,0.207-0.908L311.428,199.154L311.428,199.154z"/>
		<path fill="#979696" d="M321.085,206.885l0.182,1.106c-0.354,0.074-0.671,0.112-0.949,0.112c-0.457,0-0.812-0.072-1.062-0.216
			c-0.252-0.144-0.429-0.333-0.531-0.567c-0.103-0.234-0.153-0.727-0.153-1.479v-4.252h-0.922v-0.974h0.922v-1.83l1.251-0.751v2.582
			h1.265v0.974h-1.265v4.321c0,0.357,0.021,0.587,0.065,0.689s0.116,0.184,0.216,0.244c0.101,0.061,0.244,0.09,0.431,0.09
			C320.673,206.934,320.856,206.917,321.085,206.885z"/>
		<path fill="#979696" d="M322.259,210.852l-0.14-1.176c0.274,0.074,0.515,0.111,0.72,0.111c0.28,0,0.503-0.046,0.671-0.139
			s0.306-0.223,0.412-0.39c0.079-0.125,0.208-0.436,0.384-0.932c0.023-0.07,0.062-0.172,0.112-0.306l-2.816-7.404h1.356l1.544,4.28
			c0.2,0.542,0.38,1.113,0.538,1.711c0.145-0.575,0.317-1.136,0.517-1.684l1.586-4.308h1.258l-2.823,7.516
			c-0.304,0.812-0.538,1.371-0.706,1.677c-0.225,0.413-0.48,0.716-0.77,0.908c-0.289,0.192-0.633,0.289-1.033,0.289
			C322.827,211.004,322.557,210.954,322.259,210.852z"/>
		<path fill="#979696" d="M80.781,247.881v-1.168l6.785-2.854v1.246l-5.38,2.199l5.38,2.219v1.246L80.781,247.881z"/>
		<path fill="#979696" d="M88.355,252.516l2.97-10.549h1.006l-2.963,10.549H88.355z"/>
		<path fill="#979696" d="M93.274,252.342v-10.201h1.258v3.66c0.587-0.678,1.328-1.016,2.222-1.016c0.549,0,1.027,0.106,1.432,0.323
			c0.405,0.216,0.695,0.515,0.87,0.896c0.175,0.379,0.262,0.932,0.262,1.654v4.684H98.06v-4.684c0-0.625-0.136-1.082-0.409-1.367
			s-0.658-0.428-1.157-0.428c-0.373,0-0.723,0.098-1.052,0.288c-0.328,0.192-0.562,0.453-0.702,0.783
			c-0.14,0.33-0.209,0.782-0.209,1.362v4.043h-1.257V252.342z"/>
		<path fill="#979696" d="M106.313,249.963l1.3,0.16c-0.205,0.756-0.585,1.342-1.139,1.76c-0.555,0.418-1.263,0.627-2.125,0.627
			c-1.085,0-1.946-0.334-2.582-1c-0.636-0.664-0.954-1.598-0.954-2.801c0-1.242,0.322-2.207,0.964-2.896
			c0.643-0.687,1.477-1.028,2.501-1.028c0.992,0,1.803,0.336,2.432,1.01c0.629,0.672,0.943,1.619,0.943,2.838
			c0,0.074-0.002,0.186-0.007,0.334h-5.534c0.046,0.812,0.277,1.434,0.692,1.865s0.932,0.646,1.551,0.646
			c0.461,0,0.854-0.119,1.181-0.36C105.864,250.877,106.122,250.493,106.313,249.963z M102.184,247.938h4.144
			c-0.056-0.621-0.214-1.088-0.475-1.398c-0.4-0.481-0.92-0.725-1.558-0.725c-0.578,0-1.063,0.193-1.457,0.578
			S102.226,247.293,102.184,247.938z"/>
		<path fill="#979696" d="M114.035,251.432c-0.466,0.393-0.914,0.672-1.345,0.834s-0.893,0.244-1.387,0.244
			c-0.815,0-1.442-0.199-1.88-0.596c-0.438-0.397-0.657-0.902-0.657-1.521c0-0.362,0.083-0.692,0.248-0.992
			c0.165-0.299,0.382-0.538,0.65-0.721c0.268-0.181,0.569-0.315,0.905-0.41c0.247-0.063,0.62-0.127,1.118-0.188
			c1.016-0.121,1.763-0.266,2.243-0.432c0.004-0.172,0.007-0.281,0.007-0.328c0-0.51-0.119-0.869-0.356-1.078
			c-0.321-0.283-0.799-0.424-1.433-0.424c-0.591,0-1.028,0.104-1.31,0.309c-0.282,0.207-0.49,0.572-0.625,1.099l-1.229-0.168
			c0.112-0.522,0.295-0.946,0.552-1.271c0.257-0.322,0.626-0.57,1.111-0.744c0.484-0.174,1.045-0.262,1.684-0.262
			c0.634,0,1.148,0.074,1.544,0.223c0.396,0.15,0.687,0.336,0.874,0.562c0.186,0.226,0.317,0.511,0.391,0.853
			c0.042,0.215,0.063,0.6,0.063,1.156v1.67c0,1.164,0.027,1.899,0.081,2.209c0.053,0.309,0.159,0.604,0.318,0.887h-1.314
			C114.156,252.083,114.072,251.779,114.035,251.432z M113.93,248.633c-0.457,0.186-1.142,0.344-2.055,0.475
			c-0.517,0.074-0.883,0.156-1.097,0.25c-0.214,0.092-0.379,0.229-0.496,0.406c-0.116,0.18-0.174,0.377-0.174,0.596
			c0,0.334,0.126,0.611,0.381,0.834c0.253,0.223,0.625,0.334,1.114,0.334c0.484,0,0.916-0.105,1.293-0.316s0.654-0.5,0.832-0.864
			c0.135-0.283,0.203-0.701,0.203-1.255L113.93,248.633L113.93,248.633z"/>
		<path fill="#979696" d="M121.966,252.342v-0.932c-0.471,0.731-1.163,1.1-2.075,1.1c-0.592,0-1.136-0.162-1.632-0.488
			c-0.496-0.324-0.88-0.777-1.153-1.359s-0.409-1.252-0.409-2.008c0-0.738,0.123-1.406,0.37-2.008
			c0.247-0.6,0.617-1.061,1.111-1.381c0.494-0.32,1.045-0.48,1.656-0.48c0.447,0,0.846,0.094,1.195,0.281
			c0.35,0.189,0.634,0.434,0.853,0.734v-3.66h1.251v10.201L121.966,252.342L121.966,252.342z M117.99,248.654
			c0,0.947,0.2,1.654,0.601,2.123c0.4,0.47,0.874,0.701,1.418,0.701c0.55,0,1.017-0.224,1.401-0.67
			c0.384-0.449,0.577-1.132,0.577-2.052c0-1.01-0.196-1.752-0.587-2.227c-0.392-0.473-0.874-0.709-1.447-0.709
			c-0.559,0-1.026,0.227-1.401,0.682S117.99,247.676,117.99,248.654z"/>
		<path fill="#979696" d="M131.734,247.881l-6.785,2.889v-1.246l5.374-2.219l-5.374-2.199v-1.246l6.785,2.854L131.734,247.881
			L131.734,247.881z"/>
		<path fill="#979696" d="M80.781,292.219v-1.17l6.785-2.853v1.244l-5.38,2.199l5.38,2.221v1.246L80.781,292.219z"/>
		<path fill="#979696" d="M90.458,296.68h-1.167v-10.201h1.258v3.639c0.531-0.664,1.208-0.994,2.033-0.994
			c0.457,0,0.889,0.09,1.296,0.273c0.407,0.184,0.743,0.441,1.006,0.773s0.469,0.729,0.619,1.199
			c0.149,0.469,0.224,0.971,0.224,1.504c0,1.266-0.314,2.246-0.943,2.936c-0.629,0.691-1.384,1.037-2.264,1.037
			c-0.876,0-1.563-0.363-2.062-1.092V296.68z M90.444,292.928c0,0.887,0.121,1.527,0.363,1.922c0.396,0.645,0.932,0.967,1.607,0.967
			c0.55,0,1.025-0.238,1.426-0.713c0.4-0.477,0.601-1.184,0.601-2.127c0-0.965-0.192-1.676-0.577-2.135
			c-0.384-0.461-0.849-0.689-1.394-0.689c-0.55,0-1.025,0.238-1.425,0.713C90.645,291.342,90.444,292.029,90.444,292.928z"/>
		<path fill="#979696" d="M96.789,292.984c0-1.368,0.382-2.383,1.146-3.041c0.638-0.547,1.416-0.819,2.334-0.819
			c1.02,0,1.854,0.332,2.501,0.998s0.971,1.586,0.971,2.758c0,0.951-0.143,1.699-0.43,2.244c-0.287,0.547-0.704,0.969-1.251,1.271
			c-0.547,0.301-1.145,0.45-1.792,0.45c-1.039,0-1.879-0.331-2.519-0.993C97.109,295.188,96.789,294.232,96.789,292.984z
			 M98.082,292.984c0,0.945,0.207,1.654,0.622,2.125c0.415,0.472,0.937,0.707,1.565,0.707c0.624,0,1.144-0.235,1.558-0.709
			c0.415-0.476,0.622-1.194,0.622-2.164c0-0.914-0.208-1.606-0.625-2.077c-0.417-0.472-0.935-0.707-1.555-0.707
			c-0.629,0-1.151,0.233-1.565,0.702C98.29,291.331,98.082,292.038,98.082,292.984z"/>
		<path fill="#979696" d="M110.031,296.68v-0.934c-0.471,0.733-1.163,1.1-2.075,1.1c-0.592,0-1.136-0.162-1.632-0.486
			c-0.496-0.324-0.88-0.779-1.153-1.361s-0.409-1.25-0.409-2.008c0-0.736,0.123-1.406,0.37-2.006
			c0.247-0.602,0.617-1.062,1.111-1.383c0.494-0.32,1.045-0.479,1.656-0.479c0.447,0,0.846,0.094,1.195,0.28
			c0.35,0.188,0.634,0.433,0.853,0.734v-3.66h1.251v10.201L110.031,296.68L110.031,296.68z M106.055,292.991
			c0,0.946,0.2,1.653,0.601,2.122c0.4,0.47,0.874,0.703,1.418,0.703c0.55,0,1.017-0.226,1.401-0.672
			c0.384-0.447,0.577-1.131,0.577-2.05c0-1.012-0.196-1.754-0.587-2.227c-0.392-0.473-0.874-0.711-1.447-0.711
			c-0.559,0-1.026,0.229-1.401,0.684S106.055,292.012,106.055,292.991z"/>
		<path fill="#979696" d="M113.119,299.525l-0.14-1.176c0.275,0.073,0.515,0.11,0.72,0.11c0.28,0,0.503-0.047,0.671-0.139
			c0.167-0.094,0.305-0.223,0.412-0.391c0.079-0.125,0.208-0.436,0.384-0.932c0.023-0.07,0.061-0.172,0.112-0.308l-2.816-7.403
			h1.356l1.544,4.278c0.2,0.543,0.38,1.113,0.538,1.713c0.145-0.575,0.317-1.137,0.517-1.687l1.586-4.307h1.257l-2.823,7.516
			c-0.303,0.812-0.538,1.371-0.706,1.679c-0.224,0.412-0.48,0.715-0.769,0.905c-0.289,0.193-0.633,0.289-1.034,0.289
			C113.688,299.678,113.417,299.627,113.119,299.525z"/>
		<path fill="#979696" d="M126.955,292.219l-6.785,2.889v-1.246l5.374-2.221l-5.374-2.199v-1.244l6.785,2.852V292.219z"/>
		<path fill="#CCCCCC" d="M80.781,336.557v-1.17l6.785-2.852v1.243l-5.38,2.199l5.38,2.222v1.245L80.781,336.557z"/>
		<path fill="#CCCCCC" d="M89.969,338.484l-0.384-5.405v-2.263h1.558v2.263l-0.363,5.405H89.969z M89.641,341.018v-1.428h1.446
			v1.428H89.641z"/>
		<path fill="#CCCCCC" d="M92.785,337.956v-1.261h3.864v1.261H92.785z"/>
		<path fill="#CCCCCC" d="M97.551,337.956v-1.261h3.864v1.261H97.551z"/>
		<path fill="#CCCCCC" d="M106.558,341.191l0.608-2.965h-1.181v-1.037h1.39l0.517-2.524h-1.907v-1.037h2.117l0.608-2.984h1.048
			l-0.608,2.984h2.201l0.608-2.984h1.055l-0.608,2.984h1.209v1.037h-1.418l-0.524,2.524h1.943v1.037h-2.152l-0.608,2.965h-1.048
			l0.601-2.965h-2.194l-0.608,2.965H106.558z M108.424,337.189h2.194l0.524-2.524h-2.201L108.424,337.189z"/>
		<path fill="#CCCCCC" d="M114.44,337.741l1.278-0.111c0.061,0.51,0.202,0.928,0.423,1.256c0.221,0.326,0.565,0.592,1.031,0.793
			c0.466,0.201,0.99,0.303,1.572,0.303c0.517,0,0.974-0.076,1.37-0.23c0.396-0.151,0.69-0.362,0.884-0.629
			c0.193-0.268,0.29-0.559,0.29-0.873c0-0.319-0.093-0.6-0.279-0.84c-0.187-0.238-0.494-0.438-0.922-0.602
			c-0.275-0.105-0.883-0.271-1.824-0.496c-0.941-0.227-1.6-0.438-1.977-0.637c-0.489-0.256-0.854-0.572-1.094-0.951
			c-0.24-0.377-0.36-0.801-0.36-1.27c0-0.517,0.146-0.996,0.44-1.443c0.293-0.449,0.722-0.787,1.286-1.02
			c0.563-0.232,1.19-0.349,1.879-0.349c0.759,0,1.429,0.121,2.009,0.364c0.58,0.242,1.026,0.603,1.338,1.074
			c0.312,0.473,0.48,1.011,0.503,1.607l-1.299,0.098c-0.07-0.645-0.307-1.133-0.709-1.461c-0.403-0.33-0.998-0.494-1.785-0.494
			c-0.82,0-1.417,0.148-1.792,0.449c-0.375,0.299-0.562,0.66-0.562,1.082c0,0.365,0.133,0.668,0.398,0.904
			c0.261,0.236,0.942,0.479,2.044,0.727s1.857,0.465,2.267,0.65c0.596,0.273,1.037,0.621,1.321,1.041
			c0.284,0.42,0.426,0.904,0.426,1.451c0,0.543-0.156,1.055-0.468,1.533c-0.312,0.479-0.76,0.854-1.345,1.121
			c-0.584,0.268-1.243,0.399-1.974,0.399c-0.927,0-1.704-0.135-2.331-0.403c-0.627-0.27-1.118-0.675-1.474-1.216
			C114.646,339.034,114.459,338.422,114.44,337.741z"/>
		<path fill="#CCCCCC" d="M127.053,341.018v-8.998h-3.375v-1.203h8.12v1.203h-3.389v8.998H127.053z"/>
		<path fill="#CCCCCC" d="M131.001,341.018l3.934-10.201h1.46l4.192,10.201h-1.544l-1.195-3.09h-4.283l-1.125,3.09H131.001z
			 M133.957,336.829h3.473l-1.069-2.826c-0.326-0.857-0.568-1.562-0.727-2.115c-0.13,0.654-0.314,1.305-0.552,1.949L133.957,336.829
			z"/>
		<path fill="#CCCCCC" d="M141.692,341.018v-10.201h4.542c0.913,0,1.607,0.092,2.082,0.273c0.476,0.184,0.855,0.508,1.139,0.971
			c0.284,0.465,0.426,0.977,0.426,1.539c0,0.723-0.235,1.334-0.706,1.83c-0.471,0.496-1.197,0.811-2.18,0.945
			c0.358,0.172,0.631,0.342,0.817,0.508c0.396,0.363,0.771,0.814,1.125,1.357l1.782,2.776h-1.705l-1.356-2.123
			c-0.396-0.61-0.722-1.08-0.978-1.405c-0.256-0.324-0.486-0.552-0.688-0.683c-0.203-0.129-0.409-0.222-0.618-0.271
			c-0.154-0.031-0.405-0.05-0.755-0.05h-1.572v4.531L141.692,341.018L141.692,341.018z M143.047,335.318h2.914
			c0.62,0,1.104-0.063,1.453-0.19c0.35-0.127,0.615-0.332,0.797-0.613c0.182-0.279,0.272-0.586,0.272-0.914
			c0-0.482-0.176-0.879-0.528-1.189c-0.352-0.312-0.907-0.467-1.667-0.467h-3.242L143.047,335.318L143.047,335.318z"/>
		<path fill="#CCCCCC" d="M154.353,341.018v-8.998h-3.375v-1.203h8.12v1.203h-3.389v8.998H154.353z"/>
		<path fill="#CCCCCC" d="M165.995,341.018l-2.718-10.201h1.391l1.558,6.688c0.167,0.699,0.312,1.396,0.433,2.086
			c0.261-1.09,0.415-1.719,0.461-1.885l1.949-6.889h1.635l1.467,5.162c0.368,1.281,0.633,2.484,0.797,3.611
			c0.13-0.646,0.3-1.385,0.51-2.219l1.607-6.556h1.362l-2.809,10.201h-1.307l-2.159-7.772c-0.182-0.648-0.289-1.05-0.321-1.197
			c-0.107,0.469-0.208,0.867-0.3,1.197l-2.173,7.772L165.995,341.018L165.995,341.018z"/>
		<path fill="#CCCCCC" d="M177.741,341.018v-10.201h7.407v1.203h-6.051v3.125h5.667v1.197h-5.667v3.471h6.289v1.205H177.741z"/>
		<path fill="#CCCCCC" d="M187.202,341.018v-10.201h3.843c0.783,0,1.411,0.104,1.883,0.309c0.473,0.207,0.843,0.525,1.111,0.953
			c0.268,0.43,0.401,0.879,0.401,1.348c0,0.437-0.119,0.847-0.356,1.23c-0.238,0.387-0.597,0.697-1.076,0.934
			c0.619,0.181,1.096,0.488,1.429,0.927c0.333,0.437,0.5,0.95,0.5,1.545c0,0.478-0.101,0.922-0.304,1.332s-0.453,0.728-0.751,0.948
			c-0.298,0.224-0.672,0.392-1.122,0.505c-0.45,0.114-1,0.172-1.653,0.172L187.202,341.018L187.202,341.018z M188.558,335.102h2.215
			c0.601,0,1.032-0.039,1.293-0.117c0.345-0.102,0.604-0.271,0.779-0.508c0.175-0.236,0.262-0.533,0.262-0.891
			c0-0.34-0.082-0.637-0.245-0.896c-0.163-0.258-0.396-0.435-0.699-0.528c-0.303-0.096-0.822-0.144-1.558-0.144h-2.047V335.102z
			 M188.558,339.812h2.55c0.438,0,0.746-0.017,0.922-0.049c0.312-0.056,0.573-0.147,0.783-0.277
			c0.209-0.131,0.382-0.317,0.517-0.565c0.135-0.248,0.203-0.535,0.203-0.859c0-0.381-0.098-0.711-0.293-0.992
			c-0.195-0.281-0.467-0.479-0.814-0.592s-0.847-0.17-1.499-0.17h-2.369L188.558,339.812L188.558,339.812z"/>
		<path fill="#CCCCCC" d="M196.342,337.741l1.278-0.111c0.061,0.51,0.202,0.928,0.423,1.256c0.221,0.326,0.565,0.592,1.031,0.793
			s0.99,0.303,1.572,0.303c0.517,0,0.974-0.076,1.37-0.23c0.396-0.151,0.69-0.362,0.884-0.629c0.193-0.268,0.29-0.559,0.29-0.873
			c0-0.319-0.093-0.6-0.279-0.84c-0.187-0.238-0.494-0.438-0.922-0.602c-0.275-0.105-0.883-0.271-1.824-0.496
			c-0.941-0.227-1.6-0.438-1.977-0.637c-0.489-0.256-0.854-0.572-1.094-0.951c-0.24-0.377-0.36-0.801-0.36-1.27
			c0-0.517,0.146-0.996,0.44-1.443c0.293-0.449,0.722-0.787,1.286-1.02c0.563-0.232,1.19-0.349,1.879-0.349
			c0.759,0,1.429,0.121,2.009,0.364c0.58,0.242,1.026,0.603,1.338,1.074c0.312,0.473,0.48,1.011,0.503,1.607l-1.299,0.098
			c-0.07-0.645-0.307-1.133-0.709-1.461c-0.403-0.33-0.998-0.494-1.785-0.494c-0.82,0-1.417,0.148-1.792,0.449
			c-0.375,0.299-0.562,0.66-0.562,1.082c0,0.365,0.133,0.668,0.398,0.904c0.261,0.236,0.942,0.479,2.044,0.727
			s1.857,0.465,2.267,0.65c0.596,0.273,1.037,0.621,1.321,1.041c0.284,0.42,0.426,0.904,0.426,1.451
			c0,0.543-0.156,1.055-0.468,1.533c-0.312,0.479-0.76,0.854-1.345,1.121c-0.584,0.268-1.243,0.399-1.974,0.399
			c-0.927,0-1.704-0.135-2.331-0.403c-0.627-0.27-1.118-0.675-1.474-1.216C196.548,339.034,196.36,338.422,196.342,337.741z"/>
		<path fill="#CCCCCC" d="M206.578,341.018v-10.201h1.356v10.201H206.578z"/>
		<path fill="#CCCCCC" d="M212.93,341.018v-8.998h-3.375v-1.203h8.12v1.203h-3.389v8.998H212.93z"/>
		<path fill="#CCCCCC" d="M219.093,341.018v-10.201h7.407v1.203h-6.051v3.125h5.667v1.197h-5.667v3.471h6.289v1.205H219.093z"/>
		<path fill="#CCCCCC" d="M231.937,337.956v-1.261h3.864v1.261H231.937z"/>
		<path fill="#CCCCCC" d="M236.702,337.956v-1.261h3.864v1.261H236.702z"/>
		<path fill="#CCCCCC" d="M248.581,336.557l-6.785,2.889V338.2l5.374-2.221l-5.374-2.199v-1.244l6.785,2.853V336.557z"/>
		<path fill="#979696" d="M80.781,358.725v-1.168l6.785-2.854v1.246l-5.38,2.198l5.38,2.22v1.245L80.781,358.725z"/>
		<path fill="#979696" d="M94.113,363.186v-0.932c-0.471,0.731-1.163,1.1-2.075,1.1c-0.592,0-1.136-0.162-1.632-0.488
			c-0.496-0.324-0.88-0.777-1.153-1.359s-0.409-1.252-0.409-2.008c0-0.738,0.123-1.406,0.37-2.008
			c0.247-0.6,0.617-1.061,1.111-1.381s1.045-0.48,1.656-0.48c0.447,0,0.846,0.095,1.195,0.281c0.35,0.189,0.634,0.434,0.853,0.734
			v-3.66h1.251v10.201L94.113,363.186L94.113,363.186z M90.137,359.499c0,0.946,0.2,1.653,0.601,2.123
			c0.4,0.469,0.874,0.7,1.418,0.7c0.55,0,1.017-0.223,1.401-0.67c0.384-0.448,0.577-1.131,0.577-2.051
			c0-1.011-0.196-1.752-0.587-2.228c-0.392-0.473-0.874-0.709-1.447-0.709c-0.559,0-1.026,0.228-1.401,0.683
			C90.324,357.801,90.137,358.52,90.137,359.499z"/>
		<path fill="#979696" d="M97.264,354.426v-1.441h1.258v1.441H97.264z M97.264,363.186v-7.389h1.258v7.389H97.264z"/>
		<path fill="#979696" d="M102.498,363.186l-2.823-7.389h1.328l1.593,4.424c0.172,0.479,0.331,0.975,0.475,1.49
			c0.112-0.392,0.268-0.857,0.468-1.406l1.649-4.508h1.293l-2.809,7.389H102.498z"/>
		<path fill="#979696" d="M116.41,360.479l1.237,0.16c-0.135,0.85-0.481,1.514-1.038,1.994c-0.557,0.479-1.24,0.721-2.051,0.721
			c-1.016,0-1.832-0.33-2.449-0.992c-0.617-0.66-0.926-1.609-0.926-2.842c0-0.799,0.133-1.496,0.398-2.096
			c0.265-0.598,0.669-1.047,1.212-1.346c0.543-0.3,1.133-0.449,1.771-0.449c0.806,0,1.465,0.203,1.978,0.608
			c0.512,0.406,0.841,0.981,0.985,1.729l-1.223,0.188c-0.117-0.496-0.323-0.869-0.619-1.119c-0.296-0.252-0.653-0.377-1.073-0.377
			c-0.633,0-1.148,0.227-1.544,0.68c-0.396,0.451-0.594,1.168-0.594,2.146c0,0.992,0.191,1.715,0.573,2.164
			c0.382,0.449,0.88,0.674,1.495,0.674c0.494,0,0.906-0.15,1.237-0.451C116.112,361.57,116.322,361.105,116.41,360.479z"/>
		<path fill="#979696" d="M118.695,363.186v-10.201h1.258v10.201H118.695z"/>
		<path fill="#979696" d="M126.745,362.275c-0.466,0.394-0.914,0.672-1.345,0.834c-0.431,0.162-0.893,0.244-1.387,0.244
			c-0.815,0-1.442-0.199-1.88-0.597c-0.438-0.396-0.657-0.901-0.657-1.52c0-0.363,0.083-0.693,0.248-0.992s0.382-0.539,0.65-0.721
			c0.268-0.18,0.569-0.316,0.905-0.41c0.247-0.064,0.62-0.127,1.118-0.188c1.016-0.121,1.763-0.266,2.243-0.432
			c0.004-0.173,0.007-0.281,0.007-0.328c0-0.511-0.119-0.869-0.356-1.078c-0.321-0.283-0.799-0.424-1.433-0.424
			c-0.591,0-1.028,0.104-1.31,0.309c-0.282,0.207-0.49,0.572-0.625,1.098l-1.229-0.168c0.112-0.523,0.295-0.947,0.552-1.27
			s0.626-0.57,1.111-0.744c0.484-0.174,1.045-0.262,1.684-0.262c0.634,0,1.148,0.074,1.544,0.223s0.687,0.336,0.874,0.561
			c0.186,0.225,0.317,0.51,0.391,0.853c0.042,0.215,0.063,0.6,0.063,1.155v1.67c0,1.164,0.027,1.9,0.081,2.209
			c0.053,0.31,0.159,0.604,0.318,0.888h-1.314C126.866,362.926,126.782,362.624,126.745,362.275z M126.64,359.477
			c-0.457,0.186-1.142,0.344-2.055,0.475c-0.517,0.074-0.883,0.156-1.097,0.25c-0.214,0.092-0.379,0.229-0.496,0.406
			c-0.116,0.18-0.174,0.377-0.174,0.596c0,0.334,0.126,0.611,0.381,0.834c0.253,0.224,0.625,0.334,1.114,0.334
			c0.484,0,0.916-0.104,1.293-0.315s0.654-0.5,0.832-0.865c0.135-0.282,0.203-0.7,0.203-1.254L126.64,359.477L126.64,359.477z"/>
		<path fill="#979696" d="M129.358,360.98l1.244-0.194c0.07,0.496,0.264,0.877,0.583,1.141c0.319,0.266,0.765,0.396,1.338,0.396
			c0.578,0,1.006-0.114,1.286-0.35c0.28-0.234,0.419-0.511,0.419-0.826c0-0.283-0.124-0.506-0.37-0.668
			c-0.172-0.11-0.601-0.252-1.286-0.424c-0.922-0.232-1.562-0.433-1.918-0.603s-0.626-0.404-0.811-0.703s-0.276-0.629-0.276-0.992
			c0-0.327,0.076-0.635,0.227-0.914c0.151-0.28,0.357-0.514,0.618-0.698c0.196-0.146,0.462-0.267,0.8-0.365s0.7-0.149,1.086-0.149
			c0.583,0,1.094,0.084,1.534,0.25c0.44,0.168,0.765,0.395,0.975,0.68s0.354,0.666,0.433,1.145l-1.23,0.166
			c-0.056-0.379-0.218-0.678-0.485-0.891c-0.268-0.213-0.646-0.32-1.136-0.32c-0.578,0-0.99,0.096-1.237,0.285
			c-0.247,0.191-0.37,0.414-0.37,0.668c0,0.164,0.051,0.309,0.154,0.439c0.103,0.135,0.263,0.246,0.482,0.334
			c0.126,0.047,0.496,0.152,1.111,0.32c0.89,0.235,1.51,0.43,1.862,0.58c0.352,0.151,0.628,0.37,0.828,0.657
			c0.2,0.287,0.301,0.646,0.301,1.072c0,0.416-0.123,0.812-0.367,1.18c-0.245,0.367-0.597,0.652-1.059,0.854
			c-0.461,0.201-0.983,0.304-1.565,0.304c-0.964,0-1.699-0.199-2.205-0.601C129.82,362.355,129.498,361.764,129.358,360.98z"/>
		<path fill="#979696" d="M136.514,360.98l1.244-0.194c0.07,0.496,0.264,0.877,0.583,1.141c0.319,0.266,0.765,0.396,1.338,0.396
			c0.578,0,1.006-0.114,1.286-0.35c0.28-0.234,0.419-0.511,0.419-0.826c0-0.283-0.124-0.506-0.37-0.668
			c-0.172-0.11-0.601-0.252-1.286-0.424c-0.922-0.232-1.562-0.433-1.918-0.603s-0.626-0.404-0.811-0.703s-0.276-0.629-0.276-0.992
			c0-0.327,0.076-0.635,0.227-0.914c0.151-0.28,0.357-0.514,0.618-0.698c0.196-0.146,0.462-0.267,0.8-0.365
			c0.338-0.099,0.7-0.149,1.086-0.149c0.583,0,1.094,0.084,1.534,0.25c0.44,0.168,0.765,0.395,0.975,0.68s0.354,0.666,0.433,1.145
			l-1.23,0.166c-0.056-0.379-0.218-0.678-0.485-0.891c-0.268-0.213-0.646-0.32-1.136-0.32c-0.578,0-0.99,0.096-1.237,0.285
			c-0.247,0.191-0.37,0.414-0.37,0.668c0,0.164,0.051,0.309,0.154,0.439c0.103,0.135,0.263,0.246,0.482,0.334
			c0.126,0.047,0.496,0.152,1.111,0.32c0.89,0.235,1.51,0.43,1.862,0.58c0.352,0.151,0.628,0.37,0.828,0.657
			s0.301,0.646,0.301,1.072c0,0.416-0.123,0.812-0.367,1.18c-0.245,0.367-0.597,0.652-1.059,0.854
			c-0.461,0.201-0.983,0.304-1.565,0.304c-0.964,0-1.699-0.199-2.205-0.601C136.976,362.355,136.653,361.764,136.514,360.98z"/>
		<path fill="#979696" d="M150.789,357.188h-6.764v-1.168h6.764V357.188z M150.789,360.286h-6.764v-1.17h6.764V360.286z"/>
		<path fill="#979696" d="M152.193,354.334v-1.453h1.349v1.147c0,0.621-0.072,1.068-0.217,1.343c-0.2,0.377-0.512,0.66-0.936,0.85
			l-0.308-0.494c0.251-0.102,0.439-0.264,0.562-0.484c0.124-0.219,0.192-0.521,0.206-0.908h-0.656V354.334z M154.359,354.334v-1.453
			h1.349v1.147c0,0.621-0.072,1.068-0.216,1.343c-0.201,0.377-0.513,0.66-0.937,0.85l-0.308-0.494
			c0.252-0.102,0.439-0.264,0.562-0.484c0.124-0.219,0.192-0.521,0.207-0.908h-0.657V354.334z"/>
		<path fill="#979696" d="M158.664,363.186l-2.271-7.389h1.3l1.181,4.266l0.44,1.586c0.019-0.078,0.146-0.588,0.384-1.523
			l1.181-4.328h1.293l1.111,4.285l0.371,1.412l0.426-1.426l1.271-4.271h1.223l-2.32,7.39h-1.307l-1.181-4.427l-0.287-1.26
			l-1.502,5.687L158.664,363.186L158.664,363.186z"/>
		<path fill="#979696" d="M172.709,360.807l1.3,0.16c-0.205,0.756-0.585,1.342-1.139,1.76c-0.555,0.418-1.263,0.627-2.125,0.627
			c-1.085,0-1.946-0.334-2.582-1c-0.636-0.664-0.954-1.598-0.954-2.801c0-1.242,0.322-2.207,0.964-2.895
			c0.643-0.687,1.477-1.029,2.501-1.029c0.992,0,1.803,0.336,2.432,1.01c0.629,0.672,0.943,1.619,0.943,2.838
			c0,0.074-0.002,0.186-0.007,0.334h-5.534c0.046,0.812,0.277,1.434,0.692,1.865c0.415,0.431,0.932,0.646,1.551,0.646
			c0.461,0,0.854-0.119,1.181-0.361C172.259,361.721,172.518,361.336,172.709,360.807z M168.579,358.782h4.144
			c-0.056-0.621-0.214-1.089-0.475-1.398c-0.4-0.482-0.92-0.725-1.558-0.725c-0.578,0-1.063,0.192-1.457,0.577
			C168.839,357.622,168.621,358.137,168.579,358.782z"/>
		<path fill="#979696" d="M176.748,363.186h-1.167v-10.201h1.258v3.641c0.531-0.664,1.208-0.996,2.033-0.996
			c0.457,0,0.889,0.093,1.296,0.275c0.407,0.184,0.743,0.439,1.006,0.771s0.469,0.732,0.619,1.201
			c0.149,0.469,0.224,0.969,0.224,1.502c0,1.268-0.314,2.246-0.943,2.938c-0.629,0.691-1.384,1.037-2.264,1.037
			c-0.876,0-1.563-0.365-2.062-1.094V363.186z M176.734,359.436c0,0.887,0.121,1.525,0.363,1.92
			c0.396,0.645,0.932,0.967,1.607,0.967c0.55,0,1.025-0.236,1.426-0.713c0.4-0.475,0.601-1.184,0.601-2.125
			c0-0.965-0.192-1.678-0.577-2.137c-0.385-0.459-0.849-0.689-1.394-0.689c-0.55,0-1.025,0.238-1.425,0.715
			C176.934,357.848,176.734,358.536,176.734,359.436z"/>
		<path fill="#979696" d="M183.044,360.98l1.244-0.194c0.07,0.496,0.264,0.877,0.583,1.141c0.319,0.266,0.765,0.396,1.338,0.396
			c0.578,0,1.006-0.114,1.286-0.35c0.28-0.234,0.419-0.511,0.419-0.826c0-0.283-0.124-0.506-0.37-0.668
			c-0.172-0.11-0.601-0.252-1.286-0.424c-0.922-0.232-1.562-0.433-1.918-0.603s-0.626-0.404-0.811-0.703s-0.276-0.629-0.276-0.992
			c0-0.327,0.076-0.635,0.227-0.914c0.151-0.28,0.357-0.514,0.618-0.698c0.196-0.146,0.462-0.267,0.8-0.365s0.7-0.149,1.086-0.149
			c0.583,0,1.094,0.084,1.534,0.25c0.44,0.168,0.765,0.395,0.975,0.68s0.354,0.666,0.433,1.145l-1.23,0.166
			c-0.056-0.379-0.218-0.678-0.485-0.891c-0.268-0.213-0.646-0.32-1.136-0.32c-0.578,0-0.99,0.096-1.237,0.285
			c-0.247,0.191-0.37,0.414-0.37,0.668c0,0.164,0.051,0.309,0.154,0.439c0.103,0.135,0.263,0.246,0.482,0.334
			c0.126,0.047,0.496,0.152,1.111,0.32c0.89,0.235,1.51,0.43,1.862,0.58c0.352,0.151,0.628,0.37,0.828,0.657
			c0.2,0.287,0.301,0.646,0.301,1.072c0,0.416-0.123,0.812-0.367,1.18c-0.245,0.367-0.597,0.652-1.059,0.854
			c-0.461,0.201-0.983,0.304-1.565,0.304c-0.964,0-1.699-0.199-2.205-0.601C183.506,362.355,183.184,361.764,183.044,360.98z"/>
		<path fill="#979696" d="M190.709,354.426v-1.441h1.258v1.441H190.709z M190.709,363.186v-7.389h1.258v7.389H190.709z"/>
		<path fill="#979696" d="M196.627,362.066l0.182,1.104c-0.354,0.074-0.671,0.111-0.95,0.111c-0.457,0-0.811-0.072-1.062-0.215
			c-0.252-0.145-0.429-0.334-0.531-0.568c-0.102-0.233-0.154-0.727-0.154-1.479v-4.252h-0.922v-0.973h0.922v-1.83l1.251-0.752v2.582
			h1.265v0.973h-1.265v4.322c0,0.356,0.022,0.586,0.066,0.688c0.044,0.103,0.116,0.183,0.216,0.242s0.244,0.092,0.43,0.092
			C196.215,362.116,196.399,362.098,196.627,362.066z"/>
		<path fill="#979696" d="M202.938,360.807l1.3,0.16c-0.205,0.756-0.585,1.342-1.139,1.76c-0.555,0.418-1.263,0.627-2.125,0.627
			c-1.085,0-1.946-0.334-2.582-1c-0.636-0.664-0.954-1.598-0.954-2.801c0-1.242,0.322-2.207,0.964-2.895
			c0.643-0.687,1.477-1.029,2.501-1.029c0.992,0,1.803,0.336,2.432,1.01c0.629,0.672,0.943,1.619,0.943,2.838
			c0,0.074-0.002,0.186-0.007,0.334h-5.534c0.046,0.812,0.277,1.434,0.692,1.865c0.415,0.431,0.932,0.646,1.551,0.646
			c0.461,0,0.854-0.119,1.181-0.361C202.488,361.721,202.746,361.336,202.938,360.807z M198.808,358.782h4.144
			c-0.056-0.621-0.214-1.089-0.475-1.398c-0.4-0.482-0.92-0.725-1.558-0.725c-0.578,0-1.063,0.192-1.457,0.577
			C199.068,357.622,198.85,358.137,198.808,358.782z"/>
		<path fill="#979696" d="M204.656,366.018v-0.904h8.336v0.904H204.656z"/>
		<path fill="#979696" d="M213.719,366.032l-0.14-1.177c0.275,0.074,0.515,0.11,0.72,0.11c0.28,0,0.503-0.045,0.671-0.139
			c0.167-0.092,0.305-0.223,0.412-0.389c0.079-0.127,0.208-0.438,0.384-0.934c0.023-0.068,0.061-0.172,0.112-0.308l-2.816-7.401
			h1.356l1.544,4.279c0.2,0.543,0.38,1.112,0.538,1.711c0.145-0.574,0.317-1.138,0.517-1.685l1.586-4.308h1.257l-2.823,7.515
			c-0.303,0.812-0.538,1.371-0.706,1.678c-0.224,0.412-0.48,0.716-0.769,0.908s-0.633,0.289-1.034,0.289
			C214.288,366.186,214.018,366.135,213.719,366.032z"/>
		<path fill="#979696" d="M220.462,359.491c0-1.367,0.382-2.382,1.146-3.041c0.638-0.548,1.416-0.82,2.334-0.82
			c1.02,0,1.854,0.332,2.501,0.998s0.971,1.586,0.971,2.76c0,0.951-0.143,1.699-0.43,2.244c-0.287,0.545-0.704,0.969-1.251,1.27
			c-0.547,0.303-1.145,0.453-1.792,0.453c-1.039,0-1.879-0.332-2.519-0.996C220.783,361.695,220.462,360.738,220.462,359.491z
			 M221.755,359.491c0,0.946,0.207,1.655,0.622,2.127c0.415,0.471,0.937,0.704,1.565,0.704c0.624,0,1.144-0.235,1.558-0.709
			c0.414-0.473,0.622-1.194,0.622-2.163c0-0.914-0.208-1.605-0.625-2.076c-0.417-0.474-0.935-0.707-1.555-0.707
			c-0.629,0-1.151,0.233-1.565,0.703C221.963,357.838,221.755,358.545,221.755,359.491z"/>
		<path fill="#979696" d="M228.554,354.334v-1.453h1.349v1.147c0,0.621-0.072,1.068-0.217,1.343c-0.2,0.377-0.512,0.66-0.936,0.85
			l-0.308-0.494c0.251-0.102,0.439-0.264,0.562-0.484c0.124-0.219,0.192-0.521,0.206-0.908h-0.656V354.334z M230.72,354.334v-1.453
			h1.349v1.147c0,0.621-0.072,1.068-0.216,1.343c-0.201,0.377-0.513,0.66-0.937,0.85l-0.308-0.494
			c0.252-0.102,0.439-0.264,0.562-0.484c0.124-0.219,0.192-0.521,0.207-0.908h-0.657V354.334z"/>
		<path fill="#979696" d="M240.279,358.725l-6.785,2.889v-1.246l5.374-2.219l-5.374-2.199v-1.246l6.785,2.854V358.725z"/>
		<path fill="#979696" d="M109.402,380.893v-1.168l6.785-2.854v1.246l-5.38,2.198l5.38,2.22v1.246L109.402,380.893z"/>
		<path fill="#979696" d="M117.919,385.354v-10.201h1.258v3.66c0.587-0.678,1.328-1.016,2.222-1.016
			c0.549,0,1.027,0.106,1.432,0.324c0.405,0.215,0.695,0.514,0.87,0.895c0.175,0.379,0.262,0.932,0.262,1.654v4.684h-1.258v-4.684
			c0-0.625-0.136-1.082-0.409-1.367s-0.658-0.428-1.157-0.428c-0.373,0-0.723,0.098-1.052,0.289
			c-0.328,0.192-0.562,0.453-0.702,0.782c-0.14,0.33-0.209,0.783-0.209,1.363v4.043L117.919,385.354L117.919,385.354z"/>
		<path fill="#979696" d="M130.267,385.354h-1.258v-7.98c-0.303,0.287-0.7,0.574-1.191,0.861c-0.492,0.289-0.933,0.504-1.324,0.648
			v-1.211c0.704-0.33,1.318-0.729,1.845-1.197c0.527-0.469,0.899-0.924,1.118-1.363h0.811L130.267,385.354L130.267,385.354z"/>
		<path fill="#979696" d="M140.461,380.893l-6.785,2.889v-1.246l5.374-2.219l-5.374-2.199v-1.246l6.785,2.854V380.893z"/>
		<path fill="#979696" d="M142.299,385.354v-10.201h3.843c0.783,0,1.411,0.104,1.883,0.311c0.473,0.205,0.843,0.523,1.111,0.953
			c0.268,0.431,0.401,0.877,0.401,1.347c0,0.438-0.119,0.848-0.356,1.231c-0.238,0.385-0.597,0.695-1.076,0.933
			c0.619,0.182,1.096,0.489,1.429,0.926s0.5,0.951,0.5,1.545c0,0.479-0.101,0.922-0.304,1.332c-0.203,0.412-0.453,0.729-0.751,0.951
			c-0.298,0.223-0.672,0.392-1.122,0.504s-1,0.17-1.653,0.17L142.299,385.354L142.299,385.354z M143.655,379.439h2.215
			c0.601,0,1.032-0.039,1.293-0.119c0.345-0.103,0.604-0.271,0.779-0.508c0.175-0.235,0.262-0.533,0.262-0.892
			c0-0.338-0.082-0.637-0.245-0.895c-0.163-0.256-0.396-0.434-0.699-0.527c-0.303-0.096-0.822-0.143-1.558-0.143h-2.047V379.439z
			 M143.655,384.15h2.55c0.438,0,0.746-0.017,0.922-0.049c0.312-0.058,0.573-0.147,0.783-0.279c0.209-0.129,0.382-0.317,0.517-0.565
			c0.135-0.248,0.203-0.535,0.203-0.859c0-0.381-0.098-0.711-0.293-0.992c-0.196-0.279-0.467-0.477-0.814-0.59
			c-0.347-0.115-0.847-0.172-1.499-0.172h-2.369L143.655,384.15L143.655,384.15z"/>
		<path fill="#979696" d="M151.725,385.354v-7.389h1.132v1.119c0.289-0.523,0.555-0.869,0.8-1.037
			c0.245-0.166,0.514-0.25,0.807-0.25c0.424,0,0.855,0.135,1.293,0.404l-0.434,1.161c-0.307-0.182-0.615-0.271-0.922-0.271
			c-0.275,0-0.521,0.082-0.741,0.246c-0.219,0.166-0.375,0.393-0.468,0.686c-0.14,0.445-0.21,0.934-0.21,1.461v3.869h-1.257V385.354
			z"/>
		<path fill="#979696" d="M161.347,384.443c-0.466,0.394-0.914,0.673-1.345,0.834c-0.431,0.162-0.893,0.244-1.387,0.244
			c-0.815,0-1.442-0.199-1.88-0.597c-0.438-0.396-0.657-0.901-0.657-1.52c0-0.363,0.083-0.693,0.248-0.992s0.382-0.539,0.65-0.721
			c0.268-0.18,0.569-0.316,0.905-0.41c0.247-0.064,0.62-0.127,1.118-0.188c1.016-0.121,1.763-0.266,2.243-0.432
			c0.004-0.172,0.007-0.281,0.007-0.328c0-0.51-0.119-0.869-0.356-1.078c-0.321-0.283-0.799-0.424-1.433-0.424
			c-0.591,0-1.028,0.104-1.31,0.309c-0.282,0.207-0.49,0.572-0.625,1.098l-1.229-0.168c0.112-0.523,0.295-0.947,0.552-1.27
			s0.626-0.57,1.111-0.744c0.484-0.174,1.045-0.262,1.684-0.262c0.634,0,1.148,0.074,1.544,0.223s0.687,0.336,0.874,0.561
			c0.186,0.226,0.317,0.51,0.391,0.853c0.042,0.215,0.063,0.6,0.063,1.155v1.67c0,1.164,0.027,1.9,0.081,2.209
			c0.053,0.31,0.159,0.604,0.318,0.888H161.6C161.468,385.094,161.384,384.792,161.347,384.443z M161.243,381.645
			c-0.457,0.186-1.142,0.344-2.055,0.475c-0.517,0.074-0.883,0.156-1.097,0.25c-0.214,0.092-0.379,0.229-0.496,0.406
			c-0.116,0.18-0.174,0.377-0.174,0.596c0,0.334,0.126,0.611,0.381,0.834c0.253,0.224,0.625,0.334,1.114,0.334
			c0.484,0,0.916-0.104,1.293-0.315s0.654-0.5,0.832-0.865c0.135-0.282,0.203-0.7,0.203-1.254L161.243,381.645L161.243,381.645z"/>
		<path fill="#979696" d="M164.464,385.354v-7.389h1.132v1.051c0.545-0.812,1.333-1.219,2.362-1.219c0.447,0,0.858,0.08,1.233,0.24
			c0.375,0.159,0.656,0.368,0.842,0.629c0.187,0.26,0.317,0.567,0.392,0.926c0.046,0.232,0.07,0.639,0.07,1.219v4.543h-1.258v-4.494
			c0-0.512-0.049-0.893-0.146-1.145c-0.098-0.254-0.271-0.455-0.521-0.605c-0.249-0.152-0.542-0.227-0.877-0.227
			c-0.536,0-0.998,0.17-1.387,0.508c-0.389,0.338-0.583,0.98-0.583,1.928v4.035H164.464z"/>
		<path fill="#979696" d="M177.237,385.354v-0.932c-0.471,0.731-1.163,1.1-2.075,1.1c-0.592,0-1.136-0.162-1.632-0.488
			c-0.496-0.324-0.88-0.777-1.153-1.359s-0.409-1.252-0.409-2.008c0-0.737,0.123-1.406,0.37-2.008
			c0.247-0.6,0.617-1.061,1.111-1.381c0.494-0.32,1.045-0.48,1.656-0.48c0.447,0,0.846,0.095,1.195,0.281
			c0.35,0.189,0.634,0.435,0.853,0.734v-3.66h1.251v10.201L177.237,385.354L177.237,385.354z M173.261,381.667
			c0,0.946,0.2,1.653,0.601,2.123c0.4,0.469,0.874,0.7,1.418,0.7c0.55,0,1.017-0.223,1.401-0.67
			c0.384-0.448,0.577-1.131,0.577-2.051c0-1.011-0.196-1.752-0.587-2.228c-0.392-0.473-0.874-0.709-1.447-0.709
			c-0.559,0-1.026,0.228-1.401,0.683C173.448,379.969,173.261,380.688,173.261,381.667z"/>
		<path fill="#979696" d="M180.389,376.594v-1.441h1.258v1.441H180.389z M180.389,385.354v-7.389h1.258v7.389H180.389z"/>
		<path fill="#979696" d="M183.561,385.354v-7.389h1.132v1.051c0.545-0.812,1.333-1.219,2.362-1.219c0.447,0,0.858,0.08,1.233,0.24
			c0.375,0.159,0.656,0.368,0.842,0.629c0.187,0.26,0.317,0.567,0.392,0.926c0.046,0.232,0.07,0.639,0.07,1.219v4.543h-1.258v-4.494
			c0-0.512-0.049-0.893-0.146-1.145c-0.098-0.254-0.271-0.455-0.521-0.605c-0.249-0.152-0.542-0.227-0.877-0.227
			c-0.536,0-0.998,0.17-1.387,0.508c-0.389,0.338-0.583,0.98-0.583,1.928v4.035H183.561z"/>
		<path fill="#979696" d="M191.29,385.967l1.223,0.18c0.051,0.377,0.193,0.65,0.426,0.822c0.312,0.232,0.738,0.348,1.279,0.348
			c0.582,0,1.032-0.115,1.349-0.348c0.316-0.232,0.531-0.557,0.643-0.975c0.065-0.257,0.096-0.791,0.091-1.607
			c-0.549,0.645-1.234,0.967-2.054,0.967c-1.02,0-1.81-0.365-2.369-1.1c-0.559-0.732-0.839-1.611-0.839-2.637
			c0-0.705,0.128-1.355,0.385-1.951c0.256-0.599,0.627-1.058,1.114-1.383c0.487-0.324,1.059-0.486,1.715-0.486
			c0.876,0,1.598,0.354,2.167,1.059v-0.891h1.16v6.387c0,1.15-0.118,1.967-0.353,2.447c-0.235,0.479-0.608,0.859-1.118,1.137
			c-0.51,0.279-1.138,0.418-1.883,0.418c-0.885,0-1.6-0.199-2.145-0.596C191.536,387.361,191.271,386.764,191.29,385.967z
			 M192.331,381.527c0,0.97,0.193,1.677,0.58,2.121c0.387,0.444,0.871,0.668,1.453,0.668c0.578,0,1.062-0.221,1.454-0.664
			c0.392-0.442,0.587-1.137,0.587-2.084c0-0.903-0.202-1.586-0.604-2.045c-0.403-0.461-0.889-0.688-1.457-0.688
			c-0.559,0-1.034,0.227-1.425,0.678C192.526,379.965,192.331,380.637,192.331,381.527z"/>
		<path fill="#979696" d="M199.808,385.354v-1.426h1.432v1.426c0,0.525-0.093,0.947-0.279,1.27
			c-0.187,0.324-0.482,0.572-0.888,0.748l-0.349-0.535c0.266-0.114,0.461-0.287,0.587-0.512c0.125-0.225,0.196-0.549,0.209-0.971
			L199.808,385.354L199.808,385.354z"/>
		<path fill="#979696" d="M214.314,375.152h1.355v5.896c0,1.024-0.116,1.84-0.349,2.44c-0.233,0.604-0.653,1.095-1.261,1.474
			s-1.406,0.565-2.394,0.565c-0.959,0-1.745-0.164-2.355-0.493c-0.61-0.328-1.045-0.806-1.307-1.431
			c-0.261-0.623-0.391-1.478-0.391-2.558v-5.895h1.355v5.887c0,0.887,0.083,1.539,0.248,1.959c0.166,0.42,0.45,0.744,0.853,0.972
			c0.403,0.229,0.896,0.342,1.478,0.342c0.997,0,1.707-0.226,2.131-0.676c0.424-0.449,0.636-1.313,0.636-2.597L214.314,375.152
			L214.314,375.152z"/>
		<path fill="#979696" d="M216.885,385.354l3.962-5.316l-3.494-4.885h1.614l1.859,2.617c0.387,0.543,0.662,0.959,0.825,1.252
			c0.228-0.371,0.498-0.758,0.811-1.162l2.061-2.707h1.475l-3.599,4.809l3.878,5.394H224.6l-2.579-3.64
			c-0.145-0.209-0.293-0.436-0.447-0.682c-0.228,0.371-0.391,0.625-0.489,0.766l-2.571,3.556L216.885,385.354L216.885,385.354z"/>
		<path fill="#979696" d="M227.639,385.354v-1.426h1.432v1.426c0,0.525-0.093,0.947-0.279,1.27
			c-0.187,0.324-0.482,0.572-0.888,0.748l-0.349-0.535c0.266-0.114,0.461-0.287,0.587-0.512c0.125-0.225,0.196-0.549,0.209-0.971
			L227.639,385.354L227.639,385.354z"/>
		<path fill="#979696" d="M237.212,385.354l-2.718-10.201h1.391l1.558,6.688c0.167,0.701,0.312,1.396,0.433,2.089
			c0.261-1.091,0.415-1.72,0.461-1.888l1.949-6.889h1.635l1.467,5.164c0.368,1.279,0.633,2.484,0.797,3.611
			c0.13-0.645,0.3-1.385,0.51-2.221l1.607-6.556h1.362l-2.809,10.201h-1.307l-2.159-7.771c-0.182-0.65-0.289-1.049-0.321-1.197
			c-0.107,0.469-0.208,0.867-0.3,1.197l-2.173,7.771L237.212,385.354L237.212,385.354z"/>
		<path fill="#979696" d="M253.591,382.975l1.3,0.16c-0.205,0.756-0.585,1.342-1.139,1.76c-0.555,0.418-1.263,0.627-2.125,0.627
			c-1.085,0-1.946-0.334-2.582-1c-0.636-0.664-0.954-1.598-0.954-2.801c0-1.242,0.322-2.207,0.964-2.895
			c0.643-0.687,1.477-1.029,2.501-1.029c0.992,0,1.803,0.336,2.432,1.01c0.629,0.672,0.943,1.619,0.943,2.838
			c0,0.074-0.002,0.186-0.007,0.334h-5.534c0.046,0.812,0.277,1.434,0.692,1.865c0.415,0.431,0.932,0.646,1.551,0.646
			c0.461,0,0.854-0.119,1.181-0.361C253.142,383.889,253.4,383.504,253.591,382.975z M249.461,380.95h4.144
			c-0.056-0.621-0.214-1.089-0.475-1.398c-0.4-0.482-0.92-0.725-1.558-0.725c-0.578,0-1.063,0.192-1.457,0.577
			C249.721,379.79,249.503,380.305,249.461,380.95z"/>
	</g>
	<g>
		<path fill="#D8D8D8" d="M53.174,119.123H51.21v-7.369c-0.717,0.668-1.563,1.162-2.537,1.482v-1.774
			c0.513-0.167,1.069-0.483,1.67-0.95c0.601-0.466,1.013-1.01,1.237-1.632h1.593L53.174,119.123L53.174,119.123z"/>
		<path fill="#D8D8D8" d="M54.781,139.476v1.816h-6.883c0.074-0.687,0.298-1.337,0.671-1.952c0.373-0.615,1.108-1.43,2.208-2.446
			c0.885-0.821,1.428-1.378,1.628-1.67c0.27-0.404,0.405-0.803,0.405-1.197c0-0.436-0.118-0.771-0.353-1.006
			c-0.235-0.234-0.561-0.351-0.975-0.351c-0.41,0-0.736,0.123-0.978,0.369s-0.382,0.654-0.419,1.225l-1.957-0.195
			c0.116-1.076,0.482-1.849,1.097-2.317c0.615-0.469,1.383-0.703,2.306-0.703c1.011,0,1.805,0.271,2.383,0.814
			c0.578,0.542,0.867,1.218,0.867,2.025c0,0.459-0.083,0.896-0.248,1.312c-0.166,0.415-0.428,0.85-0.786,1.305
			c-0.238,0.302-0.667,0.735-1.286,1.301c-0.62,0.566-1.012,0.942-1.178,1.127c-0.165,0.186-0.299,0.366-0.402,0.542L54.781,139.476
			L54.781,139.476z"/>
		<path fill="#D8D8D8" d="M48.08,160.753l1.9-0.229c0.061,0.482,0.224,0.852,0.489,1.106c0.266,0.255,0.587,0.383,0.964,0.383
			c0.405,0,0.747-0.153,1.024-0.459c0.277-0.306,0.416-0.719,0.416-1.239c0-0.492-0.133-0.881-0.398-1.169s-0.589-0.431-0.971-0.431
			c-0.251,0-0.552,0.048-0.901,0.146l0.217-1.594c0.531,0.014,0.936-0.101,1.216-0.344c0.279-0.244,0.419-0.567,0.419-0.971
			c0-0.343-0.103-0.617-0.307-0.821c-0.205-0.204-0.478-0.306-0.818-0.306c-0.335,0-0.622,0.116-0.859,0.348
			c-0.237,0.232-0.382,0.57-0.433,1.016l-1.81-0.306c0.126-0.617,0.316-1.11,0.57-1.479c0.254-0.369,0.608-0.659,1.062-0.87
			s0.963-0.317,1.527-0.317c0.964,0,1.737,0.306,2.32,0.918c0.479,0.501,0.72,1.067,0.72,1.698c0,0.895-0.492,1.61-1.475,2.143
			c0.587,0.125,1.057,0.406,1.408,0.842c0.352,0.437,0.527,0.963,0.527,1.58c0,0.896-0.328,1.659-0.985,2.29
			s-1.475,0.946-2.453,0.946c-0.927,0-1.696-0.265-2.306-0.796S48.178,161.612,48.08,160.753z"/>
		<path fill="#D8D8D8" d="M52,185.629v-2.053h-4.192v-1.712l4.444-6.479h1.649v6.472h1.271v1.719h-1.271v2.053L52,185.629
			L52,185.629z M52,181.857v-3.486l-2.355,3.486H52z"/>
		<path fill="#D8D8D8" d="M48.178,205.174l1.957-0.202c0.056,0.441,0.221,0.79,0.496,1.047c0.275,0.257,0.592,0.386,0.951,0.386
			c0.41,0,0.757-0.166,1.041-0.498s0.426-0.832,0.426-1.5c0-0.626-0.141-1.096-0.423-1.409s-0.649-0.47-1.101-0.47
			c-0.563,0-1.069,0.248-1.516,0.745l-1.593-0.23l1.006-5.309h5.191v1.83H50.91l-0.308,1.732c0.438-0.218,0.885-0.327,1.342-0.327
			c0.871,0,1.609,0.315,2.215,0.946s0.909,1.45,0.909,2.456c0,0.84-0.245,1.589-0.734,2.248c-0.667,0.9-1.591,1.35-2.774,1.35
			c-0.946,0-1.717-0.252-2.313-0.758C48.65,206.708,48.294,206.028,48.178,205.174z"/>
		<path fill="#D8D8D8" d="M54.802,222.264l-1.901,0.209c-0.046-0.391-0.167-0.678-0.363-0.863c-0.196-0.186-0.45-0.279-0.762-0.279
			c-0.415,0-0.765,0.187-1.052,0.558c-0.286,0.37-0.467,1.146-0.542,2.317c0.489-0.576,1.097-0.863,1.824-0.863
			c0.82,0,1.522,0.312,2.107,0.933c0.584,0.623,0.877,1.427,0.877,2.408c0,1.045-0.308,1.881-0.922,2.512
			c-0.614,0.632-1.404,0.947-2.369,0.947c-1.034,0-1.884-0.399-2.551-1.201c-0.666-0.799-0.999-2.11-0.999-3.937
			c0-1.869,0.347-3.217,1.041-4.043c0.694-0.823,1.596-1.237,2.704-1.237c0.778,0,1.422,0.217,1.932,0.649
			C54.337,220.809,54.662,221.438,54.802,222.264z M50.351,226.529c0,0.636,0.146,1.125,0.44,1.472
			c0.294,0.346,0.629,0.52,1.006,0.52c0.363,0,0.666-0.143,0.909-0.426c0.242-0.281,0.363-0.746,0.363-1.391
			c0-0.664-0.131-1.15-0.392-1.459c-0.261-0.31-0.587-0.463-0.978-0.463c-0.377,0-0.697,0.147-0.958,0.442
			C50.48,225.519,50.351,225.954,50.351,226.529z"/>
		<path fill="#D8D8D8" d="M48.15,243.889v-1.816h6.715v1.42c-0.555,0.543-1.118,1.322-1.691,2.338
			c-0.573,1.019-1.01,2.096-1.31,3.24c-0.3,1.143-0.448,2.164-0.444,3.064h-1.894c0.033-1.41,0.325-2.848,0.877-4.314
			c0.552-1.465,1.289-2.775,2.211-3.932H48.15z"/>
		<path fill="#D8D8D8" d="M49.834,268.799c-0.508-0.213-0.877-0.506-1.107-0.881c-0.231-0.373-0.346-0.781-0.346-1.228
			c0-0.762,0.267-1.392,0.8-1.887c0.533-0.496,1.292-0.744,2.274-0.744c0.974,0,1.729,0.248,2.268,0.744
			c0.539,0.495,0.807,1.125,0.807,1.887c0,0.474-0.124,0.894-0.371,1.263c-0.247,0.369-0.594,0.649-1.041,0.846
			c0.568,0.227,1,0.559,1.296,0.996c0.296,0.436,0.444,0.938,0.444,1.51c0,0.941-0.302,1.707-0.905,2.295
			c-0.604,0.59-1.406,0.885-2.407,0.885c-0.932,0-1.708-0.244-2.327-0.73c-0.731-0.575-1.097-1.364-1.097-2.366
			c0-0.552,0.137-1.06,0.412-1.521C48.809,269.407,49.242,269.049,49.834,268.799z M50.058,271.2c0,0.539,0.139,0.959,0.416,1.26
			c0.277,0.303,0.623,0.453,1.038,0.453c0.405,0,0.741-0.146,1.006-0.437s0.398-0.709,0.398-1.257c0-0.479-0.135-0.86-0.405-1.151
			c-0.271-0.289-0.613-0.435-1.027-0.435c-0.48,0-0.837,0.164-1.073,0.494C50.175,270.458,50.058,270.814,50.058,271.2z
			 M50.239,266.831c0,0.389,0.11,0.692,0.332,0.912c0.221,0.217,0.516,0.325,0.884,0.325c0.373,0,0.671-0.108,0.895-0.33
			c0.224-0.221,0.335-0.524,0.335-0.915c0-0.365-0.111-0.66-0.332-0.88c-0.221-0.221-0.514-0.332-0.877-0.332
			c-0.377,0-0.678,0.111-0.901,0.334C50.352,266.168,50.239,266.463,50.239,266.831z"/>
		<path fill="#D8D8D8" d="M48.192,294.113l1.9-0.209c0.047,0.386,0.168,0.671,0.364,0.854c0.195,0.187,0.454,0.279,0.775,0.279
			c0.405,0,0.75-0.186,1.034-0.557s0.466-1.143,0.545-2.311c-0.494,0.57-1.111,0.854-1.852,0.854c-0.806,0-1.501-0.31-2.086-0.928
			c-0.584-0.621-0.877-1.427-0.877-2.421c0-1.032,0.309-1.866,0.926-2.5c0.617-0.635,1.403-0.95,2.358-0.95
			c1.039,0,1.891,0.399,2.558,1.2c0.666,0.802,0.999,2.117,0.999,3.949c0,1.865-0.347,3.209-1.041,4.035s-1.598,1.238-2.711,1.238
			c-0.801,0-1.449-0.211-1.942-0.637C48.648,295.592,48.332,294.958,48.192,294.113z M52.636,289.84
			c0-0.631-0.146-1.119-0.437-1.467c-0.291-0.351-0.628-0.523-1.01-0.523c-0.363,0-0.665,0.143-0.905,0.43
			c-0.24,0.285-0.36,0.752-0.36,1.4c0,0.66,0.13,1.143,0.391,1.451c0.261,0.308,0.587,0.463,0.979,0.463
			c0.377,0,0.695-0.148,0.954-0.445C52.507,290.852,52.636,290.417,52.636,289.84z"/>
		<path fill="#D8D8D8" d="M45.215,318.641h-1.963v-7.369c-0.717,0.668-1.563,1.162-2.537,1.482v-1.773
			c0.513-0.168,1.069-0.484,1.67-0.951c0.601-0.465,1.013-1.01,1.237-1.631h1.593C45.215,308.399,45.215,318.641,45.215,318.641z"/>
		<path fill="#D8D8D8" d="M51.469,308.398c0.992,0,1.768,0.353,2.327,1.058c0.666,0.836,0.999,2.221,0.999,4.153
			c0,1.931-0.335,3.317-1.006,4.162c-0.555,0.694-1.328,1.043-2.32,1.043c-0.997,0-1.801-0.381-2.411-1.146
			c-0.61-0.762-0.915-2.123-0.915-4.08c0-1.922,0.335-3.303,1.006-4.147C49.704,308.747,50.477,308.398,51.469,308.398z
			 M51.469,310.02c-0.238,0-0.45,0.076-0.636,0.227s-0.331,0.42-0.433,0.812c-0.135,0.506-0.203,1.356-0.203,2.553
			c0,1.197,0.061,2.021,0.182,2.468c0.121,0.448,0.273,0.746,0.458,0.895s0.395,0.223,0.633,0.223c0.237,0,0.449-0.074,0.636-0.227
			c0.186-0.15,0.331-0.42,0.433-0.811c0.135-0.5,0.203-1.351,0.203-2.548c0-1.194-0.061-2.019-0.182-2.467
			c-0.121-0.447-0.274-0.746-0.458-0.896C51.917,310.096,51.707,310.02,51.469,310.02z"/>
		<path fill="#D8D8D8" d="M46.005,340.809h-1.963v-7.369c-0.717,0.668-1.563,1.162-2.537,1.482v-1.773
			c0.513-0.168,1.069-0.484,1.67-0.951c0.601-0.465,1.013-1.01,1.237-1.631h1.593C46.005,330.567,46.005,340.809,46.005,340.809z"/>
		<path fill="#D8D8D8" d="M53.174,340.809h-1.963v-7.369c-0.717,0.668-1.563,1.162-2.537,1.482v-1.773
			c0.513-0.168,1.069-0.484,1.67-0.951c0.601-0.465,1.013-1.01,1.237-1.631h1.593C53.174,330.567,53.174,340.809,53.174,340.809z"/>
		<path fill="#D8D8D8" d="M45.215,362.979h-1.963v-7.369c-0.717,0.668-1.563,1.162-2.537,1.482v-1.775
			c0.513-0.166,1.069-0.484,1.67-0.949c0.601-0.467,1.013-1.01,1.237-1.633h1.593C45.215,352.735,45.215,362.979,45.215,362.979z"/>
		<path fill="#D8D8D8" d="M54.781,361.163v1.815h-6.883c0.074-0.688,0.298-1.338,0.671-1.953c0.373-0.612,1.108-1.43,2.208-2.444
			c0.885-0.82,1.428-1.377,1.628-1.67c0.27-0.404,0.405-0.804,0.405-1.197c0-0.437-0.118-0.771-0.353-1.006
			s-0.561-0.353-0.975-0.353c-0.41,0-0.736,0.123-0.978,0.369c-0.242,0.245-0.382,0.653-0.419,1.226l-1.957-0.193
			c0.116-1.076,0.482-1.851,1.097-2.318c0.615-0.468,1.383-0.703,2.306-0.703c1.011,0,1.805,0.271,2.383,0.814
			s0.867,1.219,0.867,2.025c0,0.459-0.083,0.895-0.248,1.311c-0.166,0.414-0.428,0.851-0.786,1.306
			c-0.238,0.302-0.667,0.733-1.286,1.302c-0.62,0.565-1.012,0.94-1.178,1.127c-0.165,0.186-0.299,0.366-0.402,0.543h3.9V361.163z"/>
		<path fill="#D8D8D8" d="M45.215,385.146h-1.963v-7.369c-0.717,0.668-1.563,1.162-2.537,1.481v-1.772
			c0.513-0.168,1.069-0.483,1.67-0.95c0.601-0.466,1.013-1.011,1.237-1.632h1.593C45.215,374.904,45.215,385.146,45.215,385.146z"/>
		<path fill="#D8D8D8" d="M48.08,382.439l1.9-0.229c0.061,0.482,0.224,0.853,0.489,1.105c0.266,0.256,0.587,0.383,0.964,0.383
			c0.405,0,0.747-0.152,1.024-0.459s0.416-0.719,0.416-1.238c0-0.492-0.133-0.881-0.398-1.17c-0.266-0.287-0.589-0.432-0.971-0.432
			c-0.251,0-0.552,0.049-0.901,0.146l0.217-1.594c0.531,0.014,0.936-0.101,1.216-0.345c0.279-0.244,0.419-0.565,0.419-0.972
			c0-0.344-0.103-0.616-0.307-0.819c-0.205-0.205-0.478-0.308-0.818-0.308c-0.335,0-0.622,0.115-0.859,0.349
			c-0.237,0.231-0.382,0.569-0.433,1.017l-1.81-0.308c0.126-0.617,0.316-1.108,0.57-1.479c0.254-0.369,0.608-0.658,1.062-0.869
			s0.963-0.315,1.527-0.315c0.964,0,1.737,0.308,2.32,0.918c0.479,0.502,0.72,1.065,0.72,1.697c0,0.896-0.492,1.61-1.475,2.146
			c0.587,0.125,1.057,0.405,1.408,0.842c0.351,0.436,0.527,0.963,0.527,1.58c0,0.895-0.328,1.657-0.985,2.289
			c-0.657,0.631-1.475,0.944-2.453,0.944c-0.927,0-1.696-0.267-2.306-0.797C48.533,383.99,48.178,383.299,48.08,382.439z"/>
	</g>
</g>
<g id="cursor_1_" enable-background="new    ">
	<g id="cursor">
		<g>
			<rect x="259.675" y="367.233" fill="#FE4444" width="3.18" height="27.71"/>
		</g>
	</g>
</g>
<g id="Rounded_Rectangle_5_copy_3_1_" enable-background="new    ">
	<g id="Rounded_Rectangle_5_copy_3">
		<g>
			<path fill="#D7D7D7" d="M529.991,213.001H408.009c-3.317,0-6.009,2.821-6.009,6.302v91.395c0,3.48,2.69,6.303,6.009,6.303
				h121.982c3.317,0,6.009-2.821,6.009-6.303v-91.395C536,215.822,533.31,213.001,529.991,213.001z"/>
		</g>
	</g>
</g>
<g id="Rounded_Rectangle_5_copy_4_1_" enable-background="new    ">
	<g id="Rounded_Rectangle_5_copy_4">
		<g>
			<path fill="#D7D7D7" d="M681.991,213.001H560.009c-3.317,0-6.009,2.821-6.009,6.302v91.395c0,3.48,2.69,6.303,6.009,6.303
				h121.982c3.317,0,6.009-2.821,6.009-6.303v-91.395C688,215.822,685.31,213.001,681.991,213.001z"/>
		</g>
	</g>
</g>
<g id="Shape_1_xA0_Image_1_">
</g>
<g id="Rectangle_16_copy_5_1_" enable-background="new    ">
	<g id="Rectangle_16_copy_5">
		<g>
			<rect x="372.75" y="42.001" fill="#979696" width="0.5" height="432"/>
		</g>
	</g>
</g>
</svg>
