<?xml version="1.0" encoding="utf-8"?>
<!-- Generator: Adobe Illustrator 18.1.0, SVG Export Plug-In . SVG Version: 6.00 Build 0)  -->
<!DOCTYPE svg PUBLIC "-//W3C//DTD SVG 1.1//EN" "http://www.w3.org/Graphics/SVG/1.1/DTD/svg11.dtd">
<svg version="1.1" id="Layer_1" xmlns="http://www.w3.org/2000/svg" xmlns:xlink="http://www.w3.org/1999/xlink" x="0px" y="0px"
	 viewBox="0 0 640 480" enable-background="new 0 0 640 480" xml:space="preserve">
<g>
	<path fill="#FFFFFF" d="M462.9,339.1l-96.5-147.2v-78.1c14.3-0.4,25.7-12.1,25.7-26.5c0-14.6-11.9-26.5-26.5-26.5H273
		c-14.6,0-26.5,11.9-26.5,26.5c0,14.4,11.4,26.1,25.7,26.5v78.1l-96.5,147.2c-22.5,34.4,2.1,80,43.2,80h200.8
		C460.8,419.1,485.4,373.4,462.9,339.1z M374.5,380.1c-18,10.4-39.7,8.3-55.2-3.5c-8.4,6.4-18.9,10.2-30.2,10.2
		c-27.6,0-49.9-22.3-49.9-49.9c0-20.7,12.7-38.5,30.7-46c-1.4-10.5,0.6-21.4,6.3-31.3c13.8-23.9,44.3-32,68.1-18.3
		c18,10.4,27,30.2,24.5,49.6c9.7,4.1,18.3,11.2,24,21.1C406.5,335.9,398.3,366.4,374.5,380.1z"/>
	<g opacity="0.6">
		<path fill="#FFFFFF" d="M289,287c11.4,0,21.9,3.8,30.3,10.2c1.7-1.3,3.4-2.5,5.2-3.5c14-8.1,30.3-8.6,44.2-2.8
			c2.5-19.4-6.6-39.2-24.5-49.6c-23.9-13.8-54.4-5.6-68.1,18.3c-5.7,9.8-7.6,20.8-6.3,31.3C275.7,288.4,282.2,287,289,287z"/>
		<path fill="#FFFFFF" d="M306.3,361.9c-5.7-9.9-7.6-20.8-6.2-31.3c-1.9-0.8-3.9-1.7-5.8-2.8c-14-8.1-22.6-22-24.5-36.9
			c-18,7.5-30.7,25.3-30.7,46c0,27.6,22.3,49.9,49.9,49.9c11.4,0,21.8-3.8,30.2-10.2C314.2,372.7,309.7,367.8,306.3,361.9z"/>
		<path fill="#FFFFFF" d="M392.7,312c-5.7-9.8-14.2-17-24-21.1c-0.8,6.4-2.9,12.7-6.3,18.6c-5.7,9.9-14.2,17-23.9,21.1
			c0.3,2.1,0.3,4.2,0.3,6.4c0,16.2-7.7,30.6-19.7,39.7c15.5,11.8,37.2,13.9,55.2,3.5C398.3,366.4,406.5,335.9,392.7,312z"/>
	</g>
	<path opacity="0" fill="#FFFFFF" d="M300.1,330.6c12.6,5.3,26.4,5,38.4,0c-1.7-13.5-8.9-25.4-19.2-33.3
		C309.6,304.9,302.2,315.7,300.1,330.6z"/>
	<g opacity="0.3">
		<path fill="#FFFFFF" d="M319.3,297.3c-8.4-6.5-18.9-10.2-30.3-10.2c-6.8,0-13.3,1.4-19.2,3.8c1.9,14.9,10.5,28.8,24.5,36.9
			c1.9,1.1,3.8,2,5.8,2.8C301.8,317.7,308.5,305.6,319.3,297.3z"/>
		<path fill="#FFFFFF" d="M324.6,293.7c-1.8,1.1-3.6,2.3-5.2,3.5c10.4,7.9,17.5,19.7,19.2,33.3c9.7-4.1,18.3-11.3,23.9-21.1
			c3.4-5.9,5.5-12.2,6.3-18.6C354.9,285.1,338.6,285.6,324.6,293.7z"/>
		<path fill="#FFFFFF" d="M300.1,330.6c-1.4,10.5,0.5,21.4,6.2,31.3c3.4,5.9,7.8,10.8,12.9,14.7c11.9-9.1,19.7-23.5,19.7-39.7
			c0-2.1-0.1-4.3-0.3-6.4C326.5,335.5,312.7,335.9,300.1,330.6z"/>
	</g>
</g>
</svg>
