<?xml version="1.0" encoding="utf-8"?>
<!-- Generator: Adobe Illustrator 15.0.0, SVG Export Plug-In . SVG Version: 6.00 Build 0)  -->
<!DOCTYPE svg PUBLIC "-//W3C//DTD SVG 1.1//EN" "http://www.w3.org/Graphics/SVG/1.1/DTD/svg11.dtd">
<svg version="1.1" id="Шар_1" xmlns="http://www.w3.org/2000/svg" xmlns:xlink="http://www.w3.org/1999/xlink" x="0px" y="0px"
	 width="40px" height="40px" viewBox="0 0 40 40" enable-background="new 0 0 40 40" xml:space="preserve">
<g>
	<path fill="#3696B2" d="M36.364,31.05L25.521,14.648v-8.71c1.605-0.04,2.884-1.348,2.884-2.949c0-1.626-1.334-2.954-2.974-2.954
		H15.023c-1.64,0-2.979,1.327-2.979,2.954c0,1.601,1.28,2.909,2.887,2.949v8.71L4.091,31.05c-2.528,3.835,0.233,8.917,4.854,8.917
		h22.563C36.128,39.967,38.894,34.877,36.364,31.05z M26.426,35.623c-2.023,1.157-4.458,0.927-6.203-0.391
		c-0.944,0.707-2.123,1.137-3.393,1.137c-3.101,0-5.607-2.488-5.607-5.56c0-2.309,1.426-4.292,3.449-5.128
		c-0.158-1.17,0.068-2.386,0.708-3.491c1.551-2.662,4.978-3.566,7.655-2.039c2.022,1.155,3.033,3.367,2.748,5.53
		c1.094,0.456,2.059,1.247,2.695,2.352C30.024,30.697,29.101,34.095,26.426,35.623z"/>
	<g opacity="0.6">
		<path fill="#3696B2" d="M16.821,25.246c1.281,0,2.464,0.421,3.406,1.14c0.191-0.143,0.383-0.275,0.585-0.394
			c1.573-0.902,3.403-0.958,4.966-0.311c0.279-2.163-0.739-4.369-2.748-5.53c-2.688-1.538-6.116-0.628-7.656,2.039
			c-0.637,1.095-0.854,2.321-0.706,3.491C15.325,25.398,16.058,25.246,16.821,25.246z"/>
		<path fill="#3696B2" d="M18.767,33.597c-0.639-1.105-0.854-2.324-0.697-3.49c-0.215-0.096-0.439-0.188-0.653-0.318
			c-1.573-0.901-2.538-2.451-2.753-4.109c-2.022,0.836-3.448,2.818-3.448,5.127c0,3.075,2.508,5.56,5.61,5.56
			c1.28,0,2.448-0.422,3.395-1.139C19.653,34.798,19.147,34.252,18.767,33.597z"/>
		<path fill="#3696B2" d="M28.478,28.033c-0.637-1.094-1.599-1.898-2.699-2.352c-0.091,0.711-0.328,1.415-0.711,2.072
			c-0.634,1.104-1.596,1.895-2.685,2.353c0.037,0.231,0.037,0.465,0.037,0.706c0,1.808-0.863,3.409-2.214,4.428
			c1.737,1.31,4.182,1.544,6.202,0.39C29.101,34.095,30.024,30.697,28.478,28.033z"/>
	</g>
	<path fill="#3696B2" fill-opacity="0" d="M18.068,30.106c1.417,0.591,2.967,0.557,4.315,0c-0.188-1.513-1.004-2.837-2.156-3.714
		C19.137,27.242,18.304,28.444,18.068,30.106z"/>
	<g opacity="0.3">
		<path fill="#3696B2" d="M20.227,26.393c-0.944-0.726-2.125-1.143-3.408-1.143c-0.764,0-1.492,0.159-2.156,0.424
			c0.214,1.663,1.181,3.213,2.752,4.114c0.214,0.122,0.426,0.223,0.651,0.318C18.257,28.667,19.009,27.319,20.227,26.393z"/>
		<path fill="#3696B2" d="M20.822,25.992c-0.202,0.122-0.406,0.261-0.588,0.39c1.169,0.877,1.97,2.194,2.159,3.713
			c1.09-0.46,2.063-1.261,2.688-2.347c0.383-0.659,0.621-1.366,0.709-2.077C24.229,25.03,22.389,25.09,20.822,25.992z"/>
		<path fill="#3696B2" d="M18.068,30.106c-0.155,1.162,0.053,2.385,0.697,3.49c0.382,0.651,0.873,1.201,1.451,1.636
			c1.336-1.014,2.21-2.626,2.21-4.423c0-0.238-0.014-0.481-0.038-0.715C21.035,30.653,19.485,30.697,18.068,30.106z"/>
	</g>
</g>
</svg>
