<svg id="Layer_1" data-name="Layer 1" xmlns="http://www.w3.org/2000/svg" xmlns:xlink="http://www.w3.org/1999/xlink" viewBox="0 0 408.49 61.57"><defs><style>.cls-1{fill:none;}.cls-2{fill:#ffffff;}.cls-3{opacity:0.6;}.cls-4{clip-path:url(#clip-path);}.cls-5{fill:#ffffff;}.cls-6{opacity:0;}.cls-7{clip-path:url(#clip-path-2);}.cls-8{opacity:0.3;}.cls-9{clip-path:url(#clip-path-3);}</style><clipPath id="clip-path" transform="translate(-28.64 -19.87)"><rect class="cls-1" x="41.02" y="49.74" width="27.54" height="26.15"/></clipPath><clipPath id="clip-path-2" transform="translate(-28.64 -19.87)"><rect class="cls-1" x="51.07" y="60.51" width="6.61" height="6.38"/></clipPath><clipPath id="clip-path-3" transform="translate(-28.64 -19.87)"><rect class="cls-1" x="46.29" y="58.75" width="17.01" height="15.39"/></clipPath></defs><title>New Mindtrust logos</title><path class="cls-2" d="M79.47,67.69L62.88,42.39V29a4.55,4.55,0,0,0-.13-9.1H46.83A4.55,4.55,0,0,0,46.7,29V42.39L30.11,67.69a8.88,8.88,0,0,0,7.42,13.75H72.05a8.88,8.88,0,0,0,7.42-13.75m-15.2,7.05a8.57,8.57,0,0,1-9.49-.61,8.57,8.57,0,1,1-8.5-14.73,8.57,8.57,0,1,1,17,0,8.57,8.57,0,0,1,1,15.33" transform="translate(-28.64 -19.87)"/><g class="cls-3"><g class="cls-4"><path class="cls-5" d="M49.6,58.75a8.56,8.56,0,0,1,5.21,1.76,8.8,8.8,0,0,1,.9-0.61,8.56,8.56,0,0,1,7.59-.48,8.57,8.57,0,1,0-17,0,8.55,8.55,0,0,1,3.31-.66" transform="translate(-28.64 -19.87)"/><path class="cls-5" d="M52.56,71.61a8.54,8.54,0,0,1-1.06-5.38,9.47,9.47,0,0,1-1-.49,8.56,8.56,0,0,1-4.22-6.33,8.57,8.57,0,1,0,8.5,14.73,8.54,8.54,0,0,1-2.23-2.53" transform="translate(-28.64 -19.87)"/><path class="cls-5" d="M67.41,63a8.53,8.53,0,0,0-4.12-3.62,8.61,8.61,0,0,1-5.19,6.81,8.42,8.42,0,0,1,.06,1.09,8.55,8.55,0,0,1-3.38,6.82A8.57,8.57,0,0,0,67.41,63" transform="translate(-28.64 -19.87)"/></g></g><g class="cls-6"><g class="cls-7"><path class="cls-5" d="M51.07,66.23a8.57,8.57,0,0,0,6.61,0,8.55,8.55,0,0,0-3.3-5.72,8.55,8.55,0,0,0-3.3,5.72" transform="translate(-28.64 -19.87)"/></g></g><g class="cls-8"><g class="cls-9"><path class="cls-5" d="M54.8,60.51a8.59,8.59,0,0,0-8.51-1.1,8.56,8.56,0,0,0,4.22,6.33,8.37,8.37,0,0,0,1,.49,8.58,8.58,0,0,1,3.3-5.72" transform="translate(-28.64 -19.87)"/><path class="cls-5" d="M55.7,59.9a9.26,9.26,0,0,0-.9.61,8.53,8.53,0,0,1,3.31,5.72,8.6,8.6,0,0,0,4.11-3.62,8.52,8.52,0,0,0,1.08-3.19,8.56,8.56,0,0,0-7.59.48" transform="translate(-28.64 -19.87)"/><path class="cls-5" d="M51.5,66.23a8.53,8.53,0,0,0,3.29,7.91,8.55,8.55,0,0,0,3.38-6.82,9,9,0,0,0-.06-1.09,8.56,8.56,0,0,1-6.61,0" transform="translate(-28.64 -19.87)"/></g></g><path class="cls-2" d="M132.16,55.08c-0.36-6.69-.78-14.73-0.71-20.71h-0.21c-1.64,5.62-3.63,11.6-6,18.22l-8.47,23.27H112L104.25,53c-2.28-6.76-4.2-13-5.55-18.65H98.56c-0.14,6-.5,14-0.93,21.21L96.36,76.15H90.45l3.34-48h7.9l8.18,23.2c2,5.91,3.63,11.18,4.84,16.16h0.21c1.21-4.84,2.92-10.11,5.06-16.16l8.54-23.2h7.9l3,48h-6.05Z" transform="translate(-28.64 -19.87)"/><path class="cls-2" d="M155.14,28.18v48H149v-48h6.19Z" transform="translate(-28.64 -19.87)"/><path class="cls-2" d="M166,76.15v-48h6.76L188.1,52.45A135.22,135.22,0,0,1,196.71,68l0.14-.07c-0.57-6.41-.71-12.24-0.71-19.72V28.18H202v48h-6.27L180.48,51.81a151.51,151.51,0,0,1-9-16l-0.22.07c0.36,6,.5,11.82.5,19.79v20.5H166Z" transform="translate(-28.64 -19.87)"/><path class="cls-2" d="M212.79,28.82a88.64,88.64,0,0,1,13.17-1c8.89,0,15.23,2.06,19.43,6s6.76,9.47,6.76,17.22-2.42,14.24-6.9,18.65-11.89,6.9-21.21,6.9A100.64,100.64,0,0,1,212.79,76V28.82ZM219,71.24a39.45,39.45,0,0,0,6.27.35c13.24,0,20.43-7.4,20.43-20.36,0.07-11.32-6.33-18.51-19.43-18.51a35.26,35.26,0,0,0-7.26.64V71.24Z" transform="translate(-28.64 -19.87)"/><path class="cls-2" d="M271.44,31H255.79V28.18h34.73V31H274.86V76.15h-3.41V31Z" transform="translate(-28.64 -19.87)"/><path class="cls-2" d="M295.43,28.89a49,49,0,0,1,10.39-1.07c6.26,0,10.25,1.35,13,4.06a11.76,11.76,0,0,1,3.34,8.47c0,6.48-3.84,10.6-9.4,12.52V53c3.85,1.21,6.26,4.84,7.41,10.18,1.63,7.47,2.56,11,3.56,13H320.2c-0.79-1.42-1.78-5.62-3.06-11.67-1.5-6.9-4.48-10-10.82-10.32h-7.47v22h-3.41V28.89Zm3.41,22.49h7.62c7.4,0,12.24-4.13,12.24-10.46,0-7.33-5.41-10.32-13-10.32a32.26,32.26,0,0,0-6.91.64V51.38Z" transform="translate(-28.64 -19.87)"/><path class="cls-2" d="M334.79,28.18v29c0,12.17,5.69,16.87,12.74,16.87,8,0,13.45-5.13,13.45-16.87v-29h3.41V56.79c0,14.73-8,20.14-17,20.14-8.4,0-16-4.91-16-19.57V28.18h3.42Z" transform="translate(-28.64 -19.87)"/><path class="cls-2" d="M374.43,70.88A19,19,0,0,0,384.89,74c7.18,0,11.6-4.06,11.6-10,0-5.41-2.78-8.54-9.75-11.24-7.69-2.7-12.31-6.69-12.31-13.24,0-7,5.76-12.17,13.95-12.17,4.48,0,7.9,1.14,9.54,2.28l-1.28,2.85a15.31,15.31,0,0,0-8.47-2.28c-7.76,0-10.39,5-10.39,8.76,0,5.34,3.06,8,10,10.75,7.9,3.2,12.1,6.76,12.1,14,0,7-5,13.24-15.23,13.24-4.13,0-9-1.35-11.46-3.27Z" transform="translate(-28.64 -19.87)"/><path class="cls-2" d="M418.06,31H402.4V28.18h34.74V31H421.47V76.15h-3.41V31Z" transform="translate(-28.64 -19.87)"/></svg>