<?xml version="1.0" encoding="utf-8"?>
<!-- Generator: Adobe Illustrator 16.0.0, SVG Export Plug-In . SVG Version: 6.00 Build 0)  -->
<!DOCTYPE svg PUBLIC "-//W3C//DTD SVG 1.1//EN" "http://www.w3.org/Graphics/SVG/1.1/DTD/svg11.dtd">
<svg version="1.1" id="Layer_1" xmlns="http://www.w3.org/2000/svg" xmlns:xlink="http://www.w3.org/1999/xlink" x="0px" y="0px"
	 width="40px" height="40px" viewBox="0 0 40 40" enable-background="new 0 0 40 40" xml:space="preserve">
<path fill="#FFFFFF" d="M35.945,30.986L25.201,14.597V5.901c1.592-0.044,2.859-1.347,2.859-2.95C28.061,1.325,26.736,0,25.111,0
	H14.801c-1.625,0-2.95,1.325-2.95,2.951c0,1.604,1.269,2.906,2.862,2.95v8.696L3.968,30.986c-2.505,3.83,0.233,8.906,4.81,8.906
	h22.357C35.71,39.895,38.45,34.807,35.945,30.986z M26.104,35.552c-2.004,1.157-4.422,0.927-6.146-0.39
	c-0.935,0.713-2.105,1.135-3.362,1.135c-3.073,0-5.556-2.48-5.556-5.555c0-2.305,1.414-4.286,3.418-5.121
	c-0.156-1.169,0.067-2.385,0.702-3.486c1.536-2.66,4.932-3.562,7.582-2.037c2.004,1.158,3.006,3.362,2.729,5.523
	c1.08,0.456,2.037,1.246,2.672,2.348C29.665,30.631,28.752,34.027,26.104,35.552z"/>
<g opacity="0.6">
	<path fill="#FFFFFF" d="M16.583,25.186c1.269,0,2.438,0.424,3.374,1.14c0.189-0.146,0.379-0.279,0.579-0.392
		c1.56-0.901,3.373-0.959,4.922-0.312c0.278-2.161-0.735-4.365-2.728-5.523c-2.666-1.537-6.062-0.623-7.583,2.037
		c-0.635,1.093-0.846,2.317-0.702,3.486C15.102,25.342,15.825,25.186,16.583,25.186z"/>
	<path fill="#FFFFFF" d="M18.508,33.525c-0.634-1.104-0.846-2.316-0.69-3.485c-0.211-0.089-0.434-0.188-0.646-0.312
		c-1.559-0.9-2.516-2.449-2.728-4.107c-2.004,0.835-3.418,2.816-3.418,5.121c0,3.072,2.483,5.555,5.556,5.555
		c1.269,0,2.427-0.422,3.363-1.135C19.389,34.729,18.888,34.184,18.508,33.525z"/>
	<path fill="#FFFFFF" d="M28.129,27.969c-0.635-1.091-1.581-1.892-2.672-2.348c-0.089,0.711-0.324,1.412-0.701,2.07
		c-0.635,1.103-1.582,1.893-2.662,2.349c0.034,0.233,0.034,0.468,0.034,0.713c0,1.804-0.858,3.406-2.194,4.421
		c1.724,1.312,4.142,1.547,6.146,0.391C28.752,34.027,29.665,30.631,28.129,27.969z"/>
</g>
<path fill="#FFFFFF" fill-opacity="0" d="M17.818,30.04c1.403,0.591,2.939,0.558,4.275,0c-0.188-1.504-0.991-2.828-2.138-3.708
	C18.876,27.18,18.052,28.382,17.818,30.04z"/>
<g opacity="0.3">
	<path fill="#FFFFFF" d="M19.956,26.332c-0.935-0.723-2.105-1.137-3.374-1.137c-0.757,0-1.48,0.156-2.138,0.426
		c0.212,1.658,1.169,3.207,2.728,4.107c0.212,0.123,0.423,0.223,0.646,0.312C18.007,28.604,18.753,27.257,19.956,26.332z"/>
	<path fill="#FFFFFF" d="M20.546,25.934c-0.2,0.121-0.401,0.256-0.579,0.392c1.158,0.879,1.95,2.192,2.137,3.707
		c1.08-0.456,2.039-1.261,2.662-2.351c0.379-0.658,0.612-1.356,0.7-2.072C23.921,24.975,22.104,25.029,20.546,25.934z"/>
	<path fill="#FFFFFF" d="M17.818,30.04c-0.156,1.169,0.056,2.383,0.69,3.485c0.379,0.656,0.869,1.203,1.437,1.637
		c1.323-1.014,2.194-2.617,2.194-4.42c0-0.234-0.012-0.479-0.035-0.713C20.758,30.586,19.221,30.631,17.818,30.04z"/>
</g>
<circle opacity="0.7" fill="#339EB0" enable-background="new    " cx="19.967" cy="24.901" r="5.569"/>
</svg>
