<?xml version="1.0" encoding="utf-8"?>
<!-- Generator: Adobe Illustrator 16.0.0, SVG Export Plug-In . SVG Version: 6.00 Build 0)  -->
<!DOCTYPE svg PUBLIC "-//W3C//DTD SVG 1.1//EN" "http://www.w3.org/Graphics/SVG/1.1/DTD/svg11.dtd">
<svg version="1.1" id="Layer_1" xmlns="http://www.w3.org/2000/svg" xmlns:xlink="http://www.w3.org/1999/xlink" x="0px" y="0px"
	 width="71px" height="71px" viewBox="0 0 71 71" enable-background="new 0 0 71 71" xml:space="preserve">
<g>
	<path fill="#FFFFFF" d="M35.5,0.5c-19.33,0-35,15.67-35,35c0,12.25,6.3,23.04,15.84,29.29V39.67v-6.74c0-1.5,0-3.33,0-5.55
		c0-10.6,10.6-9.9,10.6-9.9h5.54h22.18v15.44h-21.9v37.46c0.9,0.07,1.82,0.11,2.74,0.11c19.33,0,35-15.67,35-35S54.83,0.5,35.5,0.5z
		 M39.01,53.85V39.67h15.301C54.311,39.67,55.01,53.85,39.01,53.85z"/>
</g>
<circle fill="#FFFFFF" cx="35.5" cy="35.5" r="35.5"/>
</svg>
