<?xml version="1.0" encoding="utf-8"?>
<!-- Generator: Adobe Illustrator 15.0.0, SVG Export Plug-In . SVG Version: 6.00 Build 0)  -->
<!DOCTYPE svg PUBLIC "-//W3C//DTD SVG 1.1//EN" "http://www.w3.org/Graphics/SVG/1.1/DTD/svg11.dtd">
<svg version="1.1" id="Шар_1" xmlns="http://www.w3.org/2000/svg" xmlns:xlink="http://www.w3.org/1999/xlink" x="0px" y="0px"
	 width="416.769px" height="132.861px" viewBox="0 0 416.769 132.861" enable-background="new 0 0 416.769 132.861"
	 xml:space="preserve">
<g>
	<path fill="none" d="M113.048,68.435c-1.607-1.624-3.519-2.908-5.732-3.852c-2.215-0.949-4.56-1.426-7.036-1.432
		c-2.555-0.006-4.943,0.485-7.158,1.457c-2.219,0.971-4.13,2.31-5.758,3.996c-1.618,1.689-2.896,3.662-3.843,5.916
		c-0.942,2.26-1.415,4.668-1.421,7.229c-0.005,2.48,0.458,4.804,1.392,6.949c0.936,2.146,2.225,4.049,3.874,5.709
		c1.646,1.662,3.563,2.964,5.74,3.91c2.175,0.946,4.458,1.422,6.866,1.426c2.551,0.007,4.954-0.477,7.209-1.452
		c2.255-0.972,4.22-2.306,5.87-3.992c1.656-1.69,2.959-3.667,3.898-5.924c0.945-2.255,1.424-4.666,1.429-7.224
		c0.005-2.488-0.481-4.818-1.452-7.006C115.951,71.96,114.66,70.056,113.048,68.435z"/>
	<polygon fill="#21ACED" points="72.001,111.491 72.028,98.621 62.695,98.599 62.77,64.134 71.998,64.156 72.026,51.288 
		62.798,51.268 62.842,30.951 49.123,30.919 49.079,51.238 49.076,51.238 49.048,64.105 49.05,64.106 48.947,111.441 	"/>
	<path fill="#21ACED" d="M17.864,62c1.617-1.045,3.365-1.568,5.245-1.564c2.183,0.006,3.986,0.648,5.408,1.933
		c1.43,1.285,2.213,3.018,2.361,5.207l13.302,0.029l0.036-16.376l-10.144-0.024l-0.009,4.156c-1.727-2.189-3.751-3.648-6.078-4.373
		c-2.329-0.72-4.844-1.084-7.55-1.089c-2.705-0.007-5.274,0.402-7.72,1.224c-2.444,0.824-4.605,2.006-6.488,3.543
		c-1.881,1.539-3.386,3.438-4.517,5.695C0.58,62.616,0.005,65.175,0,68.039c-0.008,3.313,0.646,6.041,1.954,8.189
		c1.31,2.146,2.997,3.943,5.061,5.373c2.062,1.434,4.408,2.575,7.034,3.407c2.628,0.833,5.261,1.591,7.886,2.269
		c1.129,0.309,2.308,0.631,3.547,0.973c1.239,0.345,2.346,0.795,3.322,1.362c0.975,0.568,1.78,1.318,2.424,2.261
		c0.628,0.947,0.945,2.168,0.941,3.672c-0.003,2.259-0.852,4.07-2.546,5.418c-1.693,1.353-3.594,2.022-5.699,2.019
		c-2.847-0.007-5.127-0.84-6.816-2.498c-1.686-1.663-2.637-3.853-2.857-6.56L0.16,93.893l-0.038,17.442l10.477,0.022l0.01-4.923
		c1.95,2.328,4.257,3.999,6.92,5.014c2.663,1.019,5.539,1.53,8.617,1.536c2.776,0.007,5.484-0.405,8.114-1.223
		c2.633-0.817,4.923-2.037,6.88-3.649c1.957-1.611,3.537-3.582,4.743-5.906c1.213-2.33,1.818-5.035,1.825-8.114
		c0.007-3.386-0.648-6.187-1.956-8.41c-1.308-2.218-3.031-4.044-5.173-5.476c-2.136-1.438-4.539-2.562-7.199-3.398
		c-2.668-0.839-5.352-1.553-8.052-2.163c-1.128-0.228-2.273-0.512-3.44-0.851c-1.159-0.344-2.208-0.793-3.149-1.361
		c-0.94-0.564-1.722-1.299-2.358-2.203c-0.64-0.902-0.955-2.068-0.952-3.499C15.433,64.626,16.247,63.052,17.864,62z"/>
	
		<rect x="225.782" y="31.32" transform="matrix(1 0.0022 -0.0022 1 0.0873 -0.5216)" fill="#21ACED" width="13.717" height="14.682"/>
	<polygon fill="#21ACED" points="219.56,99.046 219.531,112.204 239.354,112.246 239.384,99.089 239.369,99.089 239.472,51.757 
		219.771,51.714 219.742,64.562 225.726,64.575 225.651,99.06 	"/>
	<polygon fill="#21ACED" points="256.65,31.373 242.931,31.342 242.886,51.766 242.772,51.766 242.743,64.636 242.856,64.636 
		242.754,112.254 267.417,112.308 267.444,99.15 256.503,99.126 256.577,64.666 267.521,64.688 267.549,51.817 256.606,51.794 	"/>
	<path fill="#21ACED" d="M138.425,64.281l0.028-12.848l-20.224-0.044l-0.02,8.537c-2.099-3.309-4.763-5.828-7.994-7.563
		c-3.228-1.735-6.802-2.603-10.706-2.611c-4.444-0.012-8.579,0.828-12.423,2.51c-3.837,1.681-7.174,3.99-9.994,6.916
		c-2.831,2.929-5.077,6.323-6.732,10.194c-1.666,3.868-2.5,7.983-2.511,12.347c-0.008,4.284,0.788,8.329,2.397,12.131
		c1.61,3.801,3.8,7.133,6.58,9.996c2.778,2.869,6.043,5.127,9.8,6.794c3.754,1.662,7.776,2.494,12.066,2.503
		c3.987,0.01,7.668-0.753,11.058-2.281c3.388-1.537,6.175-3.989,8.366-7.359l-0.02,8.48l19.001,0.043v-0.001l21.909,0.048l0,0
		l19.239,0.041l0.027-13.262l-5.414-0.012l0.035-15.775l14.289,15.807l-5.074-0.012l-0.028,13.264l28.905,0.063l0.029-13.263
		l-5.564-0.012l-17.555-18.522l16.615-15.971l7.329,0.015l0.025-12.839l-35.403-0.079L176.434,63l11.952,0.025l-15.483,15.417
		l0.076-34.195l10.017-0.167l-0.164-12.866l-9.825-0.022l-13.93-0.031l0.076,12.871l-0.119,54.778l-4.137-0.009l0.146-67.649
		l-22.074-0.048l-0.027,13.242l8.353,0.017l-0.117,54.408l-4.254-0.009v0.001l-4.87,0.002l0.075-34.498L138.425,64.281z
		 M116.949,88.375c-0.939,2.257-2.242,4.233-3.898,5.924c-1.65,1.687-3.615,3.021-5.87,3.992c-2.255,0.976-4.658,1.459-7.209,1.452
		c-2.408-0.004-4.691-0.479-6.866-1.426c-2.177-0.946-4.094-2.248-5.74-3.91c-1.649-1.66-2.938-3.563-3.874-5.709
		c-0.934-2.146-1.397-4.469-1.392-6.949c0.006-2.561,0.479-4.969,1.421-7.229c0.947-2.254,2.225-4.227,3.843-5.916
		c1.628-1.687,3.539-3.025,5.758-3.996c2.215-0.972,4.603-1.463,7.158-1.457c2.476,0.006,4.821,0.483,7.036,1.432
		c2.213,0.943,4.125,2.228,5.732,3.852c1.612,1.621,2.903,3.525,3.878,5.711c0.971,2.188,1.457,4.518,1.452,7.006
		C118.373,83.709,117.894,86.121,116.949,88.375z"/>
	<path fill="#21ACED" d="M393.898,24.769l-5.404-14.945L347.42,24.678l9.692-16.704L343.368,0h-0.003l-21.904,37.753l-3.307-18.99
		l-15.656,2.729l7.492,43.013L295.244,52.08l-10.24,12.15l33.387,28.136l-19.274-0.04l-0.033,15.892l43.65,0.091l-14.793,12.359
		l10.191,12.193l33.505-27.993l-3.389,18.976l15.646,2.793l7.672-42.967l9.603,16.709l13.778-7.918l-21.757-37.864l18.114,6.637
		l5.465-14.92l-40.954-15.005L393.898,24.769z M361.043,46.561c11.647,5.46,16.66,19.327,11.199,30.972
		c-5.458,11.646-19.324,16.661-30.972,11.2c-11.645-5.459-16.66-19.327-11.201-30.972C335.532,46.115,349.397,41.101,361.043,46.561
		z"/>
</g>
</svg>
