<?xml version="1.0" encoding="utf-8"?>
<!-- Generator: Adobe Illustrator 15.0.0, SVG Export Plug-In . SVG Version: 6.00 Build 0)  -->
<!DOCTYPE svg PUBLIC "-//W3C//DTD SVG 1.1//EN" "http://www.w3.org/Graphics/SVG/1.1/DTD/svg11.dtd">
<svg version="1.1" id="Шар_1" xmlns="http://www.w3.org/2000/svg" xmlns:xlink="http://www.w3.org/1999/xlink" x="0px" y="0px"
	 width="416.769px" height="132.861px" viewBox="0 0 416.769 132.861" enable-background="new 0 0 416.769 132.861"
	 xml:space="preserve">
<g>
	<path fill="none" stroke="#FFFFFF" stroke-miterlimit="10" d="M113.048,68.435c-1.607-1.624-3.519-2.908-5.732-3.853
		c-2.215-0.949-4.56-1.426-7.036-1.432c-2.555-0.006-4.943,0.484-7.158,1.457c-2.219,0.971-4.13,2.31-5.758,3.996
		c-1.618,1.688-2.896,3.662-3.843,5.916c-0.942,2.26-1.415,4.668-1.421,7.229c-0.005,2.48,0.458,4.804,1.392,6.949
		c0.936,2.146,2.225,4.049,3.874,5.709c1.646,1.662,3.563,2.964,5.74,3.91c2.175,0.946,4.458,1.422,6.866,1.426
		c2.551,0.007,4.954-0.477,7.209-1.452c2.255-0.972,4.22-2.306,5.87-3.992c1.656-1.689,2.959-3.667,3.898-5.924
		c0.945-2.255,1.424-4.666,1.429-7.224c0.005-2.488-0.481-4.818-1.452-7.006C115.951,71.96,114.66,70.056,113.048,68.435z"/>
	<polygon fill="#FFFFFF" points="72.001,111.491 72.028,98.621 62.695,98.599 62.77,64.134 71.998,64.156 72.026,51.288 
		62.798,51.268 62.842,30.951 49.123,30.919 49.079,51.238 49.076,51.238 49.048,64.105 49.05,64.106 48.947,111.441 	"/>
	<path fill="#FFFFFF" d="M17.864,62c1.617-1.045,3.365-1.567,5.245-1.563c2.183,0.006,3.986,0.647,5.408,1.933
		c1.43,1.285,2.213,3.019,2.361,5.207l13.302,0.029l0.036-16.376l-10.144-0.024l-0.009,4.156c-1.727-2.189-3.751-3.648-6.078-4.373
		c-2.329-0.72-4.844-1.084-7.55-1.089c-2.705-0.007-5.274,0.401-7.72,1.224c-2.444,0.824-4.605,2.006-6.488,3.543
		c-1.881,1.539-3.386,3.438-4.517,5.695C0.58,62.616,0.005,65.175,0,68.039c-0.008,3.313,0.646,6.041,1.954,8.189
		c1.31,2.146,2.997,3.942,5.061,5.373c2.062,1.434,4.408,2.574,7.034,3.406c2.628,0.833,5.261,1.592,7.886,2.27
		c1.129,0.309,2.308,0.631,3.547,0.973c1.239,0.345,2.346,0.795,3.322,1.362c0.975,0.568,1.78,1.318,2.424,2.261
		c0.628,0.947,0.945,2.168,0.941,3.672c-0.003,2.26-0.852,4.07-2.546,5.418c-1.693,1.354-3.594,2.022-5.699,2.02
		c-2.847-0.007-5.127-0.84-6.816-2.498c-1.686-1.663-2.637-3.854-2.857-6.561L0.16,93.893l-0.038,17.441l10.477,0.022l0.01-4.923
		c1.95,2.328,4.257,3.999,6.92,5.014c2.663,1.019,5.539,1.53,8.617,1.536c2.776,0.007,5.484-0.405,8.114-1.224
		c2.633-0.816,4.923-2.036,6.88-3.648c1.957-1.611,3.537-3.582,4.743-5.906c1.213-2.33,1.818-5.035,1.825-8.114
		c0.007-3.386-0.648-6.187-1.956-8.409c-1.308-2.219-3.031-4.044-5.173-5.477c-2.136-1.438-4.539-2.562-7.199-3.397
		c-2.668-0.84-5.352-1.554-8.052-2.163c-1.128-0.229-2.273-0.513-3.44-0.852c-1.159-0.344-2.208-0.793-3.149-1.36
		c-0.94-0.564-1.722-1.3-2.358-2.203c-0.64-0.902-0.955-2.068-0.952-3.499C15.433,64.626,16.247,63.052,17.864,62z"/>
	
		<rect x="225.784" y="31.31" transform="matrix(-1 -0.0022 0.0022 -1 465.1993 77.8156)" fill="#FFFFFF" width="13.717" height="14.683"/>
	<polygon fill="#FFFFFF" points="219.56,99.046 219.531,112.204 239.354,112.246 239.384,99.089 239.369,99.089 239.472,51.757 
		219.771,51.714 219.742,64.562 225.726,64.575 225.651,99.06 	"/>
	<polygon fill="#FFFFFF" points="256.65,31.373 242.931,31.342 242.886,51.766 242.772,51.766 242.744,64.635 242.856,64.635 
		242.753,112.254 267.417,112.308 267.444,99.15 256.503,99.126 256.578,64.666 267.521,64.688 267.548,51.817 256.606,51.794 	"/>
	<path fill="#FFFFFF" d="M138.425,64.281l0.028-12.848l-20.224-0.044l-0.02,8.536c-2.099-3.309-4.763-5.827-7.994-7.563
		c-3.228-1.735-6.802-2.604-10.706-2.611c-4.444-0.012-8.579,0.828-12.423,2.511c-3.837,1.681-7.174,3.989-9.994,6.915
		c-2.831,2.93-5.077,6.323-6.732,10.194c-1.666,3.868-2.5,7.983-2.511,12.347c-0.008,4.284,0.788,8.329,2.397,12.132
		c1.61,3.801,3.8,7.133,6.58,9.996c2.778,2.868,6.043,5.127,9.8,6.794c3.754,1.661,7.776,2.493,12.066,2.503
		c3.987,0.01,7.668-0.753,11.058-2.281c3.388-1.537,6.175-3.989,8.366-7.359l-0.02,8.48l19.001,0.043v-0.001l21.909,0.048l0,0
		l19.239,0.041l0.027-13.262l-5.414-0.013l0.035-15.774l14.289,15.807l-5.074-0.012l-0.028,13.264l28.905,0.063l0.029-13.264
		l-5.564-0.012L187.895,80.39l16.615-15.972l7.33,0.016l0.024-12.84l-35.403-0.078L176.434,63l11.952,0.025l-15.483,15.417
		l0.076-34.195l10.017-0.167l-0.164-12.866l-9.825-0.021l-13.93-0.031l0.076,12.871l-0.119,54.778l-4.137-0.01l0.146-67.648
		l-22.074-0.048l-0.027,13.242l8.353,0.017l-0.117,54.408l-4.254-0.01v0.002l-4.87,0.002l0.075-34.498L138.425,64.281z
		 M116.949,88.375c-0.939,2.257-2.242,4.233-3.898,5.924c-1.65,1.688-3.615,3.021-5.87,3.992c-2.255,0.977-4.658,1.459-7.209,1.452
		c-2.408-0.004-4.691-0.479-6.866-1.426c-2.177-0.946-4.094-2.248-5.74-3.91c-1.649-1.66-2.938-3.563-3.874-5.709
		c-0.934-2.146-1.397-4.469-1.392-6.949c0.006-2.561,0.479-4.969,1.421-7.229c0.947-2.254,2.225-4.228,3.843-5.916
		c1.628-1.688,3.539-3.025,5.758-3.996c2.215-0.973,4.603-1.463,7.158-1.457c2.476,0.006,4.821,0.482,7.036,1.432
		c2.213,0.943,4.125,2.229,5.732,3.853c1.612,1.621,2.903,3.524,3.878,5.711c0.971,2.188,1.457,4.518,1.452,7.006
		C118.373,83.709,117.894,86.121,116.949,88.375z"/>
	<path fill="#FFFFFF" d="M393.898,24.769l-5.404-14.945l-41.074,14.854l9.693-16.703L343.369,0h-0.004L321.46,37.753l-3.307-18.989
		l-15.656,2.729l7.492,43.013L295.244,52.08l-10.24,12.15l33.387,28.136l-19.273-0.04l-0.033,15.892l43.65,0.092l-14.793,12.358
		l10.191,12.193l33.504-27.993l-3.389,18.976l15.646,2.794l7.672-42.968l9.604,16.709l13.777-7.918l-21.756-37.863l18.113,6.637
		l5.465-14.92l-40.953-15.005L393.898,24.769z M361.042,46.561c11.648,5.46,16.66,19.327,11.199,30.972
		c-5.457,11.646-19.324,16.661-30.973,11.2c-11.645-5.459-16.658-19.327-11.199-30.973
		C335.533,46.115,349.398,41.101,361.042,46.561z"/>
</g>
</svg>
