<?xml version="1.0" encoding="utf-8"?>
<!-- Generator: Adobe Illustrator 21.0.2, SVG Export Plug-In . SVG Version: 6.00 Build 0)  -->
<svg version="1.1" id="Layer_1" xmlns="http://www.w3.org/2000/svg" xmlns:xlink="http://www.w3.org/1999/xlink" x="0px" y="0px"
	 width="116.159px" height="116.16px" viewBox="0 0 116.159 116.16" enable-background="new 0 0 116.159 116.16"
	 xml:space="preserve">
<path fill="#4C8FCF" d="M58.079,2c30.923,0,56.08,25.157,56.08,56.08s-25.157,56.08-56.08,56.08C27.157,114.16,2,89.003,2,58.08
	S27.157,2,58.079,2 M58.079,0C26.003,0,0,26.003,0,58.08s26.003,58.08,58.079,58.08c32.077,0,58.08-26.003,58.08-58.08
	S90.156,0,58.079,0L58.079,0z"/>
<path fill="#4C8FCF" d="M33.171,44.321c-1.354,0.798-3.097,0.348-3.895-1.005c-0.798-1.354-0.349-3.097,1.004-3.896
	c1.353-0.798,3.097-0.348,3.895,1.006C34.973,41.779,34.523,43.523,33.171,44.321"/>
<path fill="#4C8FCF" d="M48.838,60.52c-1.354,0.798-3.097,0.348-3.895-1.005c-0.798-1.354-0.349-3.097,1.004-3.896
	c1.353-0.798,3.097-0.348,3.895,1.006C50.64,57.978,50.19,59.722,48.838,60.52"/>
<polygon fill="#4C8FCF" points="94.855,79.862 92.855,79.862 92.855,33.107 23.304,33.107 23.304,79.862 21.304,79.862 
	21.304,31.107 94.855,31.107 "/>
<rect x="57.148" y="41.281" fill="#4C8FCF" width="30.246" height="2"/>
<rect x="57.148" y="49.176" fill="#4C8FCF" width="18.419" height="2"/>
<rect x="57.148" y="57.07" fill="#4C8FCF" width="18.419" height="2"/>
<rect x="57.148" y="64.965" fill="#4C8FCF" width="10.77" height="2"/>
<path fill="#4C8FCF" d="M47.393,59.07c-0.553,0-1-0.447-1-1V43.281h-6.834c-0.553,0-1-0.447-1-1s0.447-1,1-1h7.834
	c0.553,0,1,0.447,1,1V58.07C48.393,58.623,47.945,59.07,47.393,59.07z"/>
<path fill="#4C8FCF" d="M39.559,59.07h-7.833c-0.553,0-1-0.447-1-1V42.281c0-0.553,0.447-1,1-1s1,0.447,1,1V57.07h6.833
	c0.553,0,1,0.447,1,1S40.111,59.07,39.559,59.07z"/>
<polygon fill-rule="evenodd" clip-rule="evenodd" fill="#4C8FCF" points="102.539,78.7 66.36,78.7 64.92,80.368 51.467,80.368 
	50.019,78.7 13.558,78.7 13.558,81.802 102.539,81.802 "/>
</svg>
