<svg id="Layer_1" data-name="Layer 1" xmlns="http://www.w3.org/2000/svg" viewBox="0 0 180.72 180.72"><defs><style>.cls-1{fill:#04204c;}</style></defs><title>logo_Dark-Blue</title><path class="cls-1" d="M84.77,85.24c-.79,2.3-1.57,4.6-2.35,6.88C81.25,95.51,80.11,99,79,102.45c5.28-.27,10.6-.35,15.87-.41.09-.48.19-1,.28-1.46,1-5,1.93-10.14,3.08-15.2l-2.32,0C92.21,85.3,88.49,85.23,84.77,85.24Z"/><path class="cls-1" d="M132.21,24.7a7.18,7.18,0,0,1-1-2.36,48.43,48.43,0,0,0-15,8.19c-15.33,12-23.1,30.83-29.68,49.65,3.85.17,7.69.41,11.46.6l1.32.07c2.47-9.41,6-18.27,12.67-25a35,35,0,0,1,10-7.32,6.5,6.5,0,0,1,2.19-6.32,6.39,6.39,0,0,1,10.18,3,7.41,7.41,0,0,1,.27,1.29,6.51,6.51,0,0,1-2.31,5.68,6.35,6.35,0,0,1-8.82-.69,37.59,37.59,0,0,0-4.38,3.6c-7.28,6.94-11.4,16.22-14.38,26.05,12.11.6,25.14.82,36.05-4.16a6.45,6.45,0,0,1,1.71-8.42,6.33,6.33,0,0,1,8.73,1.13c.07.08.15.15.22.24a6.2,6.2,0,0,1,.5.86A6.51,6.51,0,0,1,150.1,79a6.35,6.35,0,0,1-7.49,0c-11.38,6.81-25.49,6.79-39.1,6.5C102.23,90.2,101.14,95,100,99.64c-.19.78-.37,1.56-.55,2.34l3.6,0c21.2-.36,45.93.29,64.59-11.22A7.31,7.31,0,0,1,168.92,81a7.16,7.16,0,0,1,9.76.45c.12.12.26.23.37.36a89.77,89.77,0,0,0-33.79-62.51c0,.12.06.24.08.36a7.33,7.33,0,0,1-3.11,7A7.18,7.18,0,0,1,132.21,24.7Z"/><path class="cls-1" d="M47.13,151.87c11.15-10.59,17.49-25.65,22.42-40.73C56.48,113,43.91,116.42,33.3,124a7.32,7.32,0,0,1-2.49,6.52,7.2,7.2,0,0,1-10.18-.87h0a7.35,7.35,0,0,1,.86-10.28,7.16,7.16,0,0,1,8.39-.63,58.38,58.38,0,0,1,5.53-4.32c10.79-7.42,23.51-10.3,36.73-11.48,1-3.43,2-6.83,3-10.13.74-2.43,1.47-4.9,2.2-7.38-9.12.43-18.06,1.83-25.93,6A6.5,6.5,0,0,1,49,98a6.37,6.37,0,0,1-8.94-1.37c-.06-.08-.09-.16-.14-.24a6.48,6.48,0,0,1,1.5-8.79,6.33,6.33,0,0,1,7.52,0c.65-.44,1.32-.89,2-1.31,8.39-5,18.1-6.2,28-6.23,5.64-18.64,12.26-37.3,26.76-49.45,8.92-7.49,17.3-10.45,25.43-11.53a7.25,7.25,0,0,1,3-4.45,7.1,7.1,0,0,1,2.75-1.11A87.84,87.84,0,0,0,90.6.31C41.54.31,1.77,40.46,1.77,90a89.8,89.8,0,0,0,33.89,70.44,2.49,2.49,0,0,1-.15-.28A7.31,7.31,0,0,1,38,150.91,7.16,7.16,0,0,1,47.13,151.87Z"/><path class="cls-1" d="M178.24,92.16a7.13,7.13,0,0,1-7.9.94c-.67.53-1.36,1.06-2.08,1.56-18.92,13.46-44.61,12.84-67.81,14.1l-2.56.14c-2.88,12.39-6.3,25-14.53,34A6.5,6.5,0,0,1,81.81,151a6.34,6.34,0,0,1-8.53-.4,5.78,5.78,0,0,1-.5-.49c-.17-.21-.28-.43-.42-.63a6.52,6.52,0,0,1,1.3-8.5,6.37,6.37,0,0,1,7.89-.17c6.64-8.91,9.57-20.56,11.84-31.69-5.68.3-11.43.65-17.12,1.22-5.81,16.65-12.83,33-26,43.66-.45.36-.89.69-1.34,1A7.3,7.3,0,0,1,46,163a7.1,7.1,0,0,1-5.46,1.05,87.89,87.89,0,0,0,50.06,15.6c48.77,0,88.35-39.69,88.81-88.82A7.17,7.17,0,0,1,178.24,92.16Z"/></svg>