<svg id="Symbol_Editing_Mode" data-name="Symbol Editing Mode" xmlns="http://www.w3.org/2000/svg" viewBox="0 0 380 64.66"><defs><style>.cls-1{fill:#04204c;}</style></defs><title>logo-home2</title><path class="cls-1" d="M30.2,30.62c-.29.83-.57,1.66-.86,2.48-.42,1.22-.84,2.47-1.26,3.72,1.92-.1,3.85-.13,5.77-.15,0-.17.07-.35.11-.52.36-1.8.7-3.66,1.12-5.48l-.85,0C32.9,30.64,31.55,30.61,30.2,30.62Z"/><path class="cls-1" d="M47.46,8.8A2.56,2.56,0,0,1,47.09,8a17.58,17.58,0,0,0-5.46,3C36.05,15.23,33.22,22,30.83,28.8c1.4.05,2.8.14,4.17.21l.48,0c.9-3.38,2.19-6.58,4.61-9a12.91,12.91,0,0,1,3.65-2.64,2.33,2.33,0,0,1,4.5-1.18,2.52,2.52,0,0,1,.1.46,2.33,2.33,0,0,1-4.05,1.8,13.59,13.59,0,0,0-1.59,1.3c-2.65,2.5-4.15,5.84-5.23,9.39,4.4.21,9.14.29,13.11-1.5A2.32,2.32,0,0,1,54.38,25a.34.34,0,0,1,.08.09,1.92,1.92,0,0,1,.18.31,2.32,2.32,0,0,1-3.4,3C47.1,30.82,42,30.81,37,30.71c-.46,1.7-.86,3.42-1.26,5.1-.07.28-.14.56-.2.84l1.31,0c7.71-.13,16.71.11,23.5-4a2.61,2.61,0,0,1,4-3.33.86.86,0,0,1,.14.13A32.29,32.29,0,0,0,52.21,6.86s0,.09,0,.13A2.62,2.62,0,0,1,47.46,8.8Z"/><path class="cls-1" d="M16.5,54.63c4.06-3.82,6.37-9.24,8.16-14.68-4.76.65-9.33,1.9-13.19,4.63A2.61,2.61,0,0,1,8.2,47.45a2.56,2.56,0,0,1-1.34-.84h0a2.62,2.62,0,0,1,3.37-3.93,20,20,0,0,1,2-1.56c3.92-2.67,8.55-3.71,13.36-4.13.38-1.24.74-2.47,1.11-3.65.27-.88.53-1.77.8-2.66a22.48,22.48,0,0,0-9.44,2.15,2.32,2.32,0,0,1-3.43,2.51,2.36,2.36,0,0,1-.71-.63l0-.09a2.31,2.31,0,0,1,3.28-3.17c.24-.16.48-.32.74-.47,3.05-1.8,6.58-2.24,10.2-2.25,2-6.72,4.46-13.44,9.73-17.82a17.5,17.5,0,0,1,9.25-4.15,2.6,2.6,0,0,1,1.1-1.6,2.72,2.72,0,0,1,1-.41,32.32,32.32,0,0,0-36.85,53,.54.54,0,0,1-.05-.11,2.61,2.61,0,0,1,4.22-3Z"/><path class="cls-1" d="M64.21,33.11a2.63,2.63,0,0,1-2.88.34c-.24.19-.49.38-.76.56-6.88,4.85-16.23,4.63-24.67,5.08l-.93,0c-1,4.47-2.29,9-5.29,12.26A2.33,2.33,0,0,1,26,54.18L25.83,54a1.82,1.82,0,0,1-.15-.23A2.33,2.33,0,0,1,29,50.65c2.41-3.21,3.48-7.41,4.3-11.42-2.07.11-4.15.23-6.23.44-2.11,6-4.66,11.87-9.46,15.73l-.49.37a2.63,2.63,0,0,1-1.06,2.88,2.57,2.57,0,0,1-2,.38A32.31,32.31,0,0,0,64.63,32.64,2.67,2.67,0,0,1,64.21,33.11Z"/><path class="cls-1" d="M94.11,32.47c-.66,0-1.71.06-2.33.06s-1.86-.06-2.9-.06c-.28,0-.42,0-.42.2s.12.16.3.16a4.11,4.11,0,0,1,.78.06c.66.14.84.46.86,1.14s0,1.35,0,2.35v1.88A.7.7,0,0,1,90,39a4.43,4.43,0,0,1-1.7.22c-4.21,0-6.94-3.21-6.94-7.5,0-2.45.72-3.95,1.84-4.89a5.76,5.76,0,0,1,4-1.23,6.39,6.39,0,0,1,4.45,1.55,2.81,2.81,0,0,1,.68,1.66c0,.16.06.26.2.26s.21-.1.21-.42a26.67,26.67,0,0,1,.14-3.27c0-.14,0-.22-.28-.24A13.19,13.19,0,0,1,91,24.91a24,24,0,0,0-3.53-.32,9.66,9.66,0,0,0-5.37,1.3,7.44,7.44,0,0,0-3.47,6.52c0,5.51,4.33,7.82,9.22,7.82a11.23,11.23,0,0,0,4.8-.9c.24-.14.26-.18.26-.71v-2.2c0-1,0-1.8,0-2.39s.22-1,.76-1.14a3.15,3.15,0,0,1,.54-.06c.14,0,.26,0,.26-.16S94.37,32.47,94.11,32.47Z"/><path class="cls-1" d="M104.79,37.2c-.14,0-.18.1-.2.26a2,2,0,0,1-.44,1c-.44.45-1.12.47-2.06.47-1.35,0-2-.1-2.33-.35s-.38-1.4-.38-3.58V32c0-2.57,0-3.05,0-3.59s.18-.84.66-.92a3.91,3.91,0,0,1,.68-.06c.22,0,.32-.06.32-.18s-.12-.16-.38-.16c-.68,0-2.12,0-2.54,0s-1.59,0-2.41,0c-.26,0-.38,0-.38.16s.1.18.3.18a2.35,2.35,0,0,1,.58.06c.56.16.72.34.76.92s0,1,0,3.59v3c0,1.56,0,2.9-.08,3.61-.06.5-.16.82-.52.9a2.59,2.59,0,0,1-.62.06c-.22,0-.28.1-.28.18s.12.18.34.18.8,0,1.22,0l1,0c.72,0,1.46,0,2.34,0s1.89.06,3.15.06c.92,0,1-.08,1.12-.46a12.84,12.84,0,0,0,.26-2C105,37.38,104.91,37.2,104.79,37.2Z"/><path class="cls-1" d="M112.73,26.88c-5.33,0-7.36,3.75-7.36,6.65s2.07,6.64,7.18,6.64c4.53,0,7.36-3.05,7.36-6.94S117.16,26.88,112.73,26.88Zm.54,12.37C110,39.25,108,36.5,108,33c0-4.19,2.3-5.23,4.25-5.23,2.83,0,5.09,2.32,5.09,6.07C117.3,38.67,114.51,39.25,113.27,39.25Z"/><path class="cls-1" d="M127.9,32.63a3.77,3.77,0,0,0,2-3c0-.9-.56-2.54-3.73-2.54-.6,0-1.76,0-2.63,0-.34,0-1.46,0-2.38,0-.26,0-.4,0-.4.16s.12.18.3.18a3.24,3.24,0,0,1,.7.06c.56.16.72.34.76.92s0,1,0,3.59v3c0,1.56,0,2.9-.08,3.61-.06.5-.16.82-.52.9a2.59,2.59,0,0,1-.62.06c-.22,0-.28.1-.28.18s.12.18.34.18.8,0,1.22,0l1,0,1.49,0c.6,0,1.2.06,1.4.06,3.23,0,4.67-1.87,4.67-3.69C131.13,34.31,129.33,33.09,127.9,32.63Zm-3.12-4.41c0-.18,0-.26.16-.28a4.47,4.47,0,0,1,.76,0,2.35,2.35,0,0,1,2.2,2.55,2.23,2.23,0,0,1-.8,1.8,2.29,2.29,0,0,1-1.38.3,3.75,3.75,0,0,1-.82-.06c-.06,0-.12,0-.12-.18Zm1.88,11a3.25,3.25,0,0,1-1.26-.2c-.56-.22-.62-.55-.62-1.67V33.45c0-.1,0-.12.1-.12h.76a2.5,2.5,0,0,1,1.52.44,3.71,3.71,0,0,1,1.65,3A2.1,2.1,0,0,1,126.66,39.17Z"/><path class="cls-1" d="M145.6,39.59a4.24,4.24,0,0,1-.66-.06c-.32-.06-.82-.28-1.5-1.81-1.11-2.58-4.05-9.52-4.47-10.46-.18-.38-.26-.54-.52-.54s-.31.2-.51.68l-4.59,10.68c-.36.85-.66,1.37-1.46,1.49l-.52,0a.17.17,0,0,0-.2.18c0,.14.1.18.32.18.92,0,1.86-.06,2-.06.55,0,1.37.06,1.95.06.18,0,.28,0,.28-.18s0-.18-.26-.18h-.26c-.54,0-.7-.18-.7-.48a3,3,0,0,1,.26-1l.94-2.28c0-.1.06-.12.16-.12H140a.17.17,0,0,1,.18.12l1.36,3.41a.27.27,0,0,1-.16.38c-.18,0-.22.08-.22.18s.2.12.52.14c1.47,0,2.75,0,3.37,0s.76,0,.76-.18S145.76,39.59,145.6,39.59Zm-5.95-4.85h-3.39c-.06,0-.1,0-.06-.12l1.7-4.29c0-.06,0-.15.1-.15s.06.09.08.15l1.65,4.31C139.75,34.7,139.73,34.74,139.65,34.74Z"/><path class="cls-1" d="M156.07,37.2c-.14,0-.18.1-.2.26a2,2,0,0,1-.44,1c-.44.45-1.12.47-2.06.47-1.35,0-2-.1-2.33-.35s-.38-1.4-.38-3.58V32c0-2.57,0-3.05,0-3.59s.18-.84.66-.92a3.91,3.91,0,0,1,.68-.06c.21,0,.31-.06.31-.18s-.11-.16-.37-.16c-.68,0-2.12,0-2.54,0s-1.59,0-2.41,0c-.26,0-.38,0-.38.16s.1.18.3.18a2.35,2.35,0,0,1,.58.06c.56.16.71.34.75.92s0,1,0,3.59v3c0,1.56,0,2.9-.08,3.61-.06.5-.16.82-.51.9a2.59,2.59,0,0,1-.62.06c-.22,0-.28.1-.28.18s.12.18.34.18.8,0,1.21,0l1,0c.72,0,1.46,0,2.34,0s1.89.06,3.15.06c.92,0,1-.08,1.12-.46a12.84,12.84,0,0,0,.26-2C156.23,37.38,156.19,37.2,156.07,37.2Z"/><path class="cls-1" d="M174.11,36.84c-.16,0-.2.12-.22.3a2.51,2.51,0,0,1-.52,1.2c-.5.53-1.28.55-2.34.55-1.55,0-2.07-.14-2.41-.43s-.42-1.74-.42-4.29V30.65c0-3,0-3.59,0-4.23s.2-1,.74-1.13a5.32,5.32,0,0,1,.78-.06c.23,0,.35,0,.35-.18s-.14-.18-.41-.18c-.78,0-2.24.06-2.72.06s-1.79-.06-2.73-.06c-.3,0-.44,0-.44.18s.12.18.34.18a3,3,0,0,1,.66.06c.66.14.82.46.86,1.13s0,1.2,0,4.23v3.52c0,1.83,0,3.41-.1,4.25-.08.57-.18,1-.58,1.09a3.26,3.26,0,0,1-.72.08c-.24,0-.32.06-.32.16s.14.2.4.2.92,0,1.37,0,.92,0,1.14,0c.82,0,1.54,0,2.44.06s1.93.06,3.37.06c1,0,1.14-.1,1.26-.54a16.91,16.91,0,0,0,.29-2.29C174.26,36.94,174.24,36.84,174.11,36.84Z"/><path class="cls-1" d="M185.73,27.46c.2,0,.34-.08.34-.2s-.12-.14-.32-.14l-1.87,0c-.52,0-1.14,0-1.72,0-.2,0-.3,0-.3.16s.16.16.32.2.38.22.38.38a2.24,2.24,0,0,1-.26.9c-.26.52-2.39,4.15-2.61,4.55-.3-.48-2.59-4.45-2.91-5a1.32,1.32,0,0,1-.22-.58c0-.14.1-.22.24-.26s.4-.08.4-.22-.1-.16-.26-.16c-.8,0-1.62,0-2,0-.58,0-1.9,0-2.19,0s-.34,0-.34.16.12.18.26.18a1.71,1.71,0,0,1,.73.22,3.88,3.88,0,0,1,1.14,1.2c.62.9,3,4.63,3.13,4.89a3.35,3.35,0,0,1,.4,1.77v1.4c0,.28,0,1-.06,1.69,0,.5-.18.82-.54.9a2.62,2.62,0,0,1-.61.06c-.2,0-.28.1-.28.18s.14.18.38.18c.65,0,1.83-.06,2.27-.06s1.66.06,2.75.06c.24,0,.38-.06.38-.18s-.1-.18-.3-.18a6.47,6.47,0,0,1-.87-.06c-.52-.08-.68-.4-.72-.9,0-.71,0-1.41,0-1.69V35.58a3.89,3.89,0,0,1,.22-1.69,56.79,56.79,0,0,1,3.41-5.43,2.36,2.36,0,0,1,.92-.8A2.15,2.15,0,0,1,185.73,27.46Z"/><path class="cls-1" d="M202.67,39.59a3.42,3.42,0,0,1-1-.16c-.54-.16-.7-.62-.86-1.67l-1.6-10.48c-.06-.36-.26-.54-.4-.54s-.32.14-.46.42l-4.7,9.58L189,27.28c-.24-.46-.36-.54-.54-.54s-.3.16-.34.44l-1.74,11.08c-.08.55-.24,1.23-.72,1.29a3,3,0,0,1-.53,0c-.18,0-.28.08-.28.16s.14.2.32.2c.55,0,1.39-.06,1.73-.06s1.12.06,1.86.06c.26,0,.42,0,.42-.2s-.12-.16-.28-.16a3,3,0,0,1-.62-.08c-.3-.06-.54-.18-.54-.5a5.46,5.46,0,0,1,.06-.79l.84-6.63h.06c.58,1.18,1.61,3.31,1.75,3.63.2.48,1.6,3.08,2,3.85.28.52.48.86.7.86s.3-.16.7-1l3.77-7.58h.06l1,7.34c.06.48,0,.68-.08.72s-.2.1-.2.18.1.18.52.2c.7,0,3.2.12,3.63.12.26,0,.46-.06.46-.2S202.83,39.59,202.67,39.59Z"/><path class="cls-1" d="M213.24,37.28c-.12,0-.16.08-.2.26-.12.7-.32,1.06-.76,1.25a4.75,4.75,0,0,1-1.66.22c-1.79,0-2.33-.26-2.37-1.41,0-.5,0-1.94,0-2.52V33.73c0-.1,0-.18.1-.18.44,0,2.43,0,2.75.08.66.06.88.32,1,.66s0,.43.06.61,0,.14.16.14.18-.24.18-.38,0-.79.08-1.13c.1-.86.14-1.14.14-1.24a.16.16,0,0,0-.14-.18c-.08,0-.14.1-.28.22s-.42.22-.84.26-2.67,0-3.07,0c-.1,0-.12-.08-.12-.18V28.26c0-.1,0-.16.12-.16.36,0,2.45,0,2.75.08.88.08,1,.32,1.16.62a1.6,1.6,0,0,1,.12.62c0,.14,0,.22.14.22s.18-.2.2-.28.08-.94.1-1.12a7.53,7.53,0,0,1,.14-1.1c0-.08,0-.16-.12-.16a2.05,2.05,0,0,0-.28.08c-.14,0-.42.08-.74.1s-4.23,0-4.79,0-1.61,0-2.53,0c-.26,0-.4,0-.4.16s.12.18.3.18a3.24,3.24,0,0,1,.7.06c.55.16.71.34.75.92s0,1,0,3.59v3c0,1.56,0,2.9-.08,3.61-.06.5-.16.82-.51.9a2.59,2.59,0,0,1-.62.06c-.22,0-.28.1-.28.18s.12.18.34.18.8,0,1.21,0l1,0c.52,0,1.18,0,2,0s1.91.06,3.23.06c.66,0,.82,0,.94-.44a11.38,11.38,0,0,0,.24-1.87C213.4,37.5,213.38,37.28,213.24,37.28Z"/><path class="cls-1" d="M235.39,39.59a4.39,4.39,0,0,1-.84-.08c-.42-.1-1-.38-1.76-2.17-1.27-3-4.47-11.18-4.95-12.27-.2-.46-.32-.64-.49-.64s-.32.22-.56.8l-5,12.53c-.4,1-.78,1.67-1.7,1.79a6.06,6.06,0,0,1-.62,0c-.16,0-.24,0-.24.16s.12.2.38.2c1,0,2.14-.06,2.36-.06.62,0,1.47.06,2.11.06.22,0,.34,0,.34-.2s-.06-.16-.3-.16h-.3c-.61,0-.79-.26-.79-.62a3.84,3.84,0,0,1,.3-1.21l1.07-2.86c0-.12.08-.16.18-.16H229a.19.19,0,0,1,.2.14l1.6,4.23a.33.33,0,0,1-.18.46c-.2,0-.28.06-.28.18s.24.14.6.16c1.59,0,3,0,3.77,0s.92,0,.92-.2S235.55,39.59,235.39,39.59Zm-6.75-5.84H225c-.08,0-.1-.06-.08-.14l1.84-4.91c0-.08.06-.18.12-.18s.08.1.1.18l1.79,4.93C228.76,33.69,228.74,33.75,228.64,33.75Z"/><path class="cls-1" d="M245.54,37.2c-.14,0-.18.1-.2.26a2,2,0,0,1-.43,1c-.44.45-1.12.47-2.06.47-1.36,0-2-.1-2.33-.35s-.38-1.4-.38-3.58V32c0-2.57,0-3.05,0-3.59s.18-.84.66-.92a3.71,3.71,0,0,1,.67-.06c.22,0,.32-.06.32-.18s-.12-.16-.38-.16c-.67,0-2.11,0-2.53,0s-1.6,0-2.41,0c-.26,0-.38,0-.38.16s.1.18.3.18a2.26,2.26,0,0,1,.57.06c.56.16.72.34.76.92s0,1,0,3.59v3c0,1.56,0,2.9-.08,3.61-.06.5-.16.82-.52.9a2.56,2.56,0,0,1-.61.06c-.22,0-.28.1-.28.18s.12.18.34.18.79,0,1.21,0l1,0c.72,0,1.46,0,2.33,0s1.9.06,3.16.06c.91,0,1-.08,1.11-.46a12.84,12.84,0,0,0,.26-2C245.7,37.38,245.66,37.2,245.54,37.2Z"/><path class="cls-1" d="M256.36,37.2c-.14,0-.18.1-.2.26a2,2,0,0,1-.44,1c-.44.45-1.12.47-2.06.47-1.35,0-2-.1-2.33-.35S251,37.2,251,35V32c0-2.57,0-3.05,0-3.59s.18-.84.66-.92a3.91,3.91,0,0,1,.68-.06c.22,0,.32-.06.32-.18s-.12-.16-.38-.16c-.68,0-2.12,0-2.54,0s-1.59,0-2.41,0c-.26,0-.38,0-.38.16s.1.18.3.18a2.35,2.35,0,0,1,.58.06c.56.16.72.34.76.92s0,1,0,3.59v3c0,1.56,0,2.9-.08,3.61-.06.5-.16.82-.52.9a2.59,2.59,0,0,1-.62.06c-.22,0-.28.1-.28.18s.12.18.34.18.8,0,1.22,0l1,0c.72,0,1.46,0,2.34,0s1.89.06,3.15.06c.92,0,1-.08,1.12-.46a12.84,12.84,0,0,0,.26-2C256.52,37.38,256.48,37.2,256.36,37.2Z"/><path class="cls-1" d="M263.44,39.59a6.58,6.58,0,0,1-.9-.06c-.52-.08-.64-.34-.7-.8-.08-.71-.08-2.07-.08-3.71V32c0-2.57,0-3.05,0-3.59s.18-.84.66-.92a2.44,2.44,0,0,1,.52-.06c.18,0,.28,0,.28-.2s-.14-.14-.36-.14c-.68,0-1.81,0-2.25,0s-1.7,0-2.36,0c-.28,0-.42,0-.42.14s.1.2.28.2a2.25,2.25,0,0,1,.64.08c.38.12.56.32.6.9s0,1,0,3.59v3c0,1.64,0,3-.08,3.69-.06.5-.16.74-.52.82a2.59,2.59,0,0,1-.62.06c-.22,0-.28.1-.28.18s.12.18.34.18c.7,0,1.9-.06,2.3-.06s1.67.06,2.83.06c.2,0,.34-.06.34-.18S263.64,39.59,263.44,39.59Z"/><path class="cls-1" d="M278.84,39.59a4.24,4.24,0,0,1-.66-.06c-.32-.06-.82-.28-1.5-1.81-1.12-2.58-4.05-9.52-4.47-10.46-.18-.38-.26-.54-.52-.54s-.32.2-.52.68l-4.58,10.68c-.36.85-.66,1.37-1.46,1.49l-.52,0a.17.17,0,0,0-.2.18c0,.14.1.18.32.18.92,0,1.86-.06,2-.06.56,0,1.38.06,2,.06.18,0,.28,0,.28-.18s0-.18-.26-.18h-.26c-.54,0-.7-.18-.7-.48a3,3,0,0,1,.26-1L269,35.8c0-.1.06-.12.16-.12h4.13a.17.17,0,0,1,.18.12l1.36,3.41a.27.27,0,0,1-.16.38c-.18,0-.22.08-.22.18s.2.12.52.14c1.47,0,2.75,0,3.37,0s.76,0,.76-.18S279,39.59,278.84,39.59Zm-5.95-4.85H269.5c-.06,0-.1,0-.06-.12l1.69-4.29c0-.06,0-.15.1-.15s.06.09.08.15L273,34.64C273,34.7,273,34.74,272.89,34.74Z"/><path class="cls-1" d="M294.31,27.12c-.85,0-1.51,0-1.71,0-.38,0-1.32,0-2.24,0-.26,0-.44,0-.44.16s.06.18.28.18a3,3,0,0,1,.92.1c.42.16.58.46.6,1.5l.18,7.54h-.08c-.26-.24-2.59-2.63-3.79-3.81-2.56-2.5-5.19-5.19-5.41-5.41s-.54-.56-.76-.56-.3.24-.3.58l-.16,10.06c0,1.47-.08,1.93-.53,2a3.62,3.62,0,0,1-.8.08c-.16,0-.28.08-.28.18s.16.18.4.18c.89,0,1.73-.06,1.89-.06.32,0,1.14.06,2.28.06.24,0,.4,0,.4-.18s-.1-.18-.3-.18a3,3,0,0,1-.92-.12c-.34-.12-.56-.52-.6-1.83l-.2-6.93h.06c.34.3,2.2,2.36,4.11,4.19s4,3.87,5.13,4.89a1,1,0,0,0,.72.36c.14,0,.28-.16.28-.54l.2-10.69c0-1,.16-1.26.63-1.4a1.79,1.79,0,0,1,.54-.06c.2,0,.3-.08.3-.18S294.55,27.12,294.31,27.12Z"/><path class="cls-1" d="M307.6,36.74c-.14,0-.18.08-.22.34a2.84,2.84,0,0,1-.59,1.14c-.7.77-1.56.89-3.12.89a5.65,5.65,0,0,1-5.46-5.94,5.49,5.49,0,0,1,1.61-4.41,4.73,4.73,0,0,1,3.31-1,5,5,0,0,1,3.4,1,2.43,2.43,0,0,1,.67,1.57c0,.22,0,.36.18.36s.22-.18.24-.42,0-1.27.06-1.83.08-.8.08-.94-.06-.18-.26-.2c-.51-.06-1.09-.18-1.75-.28a18.06,18.06,0,0,0-2.56-.18,7.88,7.88,0,0,0-5.56,1.8,6.54,6.54,0,0,0,.14,9.66,9,9,0,0,0,6,1.83,10.21,10.21,0,0,0,3.17-.38.6.6,0,0,0,.46-.5A15,15,0,0,0,307.8,37C307.8,36.9,307.72,36.74,307.6,36.74Z"/><path class="cls-1" d="M318.4,37.28c-.12,0-.16.08-.2.26-.12.7-.32,1.06-.76,1.25a4.73,4.73,0,0,1-1.65.22c-1.8,0-2.34-.26-2.38-1.41,0-.5,0-1.94,0-2.52V33.73c0-.1,0-.18.1-.18.44,0,2.44,0,2.75.08.66.06.88.32,1,.66s0,.43.06.61,0,.14.16.14.18-.24.18-.38,0-.79.08-1.13c.1-.86.14-1.14.14-1.24a.16.16,0,0,0-.14-.18c-.08,0-.14.1-.28.22s-.42.22-.84.26-2.67,0-3.07,0c-.1,0-.12-.08-.12-.18V28.26c0-.1,0-.16.12-.16.36,0,2.46,0,2.75.08.88.08,1,.32,1.16.62a1.6,1.6,0,0,1,.12.62c0,.14,0,.22.14.22s.18-.2.2-.28.08-.94.1-1.12a7.53,7.53,0,0,1,.14-1.1c0-.08,0-.16-.12-.16a2.05,2.05,0,0,0-.28.08c-.14,0-.42.08-.74.1s-4.23,0-4.79,0-1.61,0-2.53,0c-.26,0-.4,0-.4.16s.12.18.3.18a3.24,3.24,0,0,1,.7.06c.56.16.72.34.76.92s0,1,0,3.59v3c0,1.56,0,2.9-.08,3.61-.06.5-.16.82-.52.9a2.59,2.59,0,0,1-.62.06c-.22,0-.28.1-.28.18s.12.18.34.18.8,0,1.22,0l1,0c.52,0,1.18,0,2,0s1.91.06,3.23.06c.66,0,.82,0,.94-.44a11.38,11.38,0,0,0,.24-1.87C318.56,37.5,318.54,37.28,318.4,37.28Z"/></svg>